G75*
%MOIN*%
%OFA0B0*%
%FSLAX25Y25*%
%IPPOS*%
%LPD*%
%AMOC8*
5,1,8,0,0,1.08239X$1,22.5*
%
%ADD10C,0.00000*%
%ADD11R,0.05150X0.05150*%
%ADD12C,0.06600*%
%ADD13R,0.07000X0.07000*%
%ADD14C,0.07000*%
%ADD15OC8,0.05150*%
%ADD16C,0.05150*%
%ADD17OC8,0.06000*%
%ADD18OC8,0.05200*%
%ADD19C,0.05937*%
%ADD20C,0.07050*%
%ADD21C,0.10000*%
%ADD22C,0.01000*%
%ADD23C,0.00600*%
%ADD24C,0.02400*%
D10*
X0001000Y0004000D02*
X0001000Y0343961D01*
X0332301Y0343961D01*
X0332301Y0004000D01*
X0001000Y0004000D01*
X0004701Y0014000D02*
X0004703Y0014158D01*
X0004709Y0014316D01*
X0004719Y0014474D01*
X0004733Y0014632D01*
X0004751Y0014789D01*
X0004772Y0014946D01*
X0004798Y0015102D01*
X0004828Y0015258D01*
X0004861Y0015413D01*
X0004899Y0015566D01*
X0004940Y0015719D01*
X0004985Y0015871D01*
X0005034Y0016022D01*
X0005087Y0016171D01*
X0005143Y0016319D01*
X0005203Y0016465D01*
X0005267Y0016610D01*
X0005335Y0016753D01*
X0005406Y0016895D01*
X0005480Y0017035D01*
X0005558Y0017172D01*
X0005640Y0017308D01*
X0005724Y0017442D01*
X0005813Y0017573D01*
X0005904Y0017702D01*
X0005999Y0017829D01*
X0006096Y0017954D01*
X0006197Y0018076D01*
X0006301Y0018195D01*
X0006408Y0018312D01*
X0006518Y0018426D01*
X0006631Y0018537D01*
X0006746Y0018646D01*
X0006864Y0018751D01*
X0006985Y0018853D01*
X0007108Y0018953D01*
X0007234Y0019049D01*
X0007362Y0019142D01*
X0007492Y0019232D01*
X0007625Y0019318D01*
X0007760Y0019402D01*
X0007896Y0019481D01*
X0008035Y0019558D01*
X0008176Y0019630D01*
X0008318Y0019700D01*
X0008462Y0019765D01*
X0008608Y0019827D01*
X0008755Y0019885D01*
X0008904Y0019940D01*
X0009054Y0019991D01*
X0009205Y0020038D01*
X0009357Y0020081D01*
X0009510Y0020120D01*
X0009665Y0020156D01*
X0009820Y0020187D01*
X0009976Y0020215D01*
X0010132Y0020239D01*
X0010289Y0020259D01*
X0010447Y0020275D01*
X0010604Y0020287D01*
X0010763Y0020295D01*
X0010921Y0020299D01*
X0011079Y0020299D01*
X0011237Y0020295D01*
X0011396Y0020287D01*
X0011553Y0020275D01*
X0011711Y0020259D01*
X0011868Y0020239D01*
X0012024Y0020215D01*
X0012180Y0020187D01*
X0012335Y0020156D01*
X0012490Y0020120D01*
X0012643Y0020081D01*
X0012795Y0020038D01*
X0012946Y0019991D01*
X0013096Y0019940D01*
X0013245Y0019885D01*
X0013392Y0019827D01*
X0013538Y0019765D01*
X0013682Y0019700D01*
X0013824Y0019630D01*
X0013965Y0019558D01*
X0014104Y0019481D01*
X0014240Y0019402D01*
X0014375Y0019318D01*
X0014508Y0019232D01*
X0014638Y0019142D01*
X0014766Y0019049D01*
X0014892Y0018953D01*
X0015015Y0018853D01*
X0015136Y0018751D01*
X0015254Y0018646D01*
X0015369Y0018537D01*
X0015482Y0018426D01*
X0015592Y0018312D01*
X0015699Y0018195D01*
X0015803Y0018076D01*
X0015904Y0017954D01*
X0016001Y0017829D01*
X0016096Y0017702D01*
X0016187Y0017573D01*
X0016276Y0017442D01*
X0016360Y0017308D01*
X0016442Y0017172D01*
X0016520Y0017035D01*
X0016594Y0016895D01*
X0016665Y0016753D01*
X0016733Y0016610D01*
X0016797Y0016465D01*
X0016857Y0016319D01*
X0016913Y0016171D01*
X0016966Y0016022D01*
X0017015Y0015871D01*
X0017060Y0015719D01*
X0017101Y0015566D01*
X0017139Y0015413D01*
X0017172Y0015258D01*
X0017202Y0015102D01*
X0017228Y0014946D01*
X0017249Y0014789D01*
X0017267Y0014632D01*
X0017281Y0014474D01*
X0017291Y0014316D01*
X0017297Y0014158D01*
X0017299Y0014000D01*
X0017297Y0013842D01*
X0017291Y0013684D01*
X0017281Y0013526D01*
X0017267Y0013368D01*
X0017249Y0013211D01*
X0017228Y0013054D01*
X0017202Y0012898D01*
X0017172Y0012742D01*
X0017139Y0012587D01*
X0017101Y0012434D01*
X0017060Y0012281D01*
X0017015Y0012129D01*
X0016966Y0011978D01*
X0016913Y0011829D01*
X0016857Y0011681D01*
X0016797Y0011535D01*
X0016733Y0011390D01*
X0016665Y0011247D01*
X0016594Y0011105D01*
X0016520Y0010965D01*
X0016442Y0010828D01*
X0016360Y0010692D01*
X0016276Y0010558D01*
X0016187Y0010427D01*
X0016096Y0010298D01*
X0016001Y0010171D01*
X0015904Y0010046D01*
X0015803Y0009924D01*
X0015699Y0009805D01*
X0015592Y0009688D01*
X0015482Y0009574D01*
X0015369Y0009463D01*
X0015254Y0009354D01*
X0015136Y0009249D01*
X0015015Y0009147D01*
X0014892Y0009047D01*
X0014766Y0008951D01*
X0014638Y0008858D01*
X0014508Y0008768D01*
X0014375Y0008682D01*
X0014240Y0008598D01*
X0014104Y0008519D01*
X0013965Y0008442D01*
X0013824Y0008370D01*
X0013682Y0008300D01*
X0013538Y0008235D01*
X0013392Y0008173D01*
X0013245Y0008115D01*
X0013096Y0008060D01*
X0012946Y0008009D01*
X0012795Y0007962D01*
X0012643Y0007919D01*
X0012490Y0007880D01*
X0012335Y0007844D01*
X0012180Y0007813D01*
X0012024Y0007785D01*
X0011868Y0007761D01*
X0011711Y0007741D01*
X0011553Y0007725D01*
X0011396Y0007713D01*
X0011237Y0007705D01*
X0011079Y0007701D01*
X0010921Y0007701D01*
X0010763Y0007705D01*
X0010604Y0007713D01*
X0010447Y0007725D01*
X0010289Y0007741D01*
X0010132Y0007761D01*
X0009976Y0007785D01*
X0009820Y0007813D01*
X0009665Y0007844D01*
X0009510Y0007880D01*
X0009357Y0007919D01*
X0009205Y0007962D01*
X0009054Y0008009D01*
X0008904Y0008060D01*
X0008755Y0008115D01*
X0008608Y0008173D01*
X0008462Y0008235D01*
X0008318Y0008300D01*
X0008176Y0008370D01*
X0008035Y0008442D01*
X0007896Y0008519D01*
X0007760Y0008598D01*
X0007625Y0008682D01*
X0007492Y0008768D01*
X0007362Y0008858D01*
X0007234Y0008951D01*
X0007108Y0009047D01*
X0006985Y0009147D01*
X0006864Y0009249D01*
X0006746Y0009354D01*
X0006631Y0009463D01*
X0006518Y0009574D01*
X0006408Y0009688D01*
X0006301Y0009805D01*
X0006197Y0009924D01*
X0006096Y0010046D01*
X0005999Y0010171D01*
X0005904Y0010298D01*
X0005813Y0010427D01*
X0005724Y0010558D01*
X0005640Y0010692D01*
X0005558Y0010828D01*
X0005480Y0010965D01*
X0005406Y0011105D01*
X0005335Y0011247D01*
X0005267Y0011390D01*
X0005203Y0011535D01*
X0005143Y0011681D01*
X0005087Y0011829D01*
X0005034Y0011978D01*
X0004985Y0012129D01*
X0004940Y0012281D01*
X0004899Y0012434D01*
X0004861Y0012587D01*
X0004828Y0012742D01*
X0004798Y0012898D01*
X0004772Y0013054D01*
X0004751Y0013211D01*
X0004733Y0013368D01*
X0004719Y0013526D01*
X0004709Y0013684D01*
X0004703Y0013842D01*
X0004701Y0014000D01*
X0044500Y0168000D02*
X0044502Y0168161D01*
X0044508Y0168321D01*
X0044518Y0168482D01*
X0044532Y0168642D01*
X0044550Y0168802D01*
X0044571Y0168961D01*
X0044597Y0169120D01*
X0044627Y0169278D01*
X0044660Y0169435D01*
X0044698Y0169592D01*
X0044739Y0169747D01*
X0044784Y0169901D01*
X0044833Y0170054D01*
X0044886Y0170206D01*
X0044942Y0170357D01*
X0045003Y0170506D01*
X0045066Y0170654D01*
X0045134Y0170800D01*
X0045205Y0170944D01*
X0045279Y0171086D01*
X0045357Y0171227D01*
X0045439Y0171365D01*
X0045524Y0171502D01*
X0045612Y0171636D01*
X0045704Y0171768D01*
X0045799Y0171898D01*
X0045897Y0172026D01*
X0045998Y0172151D01*
X0046102Y0172273D01*
X0046209Y0172393D01*
X0046319Y0172510D01*
X0046432Y0172625D01*
X0046548Y0172736D01*
X0046667Y0172845D01*
X0046788Y0172950D01*
X0046912Y0173053D01*
X0047038Y0173153D01*
X0047166Y0173249D01*
X0047297Y0173342D01*
X0047431Y0173432D01*
X0047566Y0173519D01*
X0047704Y0173602D01*
X0047843Y0173682D01*
X0047985Y0173758D01*
X0048128Y0173831D01*
X0048273Y0173900D01*
X0048420Y0173966D01*
X0048568Y0174028D01*
X0048718Y0174086D01*
X0048869Y0174141D01*
X0049022Y0174192D01*
X0049176Y0174239D01*
X0049331Y0174282D01*
X0049487Y0174321D01*
X0049643Y0174357D01*
X0049801Y0174388D01*
X0049959Y0174416D01*
X0050118Y0174440D01*
X0050278Y0174460D01*
X0050438Y0174476D01*
X0050598Y0174488D01*
X0050759Y0174496D01*
X0050920Y0174500D01*
X0051080Y0174500D01*
X0051241Y0174496D01*
X0051402Y0174488D01*
X0051562Y0174476D01*
X0051722Y0174460D01*
X0051882Y0174440D01*
X0052041Y0174416D01*
X0052199Y0174388D01*
X0052357Y0174357D01*
X0052513Y0174321D01*
X0052669Y0174282D01*
X0052824Y0174239D01*
X0052978Y0174192D01*
X0053131Y0174141D01*
X0053282Y0174086D01*
X0053432Y0174028D01*
X0053580Y0173966D01*
X0053727Y0173900D01*
X0053872Y0173831D01*
X0054015Y0173758D01*
X0054157Y0173682D01*
X0054296Y0173602D01*
X0054434Y0173519D01*
X0054569Y0173432D01*
X0054703Y0173342D01*
X0054834Y0173249D01*
X0054962Y0173153D01*
X0055088Y0173053D01*
X0055212Y0172950D01*
X0055333Y0172845D01*
X0055452Y0172736D01*
X0055568Y0172625D01*
X0055681Y0172510D01*
X0055791Y0172393D01*
X0055898Y0172273D01*
X0056002Y0172151D01*
X0056103Y0172026D01*
X0056201Y0171898D01*
X0056296Y0171768D01*
X0056388Y0171636D01*
X0056476Y0171502D01*
X0056561Y0171365D01*
X0056643Y0171227D01*
X0056721Y0171086D01*
X0056795Y0170944D01*
X0056866Y0170800D01*
X0056934Y0170654D01*
X0056997Y0170506D01*
X0057058Y0170357D01*
X0057114Y0170206D01*
X0057167Y0170054D01*
X0057216Y0169901D01*
X0057261Y0169747D01*
X0057302Y0169592D01*
X0057340Y0169435D01*
X0057373Y0169278D01*
X0057403Y0169120D01*
X0057429Y0168961D01*
X0057450Y0168802D01*
X0057468Y0168642D01*
X0057482Y0168482D01*
X0057492Y0168321D01*
X0057498Y0168161D01*
X0057500Y0168000D01*
X0057498Y0167839D01*
X0057492Y0167679D01*
X0057482Y0167518D01*
X0057468Y0167358D01*
X0057450Y0167198D01*
X0057429Y0167039D01*
X0057403Y0166880D01*
X0057373Y0166722D01*
X0057340Y0166565D01*
X0057302Y0166408D01*
X0057261Y0166253D01*
X0057216Y0166099D01*
X0057167Y0165946D01*
X0057114Y0165794D01*
X0057058Y0165643D01*
X0056997Y0165494D01*
X0056934Y0165346D01*
X0056866Y0165200D01*
X0056795Y0165056D01*
X0056721Y0164914D01*
X0056643Y0164773D01*
X0056561Y0164635D01*
X0056476Y0164498D01*
X0056388Y0164364D01*
X0056296Y0164232D01*
X0056201Y0164102D01*
X0056103Y0163974D01*
X0056002Y0163849D01*
X0055898Y0163727D01*
X0055791Y0163607D01*
X0055681Y0163490D01*
X0055568Y0163375D01*
X0055452Y0163264D01*
X0055333Y0163155D01*
X0055212Y0163050D01*
X0055088Y0162947D01*
X0054962Y0162847D01*
X0054834Y0162751D01*
X0054703Y0162658D01*
X0054569Y0162568D01*
X0054434Y0162481D01*
X0054296Y0162398D01*
X0054157Y0162318D01*
X0054015Y0162242D01*
X0053872Y0162169D01*
X0053727Y0162100D01*
X0053580Y0162034D01*
X0053432Y0161972D01*
X0053282Y0161914D01*
X0053131Y0161859D01*
X0052978Y0161808D01*
X0052824Y0161761D01*
X0052669Y0161718D01*
X0052513Y0161679D01*
X0052357Y0161643D01*
X0052199Y0161612D01*
X0052041Y0161584D01*
X0051882Y0161560D01*
X0051722Y0161540D01*
X0051562Y0161524D01*
X0051402Y0161512D01*
X0051241Y0161504D01*
X0051080Y0161500D01*
X0050920Y0161500D01*
X0050759Y0161504D01*
X0050598Y0161512D01*
X0050438Y0161524D01*
X0050278Y0161540D01*
X0050118Y0161560D01*
X0049959Y0161584D01*
X0049801Y0161612D01*
X0049643Y0161643D01*
X0049487Y0161679D01*
X0049331Y0161718D01*
X0049176Y0161761D01*
X0049022Y0161808D01*
X0048869Y0161859D01*
X0048718Y0161914D01*
X0048568Y0161972D01*
X0048420Y0162034D01*
X0048273Y0162100D01*
X0048128Y0162169D01*
X0047985Y0162242D01*
X0047843Y0162318D01*
X0047704Y0162398D01*
X0047566Y0162481D01*
X0047431Y0162568D01*
X0047297Y0162658D01*
X0047166Y0162751D01*
X0047038Y0162847D01*
X0046912Y0162947D01*
X0046788Y0163050D01*
X0046667Y0163155D01*
X0046548Y0163264D01*
X0046432Y0163375D01*
X0046319Y0163490D01*
X0046209Y0163607D01*
X0046102Y0163727D01*
X0045998Y0163849D01*
X0045897Y0163974D01*
X0045799Y0164102D01*
X0045704Y0164232D01*
X0045612Y0164364D01*
X0045524Y0164498D01*
X0045439Y0164635D01*
X0045357Y0164773D01*
X0045279Y0164914D01*
X0045205Y0165056D01*
X0045134Y0165200D01*
X0045066Y0165346D01*
X0045003Y0165494D01*
X0044942Y0165643D01*
X0044886Y0165794D01*
X0044833Y0165946D01*
X0044784Y0166099D01*
X0044739Y0166253D01*
X0044698Y0166408D01*
X0044660Y0166565D01*
X0044627Y0166722D01*
X0044597Y0166880D01*
X0044571Y0167039D01*
X0044550Y0167198D01*
X0044532Y0167358D01*
X0044518Y0167518D01*
X0044508Y0167679D01*
X0044502Y0167839D01*
X0044500Y0168000D01*
X0089500Y0168000D02*
X0089502Y0168161D01*
X0089508Y0168321D01*
X0089518Y0168482D01*
X0089532Y0168642D01*
X0089550Y0168802D01*
X0089571Y0168961D01*
X0089597Y0169120D01*
X0089627Y0169278D01*
X0089660Y0169435D01*
X0089698Y0169592D01*
X0089739Y0169747D01*
X0089784Y0169901D01*
X0089833Y0170054D01*
X0089886Y0170206D01*
X0089942Y0170357D01*
X0090003Y0170506D01*
X0090066Y0170654D01*
X0090134Y0170800D01*
X0090205Y0170944D01*
X0090279Y0171086D01*
X0090357Y0171227D01*
X0090439Y0171365D01*
X0090524Y0171502D01*
X0090612Y0171636D01*
X0090704Y0171768D01*
X0090799Y0171898D01*
X0090897Y0172026D01*
X0090998Y0172151D01*
X0091102Y0172273D01*
X0091209Y0172393D01*
X0091319Y0172510D01*
X0091432Y0172625D01*
X0091548Y0172736D01*
X0091667Y0172845D01*
X0091788Y0172950D01*
X0091912Y0173053D01*
X0092038Y0173153D01*
X0092166Y0173249D01*
X0092297Y0173342D01*
X0092431Y0173432D01*
X0092566Y0173519D01*
X0092704Y0173602D01*
X0092843Y0173682D01*
X0092985Y0173758D01*
X0093128Y0173831D01*
X0093273Y0173900D01*
X0093420Y0173966D01*
X0093568Y0174028D01*
X0093718Y0174086D01*
X0093869Y0174141D01*
X0094022Y0174192D01*
X0094176Y0174239D01*
X0094331Y0174282D01*
X0094487Y0174321D01*
X0094643Y0174357D01*
X0094801Y0174388D01*
X0094959Y0174416D01*
X0095118Y0174440D01*
X0095278Y0174460D01*
X0095438Y0174476D01*
X0095598Y0174488D01*
X0095759Y0174496D01*
X0095920Y0174500D01*
X0096080Y0174500D01*
X0096241Y0174496D01*
X0096402Y0174488D01*
X0096562Y0174476D01*
X0096722Y0174460D01*
X0096882Y0174440D01*
X0097041Y0174416D01*
X0097199Y0174388D01*
X0097357Y0174357D01*
X0097513Y0174321D01*
X0097669Y0174282D01*
X0097824Y0174239D01*
X0097978Y0174192D01*
X0098131Y0174141D01*
X0098282Y0174086D01*
X0098432Y0174028D01*
X0098580Y0173966D01*
X0098727Y0173900D01*
X0098872Y0173831D01*
X0099015Y0173758D01*
X0099157Y0173682D01*
X0099296Y0173602D01*
X0099434Y0173519D01*
X0099569Y0173432D01*
X0099703Y0173342D01*
X0099834Y0173249D01*
X0099962Y0173153D01*
X0100088Y0173053D01*
X0100212Y0172950D01*
X0100333Y0172845D01*
X0100452Y0172736D01*
X0100568Y0172625D01*
X0100681Y0172510D01*
X0100791Y0172393D01*
X0100898Y0172273D01*
X0101002Y0172151D01*
X0101103Y0172026D01*
X0101201Y0171898D01*
X0101296Y0171768D01*
X0101388Y0171636D01*
X0101476Y0171502D01*
X0101561Y0171365D01*
X0101643Y0171227D01*
X0101721Y0171086D01*
X0101795Y0170944D01*
X0101866Y0170800D01*
X0101934Y0170654D01*
X0101997Y0170506D01*
X0102058Y0170357D01*
X0102114Y0170206D01*
X0102167Y0170054D01*
X0102216Y0169901D01*
X0102261Y0169747D01*
X0102302Y0169592D01*
X0102340Y0169435D01*
X0102373Y0169278D01*
X0102403Y0169120D01*
X0102429Y0168961D01*
X0102450Y0168802D01*
X0102468Y0168642D01*
X0102482Y0168482D01*
X0102492Y0168321D01*
X0102498Y0168161D01*
X0102500Y0168000D01*
X0102498Y0167839D01*
X0102492Y0167679D01*
X0102482Y0167518D01*
X0102468Y0167358D01*
X0102450Y0167198D01*
X0102429Y0167039D01*
X0102403Y0166880D01*
X0102373Y0166722D01*
X0102340Y0166565D01*
X0102302Y0166408D01*
X0102261Y0166253D01*
X0102216Y0166099D01*
X0102167Y0165946D01*
X0102114Y0165794D01*
X0102058Y0165643D01*
X0101997Y0165494D01*
X0101934Y0165346D01*
X0101866Y0165200D01*
X0101795Y0165056D01*
X0101721Y0164914D01*
X0101643Y0164773D01*
X0101561Y0164635D01*
X0101476Y0164498D01*
X0101388Y0164364D01*
X0101296Y0164232D01*
X0101201Y0164102D01*
X0101103Y0163974D01*
X0101002Y0163849D01*
X0100898Y0163727D01*
X0100791Y0163607D01*
X0100681Y0163490D01*
X0100568Y0163375D01*
X0100452Y0163264D01*
X0100333Y0163155D01*
X0100212Y0163050D01*
X0100088Y0162947D01*
X0099962Y0162847D01*
X0099834Y0162751D01*
X0099703Y0162658D01*
X0099569Y0162568D01*
X0099434Y0162481D01*
X0099296Y0162398D01*
X0099157Y0162318D01*
X0099015Y0162242D01*
X0098872Y0162169D01*
X0098727Y0162100D01*
X0098580Y0162034D01*
X0098432Y0161972D01*
X0098282Y0161914D01*
X0098131Y0161859D01*
X0097978Y0161808D01*
X0097824Y0161761D01*
X0097669Y0161718D01*
X0097513Y0161679D01*
X0097357Y0161643D01*
X0097199Y0161612D01*
X0097041Y0161584D01*
X0096882Y0161560D01*
X0096722Y0161540D01*
X0096562Y0161524D01*
X0096402Y0161512D01*
X0096241Y0161504D01*
X0096080Y0161500D01*
X0095920Y0161500D01*
X0095759Y0161504D01*
X0095598Y0161512D01*
X0095438Y0161524D01*
X0095278Y0161540D01*
X0095118Y0161560D01*
X0094959Y0161584D01*
X0094801Y0161612D01*
X0094643Y0161643D01*
X0094487Y0161679D01*
X0094331Y0161718D01*
X0094176Y0161761D01*
X0094022Y0161808D01*
X0093869Y0161859D01*
X0093718Y0161914D01*
X0093568Y0161972D01*
X0093420Y0162034D01*
X0093273Y0162100D01*
X0093128Y0162169D01*
X0092985Y0162242D01*
X0092843Y0162318D01*
X0092704Y0162398D01*
X0092566Y0162481D01*
X0092431Y0162568D01*
X0092297Y0162658D01*
X0092166Y0162751D01*
X0092038Y0162847D01*
X0091912Y0162947D01*
X0091788Y0163050D01*
X0091667Y0163155D01*
X0091548Y0163264D01*
X0091432Y0163375D01*
X0091319Y0163490D01*
X0091209Y0163607D01*
X0091102Y0163727D01*
X0090998Y0163849D01*
X0090897Y0163974D01*
X0090799Y0164102D01*
X0090704Y0164232D01*
X0090612Y0164364D01*
X0090524Y0164498D01*
X0090439Y0164635D01*
X0090357Y0164773D01*
X0090279Y0164914D01*
X0090205Y0165056D01*
X0090134Y0165200D01*
X0090066Y0165346D01*
X0090003Y0165494D01*
X0089942Y0165643D01*
X0089886Y0165794D01*
X0089833Y0165946D01*
X0089784Y0166099D01*
X0089739Y0166253D01*
X0089698Y0166408D01*
X0089660Y0166565D01*
X0089627Y0166722D01*
X0089597Y0166880D01*
X0089571Y0167039D01*
X0089550Y0167198D01*
X0089532Y0167358D01*
X0089518Y0167518D01*
X0089508Y0167679D01*
X0089502Y0167839D01*
X0089500Y0168000D01*
X0134500Y0168000D02*
X0134502Y0168161D01*
X0134508Y0168321D01*
X0134518Y0168482D01*
X0134532Y0168642D01*
X0134550Y0168802D01*
X0134571Y0168961D01*
X0134597Y0169120D01*
X0134627Y0169278D01*
X0134660Y0169435D01*
X0134698Y0169592D01*
X0134739Y0169747D01*
X0134784Y0169901D01*
X0134833Y0170054D01*
X0134886Y0170206D01*
X0134942Y0170357D01*
X0135003Y0170506D01*
X0135066Y0170654D01*
X0135134Y0170800D01*
X0135205Y0170944D01*
X0135279Y0171086D01*
X0135357Y0171227D01*
X0135439Y0171365D01*
X0135524Y0171502D01*
X0135612Y0171636D01*
X0135704Y0171768D01*
X0135799Y0171898D01*
X0135897Y0172026D01*
X0135998Y0172151D01*
X0136102Y0172273D01*
X0136209Y0172393D01*
X0136319Y0172510D01*
X0136432Y0172625D01*
X0136548Y0172736D01*
X0136667Y0172845D01*
X0136788Y0172950D01*
X0136912Y0173053D01*
X0137038Y0173153D01*
X0137166Y0173249D01*
X0137297Y0173342D01*
X0137431Y0173432D01*
X0137566Y0173519D01*
X0137704Y0173602D01*
X0137843Y0173682D01*
X0137985Y0173758D01*
X0138128Y0173831D01*
X0138273Y0173900D01*
X0138420Y0173966D01*
X0138568Y0174028D01*
X0138718Y0174086D01*
X0138869Y0174141D01*
X0139022Y0174192D01*
X0139176Y0174239D01*
X0139331Y0174282D01*
X0139487Y0174321D01*
X0139643Y0174357D01*
X0139801Y0174388D01*
X0139959Y0174416D01*
X0140118Y0174440D01*
X0140278Y0174460D01*
X0140438Y0174476D01*
X0140598Y0174488D01*
X0140759Y0174496D01*
X0140920Y0174500D01*
X0141080Y0174500D01*
X0141241Y0174496D01*
X0141402Y0174488D01*
X0141562Y0174476D01*
X0141722Y0174460D01*
X0141882Y0174440D01*
X0142041Y0174416D01*
X0142199Y0174388D01*
X0142357Y0174357D01*
X0142513Y0174321D01*
X0142669Y0174282D01*
X0142824Y0174239D01*
X0142978Y0174192D01*
X0143131Y0174141D01*
X0143282Y0174086D01*
X0143432Y0174028D01*
X0143580Y0173966D01*
X0143727Y0173900D01*
X0143872Y0173831D01*
X0144015Y0173758D01*
X0144157Y0173682D01*
X0144296Y0173602D01*
X0144434Y0173519D01*
X0144569Y0173432D01*
X0144703Y0173342D01*
X0144834Y0173249D01*
X0144962Y0173153D01*
X0145088Y0173053D01*
X0145212Y0172950D01*
X0145333Y0172845D01*
X0145452Y0172736D01*
X0145568Y0172625D01*
X0145681Y0172510D01*
X0145791Y0172393D01*
X0145898Y0172273D01*
X0146002Y0172151D01*
X0146103Y0172026D01*
X0146201Y0171898D01*
X0146296Y0171768D01*
X0146388Y0171636D01*
X0146476Y0171502D01*
X0146561Y0171365D01*
X0146643Y0171227D01*
X0146721Y0171086D01*
X0146795Y0170944D01*
X0146866Y0170800D01*
X0146934Y0170654D01*
X0146997Y0170506D01*
X0147058Y0170357D01*
X0147114Y0170206D01*
X0147167Y0170054D01*
X0147216Y0169901D01*
X0147261Y0169747D01*
X0147302Y0169592D01*
X0147340Y0169435D01*
X0147373Y0169278D01*
X0147403Y0169120D01*
X0147429Y0168961D01*
X0147450Y0168802D01*
X0147468Y0168642D01*
X0147482Y0168482D01*
X0147492Y0168321D01*
X0147498Y0168161D01*
X0147500Y0168000D01*
X0147498Y0167839D01*
X0147492Y0167679D01*
X0147482Y0167518D01*
X0147468Y0167358D01*
X0147450Y0167198D01*
X0147429Y0167039D01*
X0147403Y0166880D01*
X0147373Y0166722D01*
X0147340Y0166565D01*
X0147302Y0166408D01*
X0147261Y0166253D01*
X0147216Y0166099D01*
X0147167Y0165946D01*
X0147114Y0165794D01*
X0147058Y0165643D01*
X0146997Y0165494D01*
X0146934Y0165346D01*
X0146866Y0165200D01*
X0146795Y0165056D01*
X0146721Y0164914D01*
X0146643Y0164773D01*
X0146561Y0164635D01*
X0146476Y0164498D01*
X0146388Y0164364D01*
X0146296Y0164232D01*
X0146201Y0164102D01*
X0146103Y0163974D01*
X0146002Y0163849D01*
X0145898Y0163727D01*
X0145791Y0163607D01*
X0145681Y0163490D01*
X0145568Y0163375D01*
X0145452Y0163264D01*
X0145333Y0163155D01*
X0145212Y0163050D01*
X0145088Y0162947D01*
X0144962Y0162847D01*
X0144834Y0162751D01*
X0144703Y0162658D01*
X0144569Y0162568D01*
X0144434Y0162481D01*
X0144296Y0162398D01*
X0144157Y0162318D01*
X0144015Y0162242D01*
X0143872Y0162169D01*
X0143727Y0162100D01*
X0143580Y0162034D01*
X0143432Y0161972D01*
X0143282Y0161914D01*
X0143131Y0161859D01*
X0142978Y0161808D01*
X0142824Y0161761D01*
X0142669Y0161718D01*
X0142513Y0161679D01*
X0142357Y0161643D01*
X0142199Y0161612D01*
X0142041Y0161584D01*
X0141882Y0161560D01*
X0141722Y0161540D01*
X0141562Y0161524D01*
X0141402Y0161512D01*
X0141241Y0161504D01*
X0141080Y0161500D01*
X0140920Y0161500D01*
X0140759Y0161504D01*
X0140598Y0161512D01*
X0140438Y0161524D01*
X0140278Y0161540D01*
X0140118Y0161560D01*
X0139959Y0161584D01*
X0139801Y0161612D01*
X0139643Y0161643D01*
X0139487Y0161679D01*
X0139331Y0161718D01*
X0139176Y0161761D01*
X0139022Y0161808D01*
X0138869Y0161859D01*
X0138718Y0161914D01*
X0138568Y0161972D01*
X0138420Y0162034D01*
X0138273Y0162100D01*
X0138128Y0162169D01*
X0137985Y0162242D01*
X0137843Y0162318D01*
X0137704Y0162398D01*
X0137566Y0162481D01*
X0137431Y0162568D01*
X0137297Y0162658D01*
X0137166Y0162751D01*
X0137038Y0162847D01*
X0136912Y0162947D01*
X0136788Y0163050D01*
X0136667Y0163155D01*
X0136548Y0163264D01*
X0136432Y0163375D01*
X0136319Y0163490D01*
X0136209Y0163607D01*
X0136102Y0163727D01*
X0135998Y0163849D01*
X0135897Y0163974D01*
X0135799Y0164102D01*
X0135704Y0164232D01*
X0135612Y0164364D01*
X0135524Y0164498D01*
X0135439Y0164635D01*
X0135357Y0164773D01*
X0135279Y0164914D01*
X0135205Y0165056D01*
X0135134Y0165200D01*
X0135066Y0165346D01*
X0135003Y0165494D01*
X0134942Y0165643D01*
X0134886Y0165794D01*
X0134833Y0165946D01*
X0134784Y0166099D01*
X0134739Y0166253D01*
X0134698Y0166408D01*
X0134660Y0166565D01*
X0134627Y0166722D01*
X0134597Y0166880D01*
X0134571Y0167039D01*
X0134550Y0167198D01*
X0134532Y0167358D01*
X0134518Y0167518D01*
X0134508Y0167679D01*
X0134502Y0167839D01*
X0134500Y0168000D01*
X0179500Y0168000D02*
X0179502Y0168161D01*
X0179508Y0168321D01*
X0179518Y0168482D01*
X0179532Y0168642D01*
X0179550Y0168802D01*
X0179571Y0168961D01*
X0179597Y0169120D01*
X0179627Y0169278D01*
X0179660Y0169435D01*
X0179698Y0169592D01*
X0179739Y0169747D01*
X0179784Y0169901D01*
X0179833Y0170054D01*
X0179886Y0170206D01*
X0179942Y0170357D01*
X0180003Y0170506D01*
X0180066Y0170654D01*
X0180134Y0170800D01*
X0180205Y0170944D01*
X0180279Y0171086D01*
X0180357Y0171227D01*
X0180439Y0171365D01*
X0180524Y0171502D01*
X0180612Y0171636D01*
X0180704Y0171768D01*
X0180799Y0171898D01*
X0180897Y0172026D01*
X0180998Y0172151D01*
X0181102Y0172273D01*
X0181209Y0172393D01*
X0181319Y0172510D01*
X0181432Y0172625D01*
X0181548Y0172736D01*
X0181667Y0172845D01*
X0181788Y0172950D01*
X0181912Y0173053D01*
X0182038Y0173153D01*
X0182166Y0173249D01*
X0182297Y0173342D01*
X0182431Y0173432D01*
X0182566Y0173519D01*
X0182704Y0173602D01*
X0182843Y0173682D01*
X0182985Y0173758D01*
X0183128Y0173831D01*
X0183273Y0173900D01*
X0183420Y0173966D01*
X0183568Y0174028D01*
X0183718Y0174086D01*
X0183869Y0174141D01*
X0184022Y0174192D01*
X0184176Y0174239D01*
X0184331Y0174282D01*
X0184487Y0174321D01*
X0184643Y0174357D01*
X0184801Y0174388D01*
X0184959Y0174416D01*
X0185118Y0174440D01*
X0185278Y0174460D01*
X0185438Y0174476D01*
X0185598Y0174488D01*
X0185759Y0174496D01*
X0185920Y0174500D01*
X0186080Y0174500D01*
X0186241Y0174496D01*
X0186402Y0174488D01*
X0186562Y0174476D01*
X0186722Y0174460D01*
X0186882Y0174440D01*
X0187041Y0174416D01*
X0187199Y0174388D01*
X0187357Y0174357D01*
X0187513Y0174321D01*
X0187669Y0174282D01*
X0187824Y0174239D01*
X0187978Y0174192D01*
X0188131Y0174141D01*
X0188282Y0174086D01*
X0188432Y0174028D01*
X0188580Y0173966D01*
X0188727Y0173900D01*
X0188872Y0173831D01*
X0189015Y0173758D01*
X0189157Y0173682D01*
X0189296Y0173602D01*
X0189434Y0173519D01*
X0189569Y0173432D01*
X0189703Y0173342D01*
X0189834Y0173249D01*
X0189962Y0173153D01*
X0190088Y0173053D01*
X0190212Y0172950D01*
X0190333Y0172845D01*
X0190452Y0172736D01*
X0190568Y0172625D01*
X0190681Y0172510D01*
X0190791Y0172393D01*
X0190898Y0172273D01*
X0191002Y0172151D01*
X0191103Y0172026D01*
X0191201Y0171898D01*
X0191296Y0171768D01*
X0191388Y0171636D01*
X0191476Y0171502D01*
X0191561Y0171365D01*
X0191643Y0171227D01*
X0191721Y0171086D01*
X0191795Y0170944D01*
X0191866Y0170800D01*
X0191934Y0170654D01*
X0191997Y0170506D01*
X0192058Y0170357D01*
X0192114Y0170206D01*
X0192167Y0170054D01*
X0192216Y0169901D01*
X0192261Y0169747D01*
X0192302Y0169592D01*
X0192340Y0169435D01*
X0192373Y0169278D01*
X0192403Y0169120D01*
X0192429Y0168961D01*
X0192450Y0168802D01*
X0192468Y0168642D01*
X0192482Y0168482D01*
X0192492Y0168321D01*
X0192498Y0168161D01*
X0192500Y0168000D01*
X0192498Y0167839D01*
X0192492Y0167679D01*
X0192482Y0167518D01*
X0192468Y0167358D01*
X0192450Y0167198D01*
X0192429Y0167039D01*
X0192403Y0166880D01*
X0192373Y0166722D01*
X0192340Y0166565D01*
X0192302Y0166408D01*
X0192261Y0166253D01*
X0192216Y0166099D01*
X0192167Y0165946D01*
X0192114Y0165794D01*
X0192058Y0165643D01*
X0191997Y0165494D01*
X0191934Y0165346D01*
X0191866Y0165200D01*
X0191795Y0165056D01*
X0191721Y0164914D01*
X0191643Y0164773D01*
X0191561Y0164635D01*
X0191476Y0164498D01*
X0191388Y0164364D01*
X0191296Y0164232D01*
X0191201Y0164102D01*
X0191103Y0163974D01*
X0191002Y0163849D01*
X0190898Y0163727D01*
X0190791Y0163607D01*
X0190681Y0163490D01*
X0190568Y0163375D01*
X0190452Y0163264D01*
X0190333Y0163155D01*
X0190212Y0163050D01*
X0190088Y0162947D01*
X0189962Y0162847D01*
X0189834Y0162751D01*
X0189703Y0162658D01*
X0189569Y0162568D01*
X0189434Y0162481D01*
X0189296Y0162398D01*
X0189157Y0162318D01*
X0189015Y0162242D01*
X0188872Y0162169D01*
X0188727Y0162100D01*
X0188580Y0162034D01*
X0188432Y0161972D01*
X0188282Y0161914D01*
X0188131Y0161859D01*
X0187978Y0161808D01*
X0187824Y0161761D01*
X0187669Y0161718D01*
X0187513Y0161679D01*
X0187357Y0161643D01*
X0187199Y0161612D01*
X0187041Y0161584D01*
X0186882Y0161560D01*
X0186722Y0161540D01*
X0186562Y0161524D01*
X0186402Y0161512D01*
X0186241Y0161504D01*
X0186080Y0161500D01*
X0185920Y0161500D01*
X0185759Y0161504D01*
X0185598Y0161512D01*
X0185438Y0161524D01*
X0185278Y0161540D01*
X0185118Y0161560D01*
X0184959Y0161584D01*
X0184801Y0161612D01*
X0184643Y0161643D01*
X0184487Y0161679D01*
X0184331Y0161718D01*
X0184176Y0161761D01*
X0184022Y0161808D01*
X0183869Y0161859D01*
X0183718Y0161914D01*
X0183568Y0161972D01*
X0183420Y0162034D01*
X0183273Y0162100D01*
X0183128Y0162169D01*
X0182985Y0162242D01*
X0182843Y0162318D01*
X0182704Y0162398D01*
X0182566Y0162481D01*
X0182431Y0162568D01*
X0182297Y0162658D01*
X0182166Y0162751D01*
X0182038Y0162847D01*
X0181912Y0162947D01*
X0181788Y0163050D01*
X0181667Y0163155D01*
X0181548Y0163264D01*
X0181432Y0163375D01*
X0181319Y0163490D01*
X0181209Y0163607D01*
X0181102Y0163727D01*
X0180998Y0163849D01*
X0180897Y0163974D01*
X0180799Y0164102D01*
X0180704Y0164232D01*
X0180612Y0164364D01*
X0180524Y0164498D01*
X0180439Y0164635D01*
X0180357Y0164773D01*
X0180279Y0164914D01*
X0180205Y0165056D01*
X0180134Y0165200D01*
X0180066Y0165346D01*
X0180003Y0165494D01*
X0179942Y0165643D01*
X0179886Y0165794D01*
X0179833Y0165946D01*
X0179784Y0166099D01*
X0179739Y0166253D01*
X0179698Y0166408D01*
X0179660Y0166565D01*
X0179627Y0166722D01*
X0179597Y0166880D01*
X0179571Y0167039D01*
X0179550Y0167198D01*
X0179532Y0167358D01*
X0179518Y0167518D01*
X0179508Y0167679D01*
X0179502Y0167839D01*
X0179500Y0168000D01*
X0227500Y0179000D02*
X0227502Y0179118D01*
X0227508Y0179236D01*
X0227518Y0179354D01*
X0227532Y0179471D01*
X0227550Y0179588D01*
X0227572Y0179705D01*
X0227597Y0179820D01*
X0227627Y0179934D01*
X0227661Y0180048D01*
X0227698Y0180160D01*
X0227739Y0180271D01*
X0227784Y0180380D01*
X0227832Y0180488D01*
X0227884Y0180594D01*
X0227940Y0180699D01*
X0227999Y0180801D01*
X0228061Y0180901D01*
X0228127Y0180999D01*
X0228196Y0181095D01*
X0228269Y0181189D01*
X0228344Y0181280D01*
X0228423Y0181368D01*
X0228504Y0181454D01*
X0228589Y0181537D01*
X0228676Y0181617D01*
X0228765Y0181694D01*
X0228858Y0181768D01*
X0228952Y0181838D01*
X0229049Y0181906D01*
X0229149Y0181970D01*
X0229250Y0182031D01*
X0229353Y0182088D01*
X0229459Y0182142D01*
X0229566Y0182193D01*
X0229674Y0182239D01*
X0229784Y0182282D01*
X0229896Y0182321D01*
X0230009Y0182357D01*
X0230123Y0182388D01*
X0230238Y0182416D01*
X0230353Y0182440D01*
X0230470Y0182460D01*
X0230587Y0182476D01*
X0230705Y0182488D01*
X0230823Y0182496D01*
X0230941Y0182500D01*
X0231059Y0182500D01*
X0231177Y0182496D01*
X0231295Y0182488D01*
X0231413Y0182476D01*
X0231530Y0182460D01*
X0231647Y0182440D01*
X0231762Y0182416D01*
X0231877Y0182388D01*
X0231991Y0182357D01*
X0232104Y0182321D01*
X0232216Y0182282D01*
X0232326Y0182239D01*
X0232434Y0182193D01*
X0232541Y0182142D01*
X0232647Y0182088D01*
X0232750Y0182031D01*
X0232851Y0181970D01*
X0232951Y0181906D01*
X0233048Y0181838D01*
X0233142Y0181768D01*
X0233235Y0181694D01*
X0233324Y0181617D01*
X0233411Y0181537D01*
X0233496Y0181454D01*
X0233577Y0181368D01*
X0233656Y0181280D01*
X0233731Y0181189D01*
X0233804Y0181095D01*
X0233873Y0180999D01*
X0233939Y0180901D01*
X0234001Y0180801D01*
X0234060Y0180699D01*
X0234116Y0180594D01*
X0234168Y0180488D01*
X0234216Y0180380D01*
X0234261Y0180271D01*
X0234302Y0180160D01*
X0234339Y0180048D01*
X0234373Y0179934D01*
X0234403Y0179820D01*
X0234428Y0179705D01*
X0234450Y0179588D01*
X0234468Y0179471D01*
X0234482Y0179354D01*
X0234492Y0179236D01*
X0234498Y0179118D01*
X0234500Y0179000D01*
X0234498Y0178882D01*
X0234492Y0178764D01*
X0234482Y0178646D01*
X0234468Y0178529D01*
X0234450Y0178412D01*
X0234428Y0178295D01*
X0234403Y0178180D01*
X0234373Y0178066D01*
X0234339Y0177952D01*
X0234302Y0177840D01*
X0234261Y0177729D01*
X0234216Y0177620D01*
X0234168Y0177512D01*
X0234116Y0177406D01*
X0234060Y0177301D01*
X0234001Y0177199D01*
X0233939Y0177099D01*
X0233873Y0177001D01*
X0233804Y0176905D01*
X0233731Y0176811D01*
X0233656Y0176720D01*
X0233577Y0176632D01*
X0233496Y0176546D01*
X0233411Y0176463D01*
X0233324Y0176383D01*
X0233235Y0176306D01*
X0233142Y0176232D01*
X0233048Y0176162D01*
X0232951Y0176094D01*
X0232851Y0176030D01*
X0232750Y0175969D01*
X0232647Y0175912D01*
X0232541Y0175858D01*
X0232434Y0175807D01*
X0232326Y0175761D01*
X0232216Y0175718D01*
X0232104Y0175679D01*
X0231991Y0175643D01*
X0231877Y0175612D01*
X0231762Y0175584D01*
X0231647Y0175560D01*
X0231530Y0175540D01*
X0231413Y0175524D01*
X0231295Y0175512D01*
X0231177Y0175504D01*
X0231059Y0175500D01*
X0230941Y0175500D01*
X0230823Y0175504D01*
X0230705Y0175512D01*
X0230587Y0175524D01*
X0230470Y0175540D01*
X0230353Y0175560D01*
X0230238Y0175584D01*
X0230123Y0175612D01*
X0230009Y0175643D01*
X0229896Y0175679D01*
X0229784Y0175718D01*
X0229674Y0175761D01*
X0229566Y0175807D01*
X0229459Y0175858D01*
X0229353Y0175912D01*
X0229250Y0175969D01*
X0229149Y0176030D01*
X0229049Y0176094D01*
X0228952Y0176162D01*
X0228858Y0176232D01*
X0228765Y0176306D01*
X0228676Y0176383D01*
X0228589Y0176463D01*
X0228504Y0176546D01*
X0228423Y0176632D01*
X0228344Y0176720D01*
X0228269Y0176811D01*
X0228196Y0176905D01*
X0228127Y0177001D01*
X0228061Y0177099D01*
X0227999Y0177199D01*
X0227940Y0177301D01*
X0227884Y0177406D01*
X0227832Y0177512D01*
X0227784Y0177620D01*
X0227739Y0177729D01*
X0227698Y0177840D01*
X0227661Y0177952D01*
X0227627Y0178066D01*
X0227597Y0178180D01*
X0227572Y0178295D01*
X0227550Y0178412D01*
X0227532Y0178529D01*
X0227518Y0178646D01*
X0227508Y0178764D01*
X0227502Y0178882D01*
X0227500Y0179000D01*
X0248150Y0207500D02*
X0248152Y0207619D01*
X0248158Y0207737D01*
X0248168Y0207855D01*
X0248182Y0207973D01*
X0248199Y0208090D01*
X0248221Y0208207D01*
X0248247Y0208323D01*
X0248276Y0208438D01*
X0248309Y0208552D01*
X0248346Y0208664D01*
X0248387Y0208776D01*
X0248432Y0208886D01*
X0248480Y0208994D01*
X0248532Y0209101D01*
X0248587Y0209206D01*
X0248646Y0209309D01*
X0248708Y0209410D01*
X0248773Y0209509D01*
X0248842Y0209606D01*
X0248914Y0209700D01*
X0248989Y0209792D01*
X0249067Y0209881D01*
X0249148Y0209968D01*
X0249232Y0210052D01*
X0249319Y0210133D01*
X0249408Y0210211D01*
X0249500Y0210286D01*
X0249594Y0210358D01*
X0249691Y0210427D01*
X0249790Y0210492D01*
X0249891Y0210554D01*
X0249994Y0210613D01*
X0250099Y0210668D01*
X0250206Y0210720D01*
X0250314Y0210768D01*
X0250424Y0210813D01*
X0250536Y0210854D01*
X0250648Y0210891D01*
X0250762Y0210924D01*
X0250877Y0210953D01*
X0250993Y0210979D01*
X0251110Y0211001D01*
X0251227Y0211018D01*
X0251345Y0211032D01*
X0251463Y0211042D01*
X0251581Y0211048D01*
X0251700Y0211050D01*
X0251819Y0211048D01*
X0251937Y0211042D01*
X0252055Y0211032D01*
X0252173Y0211018D01*
X0252290Y0211001D01*
X0252407Y0210979D01*
X0252523Y0210953D01*
X0252638Y0210924D01*
X0252752Y0210891D01*
X0252864Y0210854D01*
X0252976Y0210813D01*
X0253086Y0210768D01*
X0253194Y0210720D01*
X0253301Y0210668D01*
X0253406Y0210613D01*
X0253509Y0210554D01*
X0253610Y0210492D01*
X0253709Y0210427D01*
X0253806Y0210358D01*
X0253900Y0210286D01*
X0253992Y0210211D01*
X0254081Y0210133D01*
X0254168Y0210052D01*
X0254252Y0209968D01*
X0254333Y0209881D01*
X0254411Y0209792D01*
X0254486Y0209700D01*
X0254558Y0209606D01*
X0254627Y0209509D01*
X0254692Y0209410D01*
X0254754Y0209309D01*
X0254813Y0209206D01*
X0254868Y0209101D01*
X0254920Y0208994D01*
X0254968Y0208886D01*
X0255013Y0208776D01*
X0255054Y0208664D01*
X0255091Y0208552D01*
X0255124Y0208438D01*
X0255153Y0208323D01*
X0255179Y0208207D01*
X0255201Y0208090D01*
X0255218Y0207973D01*
X0255232Y0207855D01*
X0255242Y0207737D01*
X0255248Y0207619D01*
X0255250Y0207500D01*
X0255248Y0207381D01*
X0255242Y0207263D01*
X0255232Y0207145D01*
X0255218Y0207027D01*
X0255201Y0206910D01*
X0255179Y0206793D01*
X0255153Y0206677D01*
X0255124Y0206562D01*
X0255091Y0206448D01*
X0255054Y0206336D01*
X0255013Y0206224D01*
X0254968Y0206114D01*
X0254920Y0206006D01*
X0254868Y0205899D01*
X0254813Y0205794D01*
X0254754Y0205691D01*
X0254692Y0205590D01*
X0254627Y0205491D01*
X0254558Y0205394D01*
X0254486Y0205300D01*
X0254411Y0205208D01*
X0254333Y0205119D01*
X0254252Y0205032D01*
X0254168Y0204948D01*
X0254081Y0204867D01*
X0253992Y0204789D01*
X0253900Y0204714D01*
X0253806Y0204642D01*
X0253709Y0204573D01*
X0253610Y0204508D01*
X0253509Y0204446D01*
X0253406Y0204387D01*
X0253301Y0204332D01*
X0253194Y0204280D01*
X0253086Y0204232D01*
X0252976Y0204187D01*
X0252864Y0204146D01*
X0252752Y0204109D01*
X0252638Y0204076D01*
X0252523Y0204047D01*
X0252407Y0204021D01*
X0252290Y0203999D01*
X0252173Y0203982D01*
X0252055Y0203968D01*
X0251937Y0203958D01*
X0251819Y0203952D01*
X0251700Y0203950D01*
X0251581Y0203952D01*
X0251463Y0203958D01*
X0251345Y0203968D01*
X0251227Y0203982D01*
X0251110Y0203999D01*
X0250993Y0204021D01*
X0250877Y0204047D01*
X0250762Y0204076D01*
X0250648Y0204109D01*
X0250536Y0204146D01*
X0250424Y0204187D01*
X0250314Y0204232D01*
X0250206Y0204280D01*
X0250099Y0204332D01*
X0249994Y0204387D01*
X0249891Y0204446D01*
X0249790Y0204508D01*
X0249691Y0204573D01*
X0249594Y0204642D01*
X0249500Y0204714D01*
X0249408Y0204789D01*
X0249319Y0204867D01*
X0249232Y0204948D01*
X0249148Y0205032D01*
X0249067Y0205119D01*
X0248989Y0205208D01*
X0248914Y0205300D01*
X0248842Y0205394D01*
X0248773Y0205491D01*
X0248708Y0205590D01*
X0248646Y0205691D01*
X0248587Y0205794D01*
X0248532Y0205899D01*
X0248480Y0206006D01*
X0248432Y0206114D01*
X0248387Y0206224D01*
X0248346Y0206336D01*
X0248309Y0206448D01*
X0248276Y0206562D01*
X0248247Y0206677D01*
X0248221Y0206793D01*
X0248199Y0206910D01*
X0248182Y0207027D01*
X0248168Y0207145D01*
X0248158Y0207263D01*
X0248152Y0207381D01*
X0248150Y0207500D01*
X0248150Y0242900D02*
X0248152Y0243019D01*
X0248158Y0243137D01*
X0248168Y0243255D01*
X0248182Y0243373D01*
X0248199Y0243490D01*
X0248221Y0243607D01*
X0248247Y0243723D01*
X0248276Y0243838D01*
X0248309Y0243952D01*
X0248346Y0244064D01*
X0248387Y0244176D01*
X0248432Y0244286D01*
X0248480Y0244394D01*
X0248532Y0244501D01*
X0248587Y0244606D01*
X0248646Y0244709D01*
X0248708Y0244810D01*
X0248773Y0244909D01*
X0248842Y0245006D01*
X0248914Y0245100D01*
X0248989Y0245192D01*
X0249067Y0245281D01*
X0249148Y0245368D01*
X0249232Y0245452D01*
X0249319Y0245533D01*
X0249408Y0245611D01*
X0249500Y0245686D01*
X0249594Y0245758D01*
X0249691Y0245827D01*
X0249790Y0245892D01*
X0249891Y0245954D01*
X0249994Y0246013D01*
X0250099Y0246068D01*
X0250206Y0246120D01*
X0250314Y0246168D01*
X0250424Y0246213D01*
X0250536Y0246254D01*
X0250648Y0246291D01*
X0250762Y0246324D01*
X0250877Y0246353D01*
X0250993Y0246379D01*
X0251110Y0246401D01*
X0251227Y0246418D01*
X0251345Y0246432D01*
X0251463Y0246442D01*
X0251581Y0246448D01*
X0251700Y0246450D01*
X0251819Y0246448D01*
X0251937Y0246442D01*
X0252055Y0246432D01*
X0252173Y0246418D01*
X0252290Y0246401D01*
X0252407Y0246379D01*
X0252523Y0246353D01*
X0252638Y0246324D01*
X0252752Y0246291D01*
X0252864Y0246254D01*
X0252976Y0246213D01*
X0253086Y0246168D01*
X0253194Y0246120D01*
X0253301Y0246068D01*
X0253406Y0246013D01*
X0253509Y0245954D01*
X0253610Y0245892D01*
X0253709Y0245827D01*
X0253806Y0245758D01*
X0253900Y0245686D01*
X0253992Y0245611D01*
X0254081Y0245533D01*
X0254168Y0245452D01*
X0254252Y0245368D01*
X0254333Y0245281D01*
X0254411Y0245192D01*
X0254486Y0245100D01*
X0254558Y0245006D01*
X0254627Y0244909D01*
X0254692Y0244810D01*
X0254754Y0244709D01*
X0254813Y0244606D01*
X0254868Y0244501D01*
X0254920Y0244394D01*
X0254968Y0244286D01*
X0255013Y0244176D01*
X0255054Y0244064D01*
X0255091Y0243952D01*
X0255124Y0243838D01*
X0255153Y0243723D01*
X0255179Y0243607D01*
X0255201Y0243490D01*
X0255218Y0243373D01*
X0255232Y0243255D01*
X0255242Y0243137D01*
X0255248Y0243019D01*
X0255250Y0242900D01*
X0255248Y0242781D01*
X0255242Y0242663D01*
X0255232Y0242545D01*
X0255218Y0242427D01*
X0255201Y0242310D01*
X0255179Y0242193D01*
X0255153Y0242077D01*
X0255124Y0241962D01*
X0255091Y0241848D01*
X0255054Y0241736D01*
X0255013Y0241624D01*
X0254968Y0241514D01*
X0254920Y0241406D01*
X0254868Y0241299D01*
X0254813Y0241194D01*
X0254754Y0241091D01*
X0254692Y0240990D01*
X0254627Y0240891D01*
X0254558Y0240794D01*
X0254486Y0240700D01*
X0254411Y0240608D01*
X0254333Y0240519D01*
X0254252Y0240432D01*
X0254168Y0240348D01*
X0254081Y0240267D01*
X0253992Y0240189D01*
X0253900Y0240114D01*
X0253806Y0240042D01*
X0253709Y0239973D01*
X0253610Y0239908D01*
X0253509Y0239846D01*
X0253406Y0239787D01*
X0253301Y0239732D01*
X0253194Y0239680D01*
X0253086Y0239632D01*
X0252976Y0239587D01*
X0252864Y0239546D01*
X0252752Y0239509D01*
X0252638Y0239476D01*
X0252523Y0239447D01*
X0252407Y0239421D01*
X0252290Y0239399D01*
X0252173Y0239382D01*
X0252055Y0239368D01*
X0251937Y0239358D01*
X0251819Y0239352D01*
X0251700Y0239350D01*
X0251581Y0239352D01*
X0251463Y0239358D01*
X0251345Y0239368D01*
X0251227Y0239382D01*
X0251110Y0239399D01*
X0250993Y0239421D01*
X0250877Y0239447D01*
X0250762Y0239476D01*
X0250648Y0239509D01*
X0250536Y0239546D01*
X0250424Y0239587D01*
X0250314Y0239632D01*
X0250206Y0239680D01*
X0250099Y0239732D01*
X0249994Y0239787D01*
X0249891Y0239846D01*
X0249790Y0239908D01*
X0249691Y0239973D01*
X0249594Y0240042D01*
X0249500Y0240114D01*
X0249408Y0240189D01*
X0249319Y0240267D01*
X0249232Y0240348D01*
X0249148Y0240432D01*
X0249067Y0240519D01*
X0248989Y0240608D01*
X0248914Y0240700D01*
X0248842Y0240794D01*
X0248773Y0240891D01*
X0248708Y0240990D01*
X0248646Y0241091D01*
X0248587Y0241194D01*
X0248532Y0241299D01*
X0248480Y0241406D01*
X0248432Y0241514D01*
X0248387Y0241624D01*
X0248346Y0241736D01*
X0248309Y0241848D01*
X0248276Y0241962D01*
X0248247Y0242077D01*
X0248221Y0242193D01*
X0248199Y0242310D01*
X0248182Y0242427D01*
X0248168Y0242545D01*
X0248158Y0242663D01*
X0248152Y0242781D01*
X0248150Y0242900D01*
X0287500Y0179000D02*
X0287502Y0179118D01*
X0287508Y0179236D01*
X0287518Y0179354D01*
X0287532Y0179471D01*
X0287550Y0179588D01*
X0287572Y0179705D01*
X0287597Y0179820D01*
X0287627Y0179934D01*
X0287661Y0180048D01*
X0287698Y0180160D01*
X0287739Y0180271D01*
X0287784Y0180380D01*
X0287832Y0180488D01*
X0287884Y0180594D01*
X0287940Y0180699D01*
X0287999Y0180801D01*
X0288061Y0180901D01*
X0288127Y0180999D01*
X0288196Y0181095D01*
X0288269Y0181189D01*
X0288344Y0181280D01*
X0288423Y0181368D01*
X0288504Y0181454D01*
X0288589Y0181537D01*
X0288676Y0181617D01*
X0288765Y0181694D01*
X0288858Y0181768D01*
X0288952Y0181838D01*
X0289049Y0181906D01*
X0289149Y0181970D01*
X0289250Y0182031D01*
X0289353Y0182088D01*
X0289459Y0182142D01*
X0289566Y0182193D01*
X0289674Y0182239D01*
X0289784Y0182282D01*
X0289896Y0182321D01*
X0290009Y0182357D01*
X0290123Y0182388D01*
X0290238Y0182416D01*
X0290353Y0182440D01*
X0290470Y0182460D01*
X0290587Y0182476D01*
X0290705Y0182488D01*
X0290823Y0182496D01*
X0290941Y0182500D01*
X0291059Y0182500D01*
X0291177Y0182496D01*
X0291295Y0182488D01*
X0291413Y0182476D01*
X0291530Y0182460D01*
X0291647Y0182440D01*
X0291762Y0182416D01*
X0291877Y0182388D01*
X0291991Y0182357D01*
X0292104Y0182321D01*
X0292216Y0182282D01*
X0292326Y0182239D01*
X0292434Y0182193D01*
X0292541Y0182142D01*
X0292647Y0182088D01*
X0292750Y0182031D01*
X0292851Y0181970D01*
X0292951Y0181906D01*
X0293048Y0181838D01*
X0293142Y0181768D01*
X0293235Y0181694D01*
X0293324Y0181617D01*
X0293411Y0181537D01*
X0293496Y0181454D01*
X0293577Y0181368D01*
X0293656Y0181280D01*
X0293731Y0181189D01*
X0293804Y0181095D01*
X0293873Y0180999D01*
X0293939Y0180901D01*
X0294001Y0180801D01*
X0294060Y0180699D01*
X0294116Y0180594D01*
X0294168Y0180488D01*
X0294216Y0180380D01*
X0294261Y0180271D01*
X0294302Y0180160D01*
X0294339Y0180048D01*
X0294373Y0179934D01*
X0294403Y0179820D01*
X0294428Y0179705D01*
X0294450Y0179588D01*
X0294468Y0179471D01*
X0294482Y0179354D01*
X0294492Y0179236D01*
X0294498Y0179118D01*
X0294500Y0179000D01*
X0294498Y0178882D01*
X0294492Y0178764D01*
X0294482Y0178646D01*
X0294468Y0178529D01*
X0294450Y0178412D01*
X0294428Y0178295D01*
X0294403Y0178180D01*
X0294373Y0178066D01*
X0294339Y0177952D01*
X0294302Y0177840D01*
X0294261Y0177729D01*
X0294216Y0177620D01*
X0294168Y0177512D01*
X0294116Y0177406D01*
X0294060Y0177301D01*
X0294001Y0177199D01*
X0293939Y0177099D01*
X0293873Y0177001D01*
X0293804Y0176905D01*
X0293731Y0176811D01*
X0293656Y0176720D01*
X0293577Y0176632D01*
X0293496Y0176546D01*
X0293411Y0176463D01*
X0293324Y0176383D01*
X0293235Y0176306D01*
X0293142Y0176232D01*
X0293048Y0176162D01*
X0292951Y0176094D01*
X0292851Y0176030D01*
X0292750Y0175969D01*
X0292647Y0175912D01*
X0292541Y0175858D01*
X0292434Y0175807D01*
X0292326Y0175761D01*
X0292216Y0175718D01*
X0292104Y0175679D01*
X0291991Y0175643D01*
X0291877Y0175612D01*
X0291762Y0175584D01*
X0291647Y0175560D01*
X0291530Y0175540D01*
X0291413Y0175524D01*
X0291295Y0175512D01*
X0291177Y0175504D01*
X0291059Y0175500D01*
X0290941Y0175500D01*
X0290823Y0175504D01*
X0290705Y0175512D01*
X0290587Y0175524D01*
X0290470Y0175540D01*
X0290353Y0175560D01*
X0290238Y0175584D01*
X0290123Y0175612D01*
X0290009Y0175643D01*
X0289896Y0175679D01*
X0289784Y0175718D01*
X0289674Y0175761D01*
X0289566Y0175807D01*
X0289459Y0175858D01*
X0289353Y0175912D01*
X0289250Y0175969D01*
X0289149Y0176030D01*
X0289049Y0176094D01*
X0288952Y0176162D01*
X0288858Y0176232D01*
X0288765Y0176306D01*
X0288676Y0176383D01*
X0288589Y0176463D01*
X0288504Y0176546D01*
X0288423Y0176632D01*
X0288344Y0176720D01*
X0288269Y0176811D01*
X0288196Y0176905D01*
X0288127Y0177001D01*
X0288061Y0177099D01*
X0287999Y0177199D01*
X0287940Y0177301D01*
X0287884Y0177406D01*
X0287832Y0177512D01*
X0287784Y0177620D01*
X0287739Y0177729D01*
X0287698Y0177840D01*
X0287661Y0177952D01*
X0287627Y0178066D01*
X0287597Y0178180D01*
X0287572Y0178295D01*
X0287550Y0178412D01*
X0287532Y0178529D01*
X0287518Y0178646D01*
X0287508Y0178764D01*
X0287502Y0178882D01*
X0287500Y0179000D01*
X0314201Y0333700D02*
X0314203Y0333858D01*
X0314209Y0334016D01*
X0314219Y0334174D01*
X0314233Y0334332D01*
X0314251Y0334489D01*
X0314272Y0334646D01*
X0314298Y0334802D01*
X0314328Y0334958D01*
X0314361Y0335113D01*
X0314399Y0335266D01*
X0314440Y0335419D01*
X0314485Y0335571D01*
X0314534Y0335722D01*
X0314587Y0335871D01*
X0314643Y0336019D01*
X0314703Y0336165D01*
X0314767Y0336310D01*
X0314835Y0336453D01*
X0314906Y0336595D01*
X0314980Y0336735D01*
X0315058Y0336872D01*
X0315140Y0337008D01*
X0315224Y0337142D01*
X0315313Y0337273D01*
X0315404Y0337402D01*
X0315499Y0337529D01*
X0315596Y0337654D01*
X0315697Y0337776D01*
X0315801Y0337895D01*
X0315908Y0338012D01*
X0316018Y0338126D01*
X0316131Y0338237D01*
X0316246Y0338346D01*
X0316364Y0338451D01*
X0316485Y0338553D01*
X0316608Y0338653D01*
X0316734Y0338749D01*
X0316862Y0338842D01*
X0316992Y0338932D01*
X0317125Y0339018D01*
X0317260Y0339102D01*
X0317396Y0339181D01*
X0317535Y0339258D01*
X0317676Y0339330D01*
X0317818Y0339400D01*
X0317962Y0339465D01*
X0318108Y0339527D01*
X0318255Y0339585D01*
X0318404Y0339640D01*
X0318554Y0339691D01*
X0318705Y0339738D01*
X0318857Y0339781D01*
X0319010Y0339820D01*
X0319165Y0339856D01*
X0319320Y0339887D01*
X0319476Y0339915D01*
X0319632Y0339939D01*
X0319789Y0339959D01*
X0319947Y0339975D01*
X0320104Y0339987D01*
X0320263Y0339995D01*
X0320421Y0339999D01*
X0320579Y0339999D01*
X0320737Y0339995D01*
X0320896Y0339987D01*
X0321053Y0339975D01*
X0321211Y0339959D01*
X0321368Y0339939D01*
X0321524Y0339915D01*
X0321680Y0339887D01*
X0321835Y0339856D01*
X0321990Y0339820D01*
X0322143Y0339781D01*
X0322295Y0339738D01*
X0322446Y0339691D01*
X0322596Y0339640D01*
X0322745Y0339585D01*
X0322892Y0339527D01*
X0323038Y0339465D01*
X0323182Y0339400D01*
X0323324Y0339330D01*
X0323465Y0339258D01*
X0323604Y0339181D01*
X0323740Y0339102D01*
X0323875Y0339018D01*
X0324008Y0338932D01*
X0324138Y0338842D01*
X0324266Y0338749D01*
X0324392Y0338653D01*
X0324515Y0338553D01*
X0324636Y0338451D01*
X0324754Y0338346D01*
X0324869Y0338237D01*
X0324982Y0338126D01*
X0325092Y0338012D01*
X0325199Y0337895D01*
X0325303Y0337776D01*
X0325404Y0337654D01*
X0325501Y0337529D01*
X0325596Y0337402D01*
X0325687Y0337273D01*
X0325776Y0337142D01*
X0325860Y0337008D01*
X0325942Y0336872D01*
X0326020Y0336735D01*
X0326094Y0336595D01*
X0326165Y0336453D01*
X0326233Y0336310D01*
X0326297Y0336165D01*
X0326357Y0336019D01*
X0326413Y0335871D01*
X0326466Y0335722D01*
X0326515Y0335571D01*
X0326560Y0335419D01*
X0326601Y0335266D01*
X0326639Y0335113D01*
X0326672Y0334958D01*
X0326702Y0334802D01*
X0326728Y0334646D01*
X0326749Y0334489D01*
X0326767Y0334332D01*
X0326781Y0334174D01*
X0326791Y0334016D01*
X0326797Y0333858D01*
X0326799Y0333700D01*
X0326797Y0333542D01*
X0326791Y0333384D01*
X0326781Y0333226D01*
X0326767Y0333068D01*
X0326749Y0332911D01*
X0326728Y0332754D01*
X0326702Y0332598D01*
X0326672Y0332442D01*
X0326639Y0332287D01*
X0326601Y0332134D01*
X0326560Y0331981D01*
X0326515Y0331829D01*
X0326466Y0331678D01*
X0326413Y0331529D01*
X0326357Y0331381D01*
X0326297Y0331235D01*
X0326233Y0331090D01*
X0326165Y0330947D01*
X0326094Y0330805D01*
X0326020Y0330665D01*
X0325942Y0330528D01*
X0325860Y0330392D01*
X0325776Y0330258D01*
X0325687Y0330127D01*
X0325596Y0329998D01*
X0325501Y0329871D01*
X0325404Y0329746D01*
X0325303Y0329624D01*
X0325199Y0329505D01*
X0325092Y0329388D01*
X0324982Y0329274D01*
X0324869Y0329163D01*
X0324754Y0329054D01*
X0324636Y0328949D01*
X0324515Y0328847D01*
X0324392Y0328747D01*
X0324266Y0328651D01*
X0324138Y0328558D01*
X0324008Y0328468D01*
X0323875Y0328382D01*
X0323740Y0328298D01*
X0323604Y0328219D01*
X0323465Y0328142D01*
X0323324Y0328070D01*
X0323182Y0328000D01*
X0323038Y0327935D01*
X0322892Y0327873D01*
X0322745Y0327815D01*
X0322596Y0327760D01*
X0322446Y0327709D01*
X0322295Y0327662D01*
X0322143Y0327619D01*
X0321990Y0327580D01*
X0321835Y0327544D01*
X0321680Y0327513D01*
X0321524Y0327485D01*
X0321368Y0327461D01*
X0321211Y0327441D01*
X0321053Y0327425D01*
X0320896Y0327413D01*
X0320737Y0327405D01*
X0320579Y0327401D01*
X0320421Y0327401D01*
X0320263Y0327405D01*
X0320104Y0327413D01*
X0319947Y0327425D01*
X0319789Y0327441D01*
X0319632Y0327461D01*
X0319476Y0327485D01*
X0319320Y0327513D01*
X0319165Y0327544D01*
X0319010Y0327580D01*
X0318857Y0327619D01*
X0318705Y0327662D01*
X0318554Y0327709D01*
X0318404Y0327760D01*
X0318255Y0327815D01*
X0318108Y0327873D01*
X0317962Y0327935D01*
X0317818Y0328000D01*
X0317676Y0328070D01*
X0317535Y0328142D01*
X0317396Y0328219D01*
X0317260Y0328298D01*
X0317125Y0328382D01*
X0316992Y0328468D01*
X0316862Y0328558D01*
X0316734Y0328651D01*
X0316608Y0328747D01*
X0316485Y0328847D01*
X0316364Y0328949D01*
X0316246Y0329054D01*
X0316131Y0329163D01*
X0316018Y0329274D01*
X0315908Y0329388D01*
X0315801Y0329505D01*
X0315697Y0329624D01*
X0315596Y0329746D01*
X0315499Y0329871D01*
X0315404Y0329998D01*
X0315313Y0330127D01*
X0315224Y0330258D01*
X0315140Y0330392D01*
X0315058Y0330528D01*
X0314980Y0330665D01*
X0314906Y0330805D01*
X0314835Y0330947D01*
X0314767Y0331090D01*
X0314703Y0331235D01*
X0314643Y0331381D01*
X0314587Y0331529D01*
X0314534Y0331678D01*
X0314485Y0331829D01*
X0314440Y0331981D01*
X0314399Y0332134D01*
X0314361Y0332287D01*
X0314328Y0332442D01*
X0314298Y0332598D01*
X0314272Y0332754D01*
X0314251Y0332911D01*
X0314233Y0333068D01*
X0314219Y0333226D01*
X0314209Y0333384D01*
X0314203Y0333542D01*
X0314201Y0333700D01*
X0030500Y0244000D02*
X0030502Y0244148D01*
X0030508Y0244296D01*
X0030518Y0244444D01*
X0030532Y0244592D01*
X0030550Y0244739D01*
X0030572Y0244886D01*
X0030598Y0245032D01*
X0030627Y0245177D01*
X0030661Y0245322D01*
X0030699Y0245465D01*
X0030740Y0245608D01*
X0030785Y0245749D01*
X0030835Y0245889D01*
X0030887Y0246027D01*
X0030944Y0246165D01*
X0031004Y0246300D01*
X0031068Y0246434D01*
X0031135Y0246566D01*
X0031206Y0246696D01*
X0031281Y0246825D01*
X0031359Y0246951D01*
X0031440Y0247075D01*
X0031524Y0247197D01*
X0031612Y0247316D01*
X0031703Y0247433D01*
X0031797Y0247548D01*
X0031895Y0247660D01*
X0031995Y0247769D01*
X0032098Y0247876D01*
X0032204Y0247980D01*
X0032312Y0248081D01*
X0032424Y0248179D01*
X0032538Y0248274D01*
X0032654Y0248365D01*
X0032773Y0248454D01*
X0032894Y0248539D01*
X0033018Y0248621D01*
X0033144Y0248700D01*
X0033271Y0248775D01*
X0033401Y0248847D01*
X0033533Y0248916D01*
X0033666Y0248980D01*
X0033801Y0249041D01*
X0033938Y0249099D01*
X0034076Y0249153D01*
X0034216Y0249203D01*
X0034357Y0249249D01*
X0034499Y0249291D01*
X0034642Y0249330D01*
X0034786Y0249364D01*
X0034932Y0249395D01*
X0035077Y0249422D01*
X0035224Y0249445D01*
X0035371Y0249464D01*
X0035519Y0249479D01*
X0035666Y0249490D01*
X0035815Y0249497D01*
X0035963Y0249500D01*
X0036111Y0249499D01*
X0036259Y0249494D01*
X0036407Y0249485D01*
X0036555Y0249472D01*
X0036703Y0249455D01*
X0036849Y0249434D01*
X0036996Y0249409D01*
X0037141Y0249380D01*
X0037286Y0249348D01*
X0037429Y0249311D01*
X0037572Y0249271D01*
X0037714Y0249226D01*
X0037854Y0249178D01*
X0037993Y0249126D01*
X0038130Y0249071D01*
X0038266Y0249011D01*
X0038401Y0248948D01*
X0038533Y0248882D01*
X0038664Y0248812D01*
X0038793Y0248738D01*
X0038919Y0248661D01*
X0039044Y0248581D01*
X0039166Y0248497D01*
X0039287Y0248410D01*
X0039404Y0248320D01*
X0039520Y0248226D01*
X0039632Y0248130D01*
X0039742Y0248031D01*
X0039850Y0247928D01*
X0039954Y0247823D01*
X0040056Y0247715D01*
X0040154Y0247604D01*
X0040250Y0247491D01*
X0040343Y0247375D01*
X0040432Y0247257D01*
X0040518Y0247136D01*
X0040601Y0247013D01*
X0040681Y0246888D01*
X0040757Y0246761D01*
X0040830Y0246631D01*
X0040899Y0246500D01*
X0040964Y0246367D01*
X0041027Y0246233D01*
X0041085Y0246096D01*
X0041140Y0245958D01*
X0041190Y0245819D01*
X0041238Y0245678D01*
X0041281Y0245537D01*
X0041321Y0245394D01*
X0041356Y0245250D01*
X0041388Y0245105D01*
X0041416Y0244959D01*
X0041440Y0244813D01*
X0041460Y0244666D01*
X0041476Y0244518D01*
X0041488Y0244371D01*
X0041496Y0244222D01*
X0041500Y0244074D01*
X0041500Y0243926D01*
X0041496Y0243778D01*
X0041488Y0243629D01*
X0041476Y0243482D01*
X0041460Y0243334D01*
X0041440Y0243187D01*
X0041416Y0243041D01*
X0041388Y0242895D01*
X0041356Y0242750D01*
X0041321Y0242606D01*
X0041281Y0242463D01*
X0041238Y0242322D01*
X0041190Y0242181D01*
X0041140Y0242042D01*
X0041085Y0241904D01*
X0041027Y0241767D01*
X0040964Y0241633D01*
X0040899Y0241500D01*
X0040830Y0241369D01*
X0040757Y0241239D01*
X0040681Y0241112D01*
X0040601Y0240987D01*
X0040518Y0240864D01*
X0040432Y0240743D01*
X0040343Y0240625D01*
X0040250Y0240509D01*
X0040154Y0240396D01*
X0040056Y0240285D01*
X0039954Y0240177D01*
X0039850Y0240072D01*
X0039742Y0239969D01*
X0039632Y0239870D01*
X0039520Y0239774D01*
X0039404Y0239680D01*
X0039287Y0239590D01*
X0039166Y0239503D01*
X0039044Y0239419D01*
X0038919Y0239339D01*
X0038793Y0239262D01*
X0038664Y0239188D01*
X0038533Y0239118D01*
X0038401Y0239052D01*
X0038266Y0238989D01*
X0038130Y0238929D01*
X0037993Y0238874D01*
X0037854Y0238822D01*
X0037714Y0238774D01*
X0037572Y0238729D01*
X0037429Y0238689D01*
X0037286Y0238652D01*
X0037141Y0238620D01*
X0036996Y0238591D01*
X0036849Y0238566D01*
X0036703Y0238545D01*
X0036555Y0238528D01*
X0036407Y0238515D01*
X0036259Y0238506D01*
X0036111Y0238501D01*
X0035963Y0238500D01*
X0035815Y0238503D01*
X0035666Y0238510D01*
X0035519Y0238521D01*
X0035371Y0238536D01*
X0035224Y0238555D01*
X0035077Y0238578D01*
X0034932Y0238605D01*
X0034786Y0238636D01*
X0034642Y0238670D01*
X0034499Y0238709D01*
X0034357Y0238751D01*
X0034216Y0238797D01*
X0034076Y0238847D01*
X0033938Y0238901D01*
X0033801Y0238959D01*
X0033666Y0239020D01*
X0033533Y0239084D01*
X0033401Y0239153D01*
X0033271Y0239225D01*
X0033144Y0239300D01*
X0033018Y0239379D01*
X0032894Y0239461D01*
X0032773Y0239546D01*
X0032654Y0239635D01*
X0032538Y0239726D01*
X0032424Y0239821D01*
X0032312Y0239919D01*
X0032204Y0240020D01*
X0032098Y0240124D01*
X0031995Y0240231D01*
X0031895Y0240340D01*
X0031797Y0240452D01*
X0031703Y0240567D01*
X0031612Y0240684D01*
X0031524Y0240803D01*
X0031440Y0240925D01*
X0031359Y0241049D01*
X0031281Y0241175D01*
X0031206Y0241304D01*
X0031135Y0241434D01*
X0031068Y0241566D01*
X0031004Y0241700D01*
X0030944Y0241835D01*
X0030887Y0241973D01*
X0030835Y0242111D01*
X0030785Y0242251D01*
X0030740Y0242392D01*
X0030699Y0242535D01*
X0030661Y0242678D01*
X0030627Y0242823D01*
X0030598Y0242968D01*
X0030572Y0243114D01*
X0030550Y0243261D01*
X0030532Y0243408D01*
X0030518Y0243556D01*
X0030508Y0243704D01*
X0030502Y0243852D01*
X0030500Y0244000D01*
X0004701Y0334000D02*
X0004703Y0334158D01*
X0004709Y0334316D01*
X0004719Y0334474D01*
X0004733Y0334632D01*
X0004751Y0334789D01*
X0004772Y0334946D01*
X0004798Y0335102D01*
X0004828Y0335258D01*
X0004861Y0335413D01*
X0004899Y0335566D01*
X0004940Y0335719D01*
X0004985Y0335871D01*
X0005034Y0336022D01*
X0005087Y0336171D01*
X0005143Y0336319D01*
X0005203Y0336465D01*
X0005267Y0336610D01*
X0005335Y0336753D01*
X0005406Y0336895D01*
X0005480Y0337035D01*
X0005558Y0337172D01*
X0005640Y0337308D01*
X0005724Y0337442D01*
X0005813Y0337573D01*
X0005904Y0337702D01*
X0005999Y0337829D01*
X0006096Y0337954D01*
X0006197Y0338076D01*
X0006301Y0338195D01*
X0006408Y0338312D01*
X0006518Y0338426D01*
X0006631Y0338537D01*
X0006746Y0338646D01*
X0006864Y0338751D01*
X0006985Y0338853D01*
X0007108Y0338953D01*
X0007234Y0339049D01*
X0007362Y0339142D01*
X0007492Y0339232D01*
X0007625Y0339318D01*
X0007760Y0339402D01*
X0007896Y0339481D01*
X0008035Y0339558D01*
X0008176Y0339630D01*
X0008318Y0339700D01*
X0008462Y0339765D01*
X0008608Y0339827D01*
X0008755Y0339885D01*
X0008904Y0339940D01*
X0009054Y0339991D01*
X0009205Y0340038D01*
X0009357Y0340081D01*
X0009510Y0340120D01*
X0009665Y0340156D01*
X0009820Y0340187D01*
X0009976Y0340215D01*
X0010132Y0340239D01*
X0010289Y0340259D01*
X0010447Y0340275D01*
X0010604Y0340287D01*
X0010763Y0340295D01*
X0010921Y0340299D01*
X0011079Y0340299D01*
X0011237Y0340295D01*
X0011396Y0340287D01*
X0011553Y0340275D01*
X0011711Y0340259D01*
X0011868Y0340239D01*
X0012024Y0340215D01*
X0012180Y0340187D01*
X0012335Y0340156D01*
X0012490Y0340120D01*
X0012643Y0340081D01*
X0012795Y0340038D01*
X0012946Y0339991D01*
X0013096Y0339940D01*
X0013245Y0339885D01*
X0013392Y0339827D01*
X0013538Y0339765D01*
X0013682Y0339700D01*
X0013824Y0339630D01*
X0013965Y0339558D01*
X0014104Y0339481D01*
X0014240Y0339402D01*
X0014375Y0339318D01*
X0014508Y0339232D01*
X0014638Y0339142D01*
X0014766Y0339049D01*
X0014892Y0338953D01*
X0015015Y0338853D01*
X0015136Y0338751D01*
X0015254Y0338646D01*
X0015369Y0338537D01*
X0015482Y0338426D01*
X0015592Y0338312D01*
X0015699Y0338195D01*
X0015803Y0338076D01*
X0015904Y0337954D01*
X0016001Y0337829D01*
X0016096Y0337702D01*
X0016187Y0337573D01*
X0016276Y0337442D01*
X0016360Y0337308D01*
X0016442Y0337172D01*
X0016520Y0337035D01*
X0016594Y0336895D01*
X0016665Y0336753D01*
X0016733Y0336610D01*
X0016797Y0336465D01*
X0016857Y0336319D01*
X0016913Y0336171D01*
X0016966Y0336022D01*
X0017015Y0335871D01*
X0017060Y0335719D01*
X0017101Y0335566D01*
X0017139Y0335413D01*
X0017172Y0335258D01*
X0017202Y0335102D01*
X0017228Y0334946D01*
X0017249Y0334789D01*
X0017267Y0334632D01*
X0017281Y0334474D01*
X0017291Y0334316D01*
X0017297Y0334158D01*
X0017299Y0334000D01*
X0017297Y0333842D01*
X0017291Y0333684D01*
X0017281Y0333526D01*
X0017267Y0333368D01*
X0017249Y0333211D01*
X0017228Y0333054D01*
X0017202Y0332898D01*
X0017172Y0332742D01*
X0017139Y0332587D01*
X0017101Y0332434D01*
X0017060Y0332281D01*
X0017015Y0332129D01*
X0016966Y0331978D01*
X0016913Y0331829D01*
X0016857Y0331681D01*
X0016797Y0331535D01*
X0016733Y0331390D01*
X0016665Y0331247D01*
X0016594Y0331105D01*
X0016520Y0330965D01*
X0016442Y0330828D01*
X0016360Y0330692D01*
X0016276Y0330558D01*
X0016187Y0330427D01*
X0016096Y0330298D01*
X0016001Y0330171D01*
X0015904Y0330046D01*
X0015803Y0329924D01*
X0015699Y0329805D01*
X0015592Y0329688D01*
X0015482Y0329574D01*
X0015369Y0329463D01*
X0015254Y0329354D01*
X0015136Y0329249D01*
X0015015Y0329147D01*
X0014892Y0329047D01*
X0014766Y0328951D01*
X0014638Y0328858D01*
X0014508Y0328768D01*
X0014375Y0328682D01*
X0014240Y0328598D01*
X0014104Y0328519D01*
X0013965Y0328442D01*
X0013824Y0328370D01*
X0013682Y0328300D01*
X0013538Y0328235D01*
X0013392Y0328173D01*
X0013245Y0328115D01*
X0013096Y0328060D01*
X0012946Y0328009D01*
X0012795Y0327962D01*
X0012643Y0327919D01*
X0012490Y0327880D01*
X0012335Y0327844D01*
X0012180Y0327813D01*
X0012024Y0327785D01*
X0011868Y0327761D01*
X0011711Y0327741D01*
X0011553Y0327725D01*
X0011396Y0327713D01*
X0011237Y0327705D01*
X0011079Y0327701D01*
X0010921Y0327701D01*
X0010763Y0327705D01*
X0010604Y0327713D01*
X0010447Y0327725D01*
X0010289Y0327741D01*
X0010132Y0327761D01*
X0009976Y0327785D01*
X0009820Y0327813D01*
X0009665Y0327844D01*
X0009510Y0327880D01*
X0009357Y0327919D01*
X0009205Y0327962D01*
X0009054Y0328009D01*
X0008904Y0328060D01*
X0008755Y0328115D01*
X0008608Y0328173D01*
X0008462Y0328235D01*
X0008318Y0328300D01*
X0008176Y0328370D01*
X0008035Y0328442D01*
X0007896Y0328519D01*
X0007760Y0328598D01*
X0007625Y0328682D01*
X0007492Y0328768D01*
X0007362Y0328858D01*
X0007234Y0328951D01*
X0007108Y0329047D01*
X0006985Y0329147D01*
X0006864Y0329249D01*
X0006746Y0329354D01*
X0006631Y0329463D01*
X0006518Y0329574D01*
X0006408Y0329688D01*
X0006301Y0329805D01*
X0006197Y0329924D01*
X0006096Y0330046D01*
X0005999Y0330171D01*
X0005904Y0330298D01*
X0005813Y0330427D01*
X0005724Y0330558D01*
X0005640Y0330692D01*
X0005558Y0330828D01*
X0005480Y0330965D01*
X0005406Y0331105D01*
X0005335Y0331247D01*
X0005267Y0331390D01*
X0005203Y0331535D01*
X0005143Y0331681D01*
X0005087Y0331829D01*
X0005034Y0331978D01*
X0004985Y0332129D01*
X0004940Y0332281D01*
X0004899Y0332434D01*
X0004861Y0332587D01*
X0004828Y0332742D01*
X0004798Y0332898D01*
X0004772Y0333054D01*
X0004751Y0333211D01*
X0004733Y0333368D01*
X0004719Y0333526D01*
X0004709Y0333684D01*
X0004703Y0333842D01*
X0004701Y0334000D01*
X0227500Y0019000D02*
X0227502Y0019118D01*
X0227508Y0019236D01*
X0227518Y0019354D01*
X0227532Y0019471D01*
X0227550Y0019588D01*
X0227572Y0019705D01*
X0227597Y0019820D01*
X0227627Y0019934D01*
X0227661Y0020048D01*
X0227698Y0020160D01*
X0227739Y0020271D01*
X0227784Y0020380D01*
X0227832Y0020488D01*
X0227884Y0020594D01*
X0227940Y0020699D01*
X0227999Y0020801D01*
X0228061Y0020901D01*
X0228127Y0020999D01*
X0228196Y0021095D01*
X0228269Y0021189D01*
X0228344Y0021280D01*
X0228423Y0021368D01*
X0228504Y0021454D01*
X0228589Y0021537D01*
X0228676Y0021617D01*
X0228765Y0021694D01*
X0228858Y0021768D01*
X0228952Y0021838D01*
X0229049Y0021906D01*
X0229149Y0021970D01*
X0229250Y0022031D01*
X0229353Y0022088D01*
X0229459Y0022142D01*
X0229566Y0022193D01*
X0229674Y0022239D01*
X0229784Y0022282D01*
X0229896Y0022321D01*
X0230009Y0022357D01*
X0230123Y0022388D01*
X0230238Y0022416D01*
X0230353Y0022440D01*
X0230470Y0022460D01*
X0230587Y0022476D01*
X0230705Y0022488D01*
X0230823Y0022496D01*
X0230941Y0022500D01*
X0231059Y0022500D01*
X0231177Y0022496D01*
X0231295Y0022488D01*
X0231413Y0022476D01*
X0231530Y0022460D01*
X0231647Y0022440D01*
X0231762Y0022416D01*
X0231877Y0022388D01*
X0231991Y0022357D01*
X0232104Y0022321D01*
X0232216Y0022282D01*
X0232326Y0022239D01*
X0232434Y0022193D01*
X0232541Y0022142D01*
X0232647Y0022088D01*
X0232750Y0022031D01*
X0232851Y0021970D01*
X0232951Y0021906D01*
X0233048Y0021838D01*
X0233142Y0021768D01*
X0233235Y0021694D01*
X0233324Y0021617D01*
X0233411Y0021537D01*
X0233496Y0021454D01*
X0233577Y0021368D01*
X0233656Y0021280D01*
X0233731Y0021189D01*
X0233804Y0021095D01*
X0233873Y0020999D01*
X0233939Y0020901D01*
X0234001Y0020801D01*
X0234060Y0020699D01*
X0234116Y0020594D01*
X0234168Y0020488D01*
X0234216Y0020380D01*
X0234261Y0020271D01*
X0234302Y0020160D01*
X0234339Y0020048D01*
X0234373Y0019934D01*
X0234403Y0019820D01*
X0234428Y0019705D01*
X0234450Y0019588D01*
X0234468Y0019471D01*
X0234482Y0019354D01*
X0234492Y0019236D01*
X0234498Y0019118D01*
X0234500Y0019000D01*
X0234498Y0018882D01*
X0234492Y0018764D01*
X0234482Y0018646D01*
X0234468Y0018529D01*
X0234450Y0018412D01*
X0234428Y0018295D01*
X0234403Y0018180D01*
X0234373Y0018066D01*
X0234339Y0017952D01*
X0234302Y0017840D01*
X0234261Y0017729D01*
X0234216Y0017620D01*
X0234168Y0017512D01*
X0234116Y0017406D01*
X0234060Y0017301D01*
X0234001Y0017199D01*
X0233939Y0017099D01*
X0233873Y0017001D01*
X0233804Y0016905D01*
X0233731Y0016811D01*
X0233656Y0016720D01*
X0233577Y0016632D01*
X0233496Y0016546D01*
X0233411Y0016463D01*
X0233324Y0016383D01*
X0233235Y0016306D01*
X0233142Y0016232D01*
X0233048Y0016162D01*
X0232951Y0016094D01*
X0232851Y0016030D01*
X0232750Y0015969D01*
X0232647Y0015912D01*
X0232541Y0015858D01*
X0232434Y0015807D01*
X0232326Y0015761D01*
X0232216Y0015718D01*
X0232104Y0015679D01*
X0231991Y0015643D01*
X0231877Y0015612D01*
X0231762Y0015584D01*
X0231647Y0015560D01*
X0231530Y0015540D01*
X0231413Y0015524D01*
X0231295Y0015512D01*
X0231177Y0015504D01*
X0231059Y0015500D01*
X0230941Y0015500D01*
X0230823Y0015504D01*
X0230705Y0015512D01*
X0230587Y0015524D01*
X0230470Y0015540D01*
X0230353Y0015560D01*
X0230238Y0015584D01*
X0230123Y0015612D01*
X0230009Y0015643D01*
X0229896Y0015679D01*
X0229784Y0015718D01*
X0229674Y0015761D01*
X0229566Y0015807D01*
X0229459Y0015858D01*
X0229353Y0015912D01*
X0229250Y0015969D01*
X0229149Y0016030D01*
X0229049Y0016094D01*
X0228952Y0016162D01*
X0228858Y0016232D01*
X0228765Y0016306D01*
X0228676Y0016383D01*
X0228589Y0016463D01*
X0228504Y0016546D01*
X0228423Y0016632D01*
X0228344Y0016720D01*
X0228269Y0016811D01*
X0228196Y0016905D01*
X0228127Y0017001D01*
X0228061Y0017099D01*
X0227999Y0017199D01*
X0227940Y0017301D01*
X0227884Y0017406D01*
X0227832Y0017512D01*
X0227784Y0017620D01*
X0227739Y0017729D01*
X0227698Y0017840D01*
X0227661Y0017952D01*
X0227627Y0018066D01*
X0227597Y0018180D01*
X0227572Y0018295D01*
X0227550Y0018412D01*
X0227532Y0018529D01*
X0227518Y0018646D01*
X0227508Y0018764D01*
X0227502Y0018882D01*
X0227500Y0019000D01*
X0287500Y0019000D02*
X0287502Y0019118D01*
X0287508Y0019236D01*
X0287518Y0019354D01*
X0287532Y0019471D01*
X0287550Y0019588D01*
X0287572Y0019705D01*
X0287597Y0019820D01*
X0287627Y0019934D01*
X0287661Y0020048D01*
X0287698Y0020160D01*
X0287739Y0020271D01*
X0287784Y0020380D01*
X0287832Y0020488D01*
X0287884Y0020594D01*
X0287940Y0020699D01*
X0287999Y0020801D01*
X0288061Y0020901D01*
X0288127Y0020999D01*
X0288196Y0021095D01*
X0288269Y0021189D01*
X0288344Y0021280D01*
X0288423Y0021368D01*
X0288504Y0021454D01*
X0288589Y0021537D01*
X0288676Y0021617D01*
X0288765Y0021694D01*
X0288858Y0021768D01*
X0288952Y0021838D01*
X0289049Y0021906D01*
X0289149Y0021970D01*
X0289250Y0022031D01*
X0289353Y0022088D01*
X0289459Y0022142D01*
X0289566Y0022193D01*
X0289674Y0022239D01*
X0289784Y0022282D01*
X0289896Y0022321D01*
X0290009Y0022357D01*
X0290123Y0022388D01*
X0290238Y0022416D01*
X0290353Y0022440D01*
X0290470Y0022460D01*
X0290587Y0022476D01*
X0290705Y0022488D01*
X0290823Y0022496D01*
X0290941Y0022500D01*
X0291059Y0022500D01*
X0291177Y0022496D01*
X0291295Y0022488D01*
X0291413Y0022476D01*
X0291530Y0022460D01*
X0291647Y0022440D01*
X0291762Y0022416D01*
X0291877Y0022388D01*
X0291991Y0022357D01*
X0292104Y0022321D01*
X0292216Y0022282D01*
X0292326Y0022239D01*
X0292434Y0022193D01*
X0292541Y0022142D01*
X0292647Y0022088D01*
X0292750Y0022031D01*
X0292851Y0021970D01*
X0292951Y0021906D01*
X0293048Y0021838D01*
X0293142Y0021768D01*
X0293235Y0021694D01*
X0293324Y0021617D01*
X0293411Y0021537D01*
X0293496Y0021454D01*
X0293577Y0021368D01*
X0293656Y0021280D01*
X0293731Y0021189D01*
X0293804Y0021095D01*
X0293873Y0020999D01*
X0293939Y0020901D01*
X0294001Y0020801D01*
X0294060Y0020699D01*
X0294116Y0020594D01*
X0294168Y0020488D01*
X0294216Y0020380D01*
X0294261Y0020271D01*
X0294302Y0020160D01*
X0294339Y0020048D01*
X0294373Y0019934D01*
X0294403Y0019820D01*
X0294428Y0019705D01*
X0294450Y0019588D01*
X0294468Y0019471D01*
X0294482Y0019354D01*
X0294492Y0019236D01*
X0294498Y0019118D01*
X0294500Y0019000D01*
X0294498Y0018882D01*
X0294492Y0018764D01*
X0294482Y0018646D01*
X0294468Y0018529D01*
X0294450Y0018412D01*
X0294428Y0018295D01*
X0294403Y0018180D01*
X0294373Y0018066D01*
X0294339Y0017952D01*
X0294302Y0017840D01*
X0294261Y0017729D01*
X0294216Y0017620D01*
X0294168Y0017512D01*
X0294116Y0017406D01*
X0294060Y0017301D01*
X0294001Y0017199D01*
X0293939Y0017099D01*
X0293873Y0017001D01*
X0293804Y0016905D01*
X0293731Y0016811D01*
X0293656Y0016720D01*
X0293577Y0016632D01*
X0293496Y0016546D01*
X0293411Y0016463D01*
X0293324Y0016383D01*
X0293235Y0016306D01*
X0293142Y0016232D01*
X0293048Y0016162D01*
X0292951Y0016094D01*
X0292851Y0016030D01*
X0292750Y0015969D01*
X0292647Y0015912D01*
X0292541Y0015858D01*
X0292434Y0015807D01*
X0292326Y0015761D01*
X0292216Y0015718D01*
X0292104Y0015679D01*
X0291991Y0015643D01*
X0291877Y0015612D01*
X0291762Y0015584D01*
X0291647Y0015560D01*
X0291530Y0015540D01*
X0291413Y0015524D01*
X0291295Y0015512D01*
X0291177Y0015504D01*
X0291059Y0015500D01*
X0290941Y0015500D01*
X0290823Y0015504D01*
X0290705Y0015512D01*
X0290587Y0015524D01*
X0290470Y0015540D01*
X0290353Y0015560D01*
X0290238Y0015584D01*
X0290123Y0015612D01*
X0290009Y0015643D01*
X0289896Y0015679D01*
X0289784Y0015718D01*
X0289674Y0015761D01*
X0289566Y0015807D01*
X0289459Y0015858D01*
X0289353Y0015912D01*
X0289250Y0015969D01*
X0289149Y0016030D01*
X0289049Y0016094D01*
X0288952Y0016162D01*
X0288858Y0016232D01*
X0288765Y0016306D01*
X0288676Y0016383D01*
X0288589Y0016463D01*
X0288504Y0016546D01*
X0288423Y0016632D01*
X0288344Y0016720D01*
X0288269Y0016811D01*
X0288196Y0016905D01*
X0288127Y0017001D01*
X0288061Y0017099D01*
X0287999Y0017199D01*
X0287940Y0017301D01*
X0287884Y0017406D01*
X0287832Y0017512D01*
X0287784Y0017620D01*
X0287739Y0017729D01*
X0287698Y0017840D01*
X0287661Y0017952D01*
X0287627Y0018066D01*
X0287597Y0018180D01*
X0287572Y0018295D01*
X0287550Y0018412D01*
X0287532Y0018529D01*
X0287518Y0018646D01*
X0287508Y0018764D01*
X0287502Y0018882D01*
X0287500Y0019000D01*
X0313401Y0014600D02*
X0313403Y0014758D01*
X0313409Y0014916D01*
X0313419Y0015074D01*
X0313433Y0015232D01*
X0313451Y0015389D01*
X0313472Y0015546D01*
X0313498Y0015702D01*
X0313528Y0015858D01*
X0313561Y0016013D01*
X0313599Y0016166D01*
X0313640Y0016319D01*
X0313685Y0016471D01*
X0313734Y0016622D01*
X0313787Y0016771D01*
X0313843Y0016919D01*
X0313903Y0017065D01*
X0313967Y0017210D01*
X0314035Y0017353D01*
X0314106Y0017495D01*
X0314180Y0017635D01*
X0314258Y0017772D01*
X0314340Y0017908D01*
X0314424Y0018042D01*
X0314513Y0018173D01*
X0314604Y0018302D01*
X0314699Y0018429D01*
X0314796Y0018554D01*
X0314897Y0018676D01*
X0315001Y0018795D01*
X0315108Y0018912D01*
X0315218Y0019026D01*
X0315331Y0019137D01*
X0315446Y0019246D01*
X0315564Y0019351D01*
X0315685Y0019453D01*
X0315808Y0019553D01*
X0315934Y0019649D01*
X0316062Y0019742D01*
X0316192Y0019832D01*
X0316325Y0019918D01*
X0316460Y0020002D01*
X0316596Y0020081D01*
X0316735Y0020158D01*
X0316876Y0020230D01*
X0317018Y0020300D01*
X0317162Y0020365D01*
X0317308Y0020427D01*
X0317455Y0020485D01*
X0317604Y0020540D01*
X0317754Y0020591D01*
X0317905Y0020638D01*
X0318057Y0020681D01*
X0318210Y0020720D01*
X0318365Y0020756D01*
X0318520Y0020787D01*
X0318676Y0020815D01*
X0318832Y0020839D01*
X0318989Y0020859D01*
X0319147Y0020875D01*
X0319304Y0020887D01*
X0319463Y0020895D01*
X0319621Y0020899D01*
X0319779Y0020899D01*
X0319937Y0020895D01*
X0320096Y0020887D01*
X0320253Y0020875D01*
X0320411Y0020859D01*
X0320568Y0020839D01*
X0320724Y0020815D01*
X0320880Y0020787D01*
X0321035Y0020756D01*
X0321190Y0020720D01*
X0321343Y0020681D01*
X0321495Y0020638D01*
X0321646Y0020591D01*
X0321796Y0020540D01*
X0321945Y0020485D01*
X0322092Y0020427D01*
X0322238Y0020365D01*
X0322382Y0020300D01*
X0322524Y0020230D01*
X0322665Y0020158D01*
X0322804Y0020081D01*
X0322940Y0020002D01*
X0323075Y0019918D01*
X0323208Y0019832D01*
X0323338Y0019742D01*
X0323466Y0019649D01*
X0323592Y0019553D01*
X0323715Y0019453D01*
X0323836Y0019351D01*
X0323954Y0019246D01*
X0324069Y0019137D01*
X0324182Y0019026D01*
X0324292Y0018912D01*
X0324399Y0018795D01*
X0324503Y0018676D01*
X0324604Y0018554D01*
X0324701Y0018429D01*
X0324796Y0018302D01*
X0324887Y0018173D01*
X0324976Y0018042D01*
X0325060Y0017908D01*
X0325142Y0017772D01*
X0325220Y0017635D01*
X0325294Y0017495D01*
X0325365Y0017353D01*
X0325433Y0017210D01*
X0325497Y0017065D01*
X0325557Y0016919D01*
X0325613Y0016771D01*
X0325666Y0016622D01*
X0325715Y0016471D01*
X0325760Y0016319D01*
X0325801Y0016166D01*
X0325839Y0016013D01*
X0325872Y0015858D01*
X0325902Y0015702D01*
X0325928Y0015546D01*
X0325949Y0015389D01*
X0325967Y0015232D01*
X0325981Y0015074D01*
X0325991Y0014916D01*
X0325997Y0014758D01*
X0325999Y0014600D01*
X0325997Y0014442D01*
X0325991Y0014284D01*
X0325981Y0014126D01*
X0325967Y0013968D01*
X0325949Y0013811D01*
X0325928Y0013654D01*
X0325902Y0013498D01*
X0325872Y0013342D01*
X0325839Y0013187D01*
X0325801Y0013034D01*
X0325760Y0012881D01*
X0325715Y0012729D01*
X0325666Y0012578D01*
X0325613Y0012429D01*
X0325557Y0012281D01*
X0325497Y0012135D01*
X0325433Y0011990D01*
X0325365Y0011847D01*
X0325294Y0011705D01*
X0325220Y0011565D01*
X0325142Y0011428D01*
X0325060Y0011292D01*
X0324976Y0011158D01*
X0324887Y0011027D01*
X0324796Y0010898D01*
X0324701Y0010771D01*
X0324604Y0010646D01*
X0324503Y0010524D01*
X0324399Y0010405D01*
X0324292Y0010288D01*
X0324182Y0010174D01*
X0324069Y0010063D01*
X0323954Y0009954D01*
X0323836Y0009849D01*
X0323715Y0009747D01*
X0323592Y0009647D01*
X0323466Y0009551D01*
X0323338Y0009458D01*
X0323208Y0009368D01*
X0323075Y0009282D01*
X0322940Y0009198D01*
X0322804Y0009119D01*
X0322665Y0009042D01*
X0322524Y0008970D01*
X0322382Y0008900D01*
X0322238Y0008835D01*
X0322092Y0008773D01*
X0321945Y0008715D01*
X0321796Y0008660D01*
X0321646Y0008609D01*
X0321495Y0008562D01*
X0321343Y0008519D01*
X0321190Y0008480D01*
X0321035Y0008444D01*
X0320880Y0008413D01*
X0320724Y0008385D01*
X0320568Y0008361D01*
X0320411Y0008341D01*
X0320253Y0008325D01*
X0320096Y0008313D01*
X0319937Y0008305D01*
X0319779Y0008301D01*
X0319621Y0008301D01*
X0319463Y0008305D01*
X0319304Y0008313D01*
X0319147Y0008325D01*
X0318989Y0008341D01*
X0318832Y0008361D01*
X0318676Y0008385D01*
X0318520Y0008413D01*
X0318365Y0008444D01*
X0318210Y0008480D01*
X0318057Y0008519D01*
X0317905Y0008562D01*
X0317754Y0008609D01*
X0317604Y0008660D01*
X0317455Y0008715D01*
X0317308Y0008773D01*
X0317162Y0008835D01*
X0317018Y0008900D01*
X0316876Y0008970D01*
X0316735Y0009042D01*
X0316596Y0009119D01*
X0316460Y0009198D01*
X0316325Y0009282D01*
X0316192Y0009368D01*
X0316062Y0009458D01*
X0315934Y0009551D01*
X0315808Y0009647D01*
X0315685Y0009747D01*
X0315564Y0009849D01*
X0315446Y0009954D01*
X0315331Y0010063D01*
X0315218Y0010174D01*
X0315108Y0010288D01*
X0315001Y0010405D01*
X0314897Y0010524D01*
X0314796Y0010646D01*
X0314699Y0010771D01*
X0314604Y0010898D01*
X0314513Y0011027D01*
X0314424Y0011158D01*
X0314340Y0011292D01*
X0314258Y0011428D01*
X0314180Y0011565D01*
X0314106Y0011705D01*
X0314035Y0011847D01*
X0313967Y0011990D01*
X0313903Y0012135D01*
X0313843Y0012281D01*
X0313787Y0012429D01*
X0313734Y0012578D01*
X0313685Y0012729D01*
X0313640Y0012881D01*
X0313599Y0013034D01*
X0313561Y0013187D01*
X0313528Y0013342D01*
X0313498Y0013498D01*
X0313472Y0013654D01*
X0313451Y0013811D01*
X0313433Y0013968D01*
X0313419Y0014126D01*
X0313409Y0014284D01*
X0313403Y0014442D01*
X0313401Y0014600D01*
D11*
X0203874Y0258685D03*
X0203874Y0319315D03*
X0088126Y0298843D03*
X0088126Y0279157D03*
X0069500Y0191200D03*
D12*
X0061000Y0102300D02*
X0061000Y0095700D01*
X0051000Y0095700D02*
X0051000Y0102300D01*
X0041000Y0102300D02*
X0041000Y0095700D01*
X0086000Y0095700D02*
X0086000Y0102300D01*
X0096000Y0102300D02*
X0096000Y0095700D01*
X0106000Y0095700D02*
X0106000Y0102300D01*
X0131000Y0102300D02*
X0131000Y0095700D01*
X0141000Y0095700D02*
X0141000Y0102300D01*
X0151000Y0102300D02*
X0151000Y0095700D01*
X0176000Y0095700D02*
X0176000Y0102300D01*
X0186000Y0102300D02*
X0186000Y0095700D01*
X0196000Y0095700D02*
X0196000Y0102300D01*
D13*
X0231000Y0169000D03*
D14*
X0231000Y0159000D03*
X0231000Y0149000D03*
X0231000Y0139000D03*
X0231000Y0129000D03*
X0231000Y0119000D03*
X0231000Y0109000D03*
X0231000Y0099000D03*
X0231000Y0089000D03*
X0231000Y0079000D03*
X0231000Y0069000D03*
X0231000Y0059000D03*
X0231000Y0049000D03*
X0231000Y0039000D03*
X0231000Y0029000D03*
X0291000Y0029000D03*
X0291000Y0039000D03*
X0291000Y0049000D03*
X0291000Y0059000D03*
X0291000Y0069000D03*
X0291000Y0079000D03*
X0291000Y0089000D03*
X0291000Y0099000D03*
X0291000Y0109000D03*
X0291000Y0119000D03*
X0291000Y0129000D03*
X0291000Y0139000D03*
X0291000Y0149000D03*
X0291000Y0159000D03*
X0291000Y0169000D03*
D15*
X0081000Y0024000D03*
D16*
X0091000Y0024000D03*
X0101000Y0024000D03*
X0111000Y0024000D03*
D17*
X0079500Y0191200D03*
X0079500Y0201200D03*
X0079500Y0211200D03*
X0079500Y0221200D03*
X0069500Y0221200D03*
X0069500Y0211200D03*
X0069500Y0201200D03*
D18*
X0072900Y0239800D03*
X0062900Y0239800D03*
X0071000Y0274000D03*
X0071000Y0294000D03*
X0221000Y0324000D03*
X0241000Y0324000D03*
X0236000Y0299000D03*
X0226000Y0299000D03*
X0226000Y0274000D03*
X0236000Y0274000D03*
X0250200Y0193100D03*
X0290200Y0193100D03*
X0116000Y0044000D03*
X0076000Y0044000D03*
D19*
X0038969Y0044000D02*
X0033031Y0044000D01*
X0033031Y0054000D02*
X0038969Y0054000D01*
X0038969Y0069000D02*
X0033031Y0069000D01*
X0033031Y0079000D02*
X0038969Y0079000D01*
X0038969Y0029000D02*
X0033031Y0029000D01*
X0033031Y0019000D02*
X0038969Y0019000D01*
X0038031Y0304000D02*
X0043969Y0304000D01*
X0043969Y0314000D02*
X0038031Y0314000D01*
X0038031Y0324000D02*
X0043969Y0324000D01*
D20*
X0223575Y0235000D02*
X0230625Y0235000D01*
X0230625Y0215400D02*
X0223575Y0215400D01*
X0272775Y0215400D02*
X0279825Y0215400D01*
X0279825Y0235000D02*
X0272775Y0235000D01*
D21*
X0041000Y0214000D02*
X0031000Y0214000D01*
X0031000Y0274000D02*
X0041000Y0274000D01*
D22*
X0060200Y0118900D02*
X0230300Y0118900D01*
X0231000Y0119000D01*
X0228500Y0110800D02*
X0230300Y0109000D01*
X0231000Y0109000D01*
X0228500Y0110800D02*
X0097100Y0110800D01*
X0090800Y0104500D01*
X0090800Y0103600D01*
X0086300Y0099100D01*
X0086000Y0099000D01*
X0098000Y0091000D02*
X0068300Y0091000D01*
X0061100Y0098200D01*
X0061000Y0099000D01*
X0045800Y0103600D02*
X0045800Y0104500D01*
X0060200Y0118900D01*
X0045800Y0103600D02*
X0041300Y0099100D01*
X0041000Y0099000D01*
X0036800Y0054100D02*
X0036000Y0054000D01*
X0036800Y0054100D02*
X0096200Y0054100D01*
X0140300Y0098200D01*
X0141000Y0099000D01*
X0135800Y0103600D02*
X0135800Y0104500D01*
X0140300Y0109000D01*
X0220400Y0109000D01*
X0230300Y0099100D01*
X0231000Y0099000D01*
X0196000Y0099000D02*
X0195200Y0099100D01*
X0190700Y0103600D01*
X0190700Y0104500D01*
X0188000Y0107200D01*
X0159200Y0107200D01*
X0151000Y0099000D01*
X0142100Y0091000D02*
X0178100Y0091000D01*
X0185300Y0098200D01*
X0186000Y0099000D01*
X0142100Y0091000D02*
X0070100Y0019000D01*
X0036000Y0019000D01*
X0081000Y0024000D02*
X0081800Y0024400D01*
X0085400Y0024400D01*
X0104300Y0043300D01*
X0116000Y0043300D01*
X0116000Y0044000D01*
X0098000Y0091000D02*
X0106000Y0099000D01*
X0131000Y0099000D02*
X0131300Y0099100D01*
X0135800Y0103600D01*
X0216400Y0148600D02*
X0216400Y0215800D01*
X0216400Y0266600D01*
X0226000Y0274000D01*
X0216400Y0148600D02*
X0230300Y0142300D01*
X0230300Y0139600D01*
X0231000Y0139000D01*
D23*
X0230600Y0129400D02*
X0231000Y0129000D01*
X0230600Y0129400D02*
X0200600Y0129400D01*
X0169400Y0160600D01*
X0169400Y0163600D01*
X0111800Y0221200D01*
X0079500Y0221200D01*
X0074000Y0211000D02*
X0069800Y0211000D01*
X0069500Y0211200D01*
X0074000Y0211000D02*
X0079400Y0205600D01*
X0082400Y0205600D01*
X0124400Y0163600D01*
X0124400Y0160600D01*
X0161600Y0123400D01*
X0254000Y0123400D01*
X0256400Y0121000D01*
X0233000Y0094600D02*
X0286400Y0148000D01*
X0286400Y0164800D01*
X0290600Y0169000D01*
X0291000Y0169000D01*
X0250200Y0193100D02*
X0249800Y0193600D01*
X0249800Y0202000D01*
X0235400Y0216400D01*
X0235400Y0227200D01*
X0227600Y0235000D01*
X0227100Y0235000D01*
X0227000Y0215800D02*
X0216400Y0215800D01*
X0227000Y0215800D02*
X0227100Y0215400D01*
X0230000Y0094600D02*
X0233000Y0094600D01*
X0230000Y0094600D02*
X0224600Y0089200D01*
X0144800Y0089200D01*
X0116000Y0060400D01*
X0116000Y0044000D01*
X0143000Y0084400D02*
X0175400Y0084400D01*
X0230600Y0029200D01*
X0231000Y0029000D01*
X0231000Y0039000D02*
X0231200Y0039400D01*
X0238600Y0043500D01*
X0238700Y0084200D01*
X0230600Y0059200D02*
X0231000Y0059000D01*
X0230600Y0059200D02*
X0203000Y0086800D01*
X0145400Y0086800D01*
X0079500Y0191200D02*
X0079400Y0191200D01*
X0075200Y0195400D01*
X0075200Y0201400D01*
X0071000Y0205600D01*
X0069200Y0205600D01*
X0063200Y0211600D01*
X0063200Y0239800D01*
X0062900Y0239800D01*
D24*
X0145400Y0086800D03*
X0143000Y0084400D03*
X0238700Y0084200D03*
X0256400Y0121000D03*
M02*
