%
M48
M72
T01C0.01200
T02C0.03150
T03C0.03200
T04C0.03937
T05C0.04000
T06C0.04400
T07C0.04700
T08C0.05200
T09C0.07000
T10C0.07100
T11C0.11000
T12C0.12598
T13C0.13000
%
T01
X256400Y121000
X238700Y84200
X145400Y86800
X143000Y84400
T02
X88126Y298843
X88126Y279157
X69500Y191200
X231000Y169000
X231000Y159000
X231000Y149000
X231000Y139000
X231000Y129000
X231000Y119000
X231000Y109000
X231000Y99000
X231000Y89000
X231000Y79000
X231000Y69000
X231000Y59000
X231000Y49000
X231000Y39000
X231000Y29000
X291000Y29000
X291000Y39000
X291000Y49000
X291000Y59000
X291000Y69000
X291000Y79000
X291000Y89000
X291000Y99000
X291000Y109000
X291000Y119000
X291000Y129000
X291000Y139000
X291000Y149000
X291000Y159000
X291000Y169000
X203874Y258685
X203874Y319315
X111000Y24000
X101000Y24000
X91000Y24000
X81000Y24000
T03
X76000Y44000
X116000Y44000
X62900Y239800
X72900Y239800
X71000Y274000
X71000Y294000
X221000Y324000
X241000Y324000
X236000Y299000
X226000Y299000
X226000Y274000
X236000Y274000
X250200Y193100
X290200Y193100
T04
X41000Y324000
X41000Y314000
X41000Y304000
X36000Y79000
X36000Y69000
X36000Y54000
X36000Y44000
X36000Y29000
X36000Y19000
T05
X69500Y201200
X69500Y211200
X69500Y221200
X79500Y221200
X79500Y211200
X79500Y201200
X79500Y191200
T06
X41000Y99000
X51000Y99000
X61000Y99000
X86000Y99000
X96000Y99000
X106000Y99000
X131000Y99000
X141000Y99000
X151000Y99000
X176000Y99000
X186000Y99000
X196000Y99000
T07
X227100Y215400
X227100Y235000
X276300Y235000
X276300Y215400
T08
X36000Y214000
X36000Y274000
T09
X231000Y179000
X291000Y179000
X231000Y19000
X291000Y19000
T10
X251700Y207500
X251700Y242900
T11
X36000Y244000
T12
X11000Y14000
X320500Y333700
X11000Y334000
X319700Y14600
T13
X51000Y168000
X96000Y168000
X141000Y168000
X186000Y168000
M30
