G75*
%MOIN*%
%OFA0B0*%
%FSLAX25Y25*%
%IPPOS*%
%LPD*%
%AMOC8*
5,1,8,0,0,1.08239X$1,22.5*
%
%ADD10C,0.00000*%
%ADD11C,0.00400*%
%ADD12C,0.00500*%
%ADD13C,0.00200*%
%ADD14C,0.00700*%
%ADD15R,0.03000X0.02500*%
%ADD16R,0.05000X0.11000*%
%ADD17C,0.00600*%
%ADD18R,0.03400X0.02400*%
%ADD19C,0.01000*%
%ADD20R,0.08500X0.02000*%
%ADD21R,0.02000X0.40000*%
%ADD22R,0.06500X0.02500*%
%ADD23R,0.16000X0.01000*%
%ADD24R,0.04500X0.19000*%
%ADD25R,0.03000X0.04000*%
%ADD26R,0.00500X0.04000*%
%ADD27R,0.00500X0.07000*%
D10*
X0001000Y0004000D02*
X0001000Y0343961D01*
X0332301Y0343961D01*
X0332301Y0004000D01*
X0001000Y0004000D01*
X0004701Y0014000D02*
X0004703Y0014158D01*
X0004709Y0014316D01*
X0004719Y0014474D01*
X0004733Y0014632D01*
X0004751Y0014789D01*
X0004772Y0014946D01*
X0004798Y0015102D01*
X0004828Y0015258D01*
X0004861Y0015413D01*
X0004899Y0015566D01*
X0004940Y0015719D01*
X0004985Y0015871D01*
X0005034Y0016022D01*
X0005087Y0016171D01*
X0005143Y0016319D01*
X0005203Y0016465D01*
X0005267Y0016610D01*
X0005335Y0016753D01*
X0005406Y0016895D01*
X0005480Y0017035D01*
X0005558Y0017172D01*
X0005640Y0017308D01*
X0005724Y0017442D01*
X0005813Y0017573D01*
X0005904Y0017702D01*
X0005999Y0017829D01*
X0006096Y0017954D01*
X0006197Y0018076D01*
X0006301Y0018195D01*
X0006408Y0018312D01*
X0006518Y0018426D01*
X0006631Y0018537D01*
X0006746Y0018646D01*
X0006864Y0018751D01*
X0006985Y0018853D01*
X0007108Y0018953D01*
X0007234Y0019049D01*
X0007362Y0019142D01*
X0007492Y0019232D01*
X0007625Y0019318D01*
X0007760Y0019402D01*
X0007896Y0019481D01*
X0008035Y0019558D01*
X0008176Y0019630D01*
X0008318Y0019700D01*
X0008462Y0019765D01*
X0008608Y0019827D01*
X0008755Y0019885D01*
X0008904Y0019940D01*
X0009054Y0019991D01*
X0009205Y0020038D01*
X0009357Y0020081D01*
X0009510Y0020120D01*
X0009665Y0020156D01*
X0009820Y0020187D01*
X0009976Y0020215D01*
X0010132Y0020239D01*
X0010289Y0020259D01*
X0010447Y0020275D01*
X0010604Y0020287D01*
X0010763Y0020295D01*
X0010921Y0020299D01*
X0011079Y0020299D01*
X0011237Y0020295D01*
X0011396Y0020287D01*
X0011553Y0020275D01*
X0011711Y0020259D01*
X0011868Y0020239D01*
X0012024Y0020215D01*
X0012180Y0020187D01*
X0012335Y0020156D01*
X0012490Y0020120D01*
X0012643Y0020081D01*
X0012795Y0020038D01*
X0012946Y0019991D01*
X0013096Y0019940D01*
X0013245Y0019885D01*
X0013392Y0019827D01*
X0013538Y0019765D01*
X0013682Y0019700D01*
X0013824Y0019630D01*
X0013965Y0019558D01*
X0014104Y0019481D01*
X0014240Y0019402D01*
X0014375Y0019318D01*
X0014508Y0019232D01*
X0014638Y0019142D01*
X0014766Y0019049D01*
X0014892Y0018953D01*
X0015015Y0018853D01*
X0015136Y0018751D01*
X0015254Y0018646D01*
X0015369Y0018537D01*
X0015482Y0018426D01*
X0015592Y0018312D01*
X0015699Y0018195D01*
X0015803Y0018076D01*
X0015904Y0017954D01*
X0016001Y0017829D01*
X0016096Y0017702D01*
X0016187Y0017573D01*
X0016276Y0017442D01*
X0016360Y0017308D01*
X0016442Y0017172D01*
X0016520Y0017035D01*
X0016594Y0016895D01*
X0016665Y0016753D01*
X0016733Y0016610D01*
X0016797Y0016465D01*
X0016857Y0016319D01*
X0016913Y0016171D01*
X0016966Y0016022D01*
X0017015Y0015871D01*
X0017060Y0015719D01*
X0017101Y0015566D01*
X0017139Y0015413D01*
X0017172Y0015258D01*
X0017202Y0015102D01*
X0017228Y0014946D01*
X0017249Y0014789D01*
X0017267Y0014632D01*
X0017281Y0014474D01*
X0017291Y0014316D01*
X0017297Y0014158D01*
X0017299Y0014000D01*
X0017297Y0013842D01*
X0017291Y0013684D01*
X0017281Y0013526D01*
X0017267Y0013368D01*
X0017249Y0013211D01*
X0017228Y0013054D01*
X0017202Y0012898D01*
X0017172Y0012742D01*
X0017139Y0012587D01*
X0017101Y0012434D01*
X0017060Y0012281D01*
X0017015Y0012129D01*
X0016966Y0011978D01*
X0016913Y0011829D01*
X0016857Y0011681D01*
X0016797Y0011535D01*
X0016733Y0011390D01*
X0016665Y0011247D01*
X0016594Y0011105D01*
X0016520Y0010965D01*
X0016442Y0010828D01*
X0016360Y0010692D01*
X0016276Y0010558D01*
X0016187Y0010427D01*
X0016096Y0010298D01*
X0016001Y0010171D01*
X0015904Y0010046D01*
X0015803Y0009924D01*
X0015699Y0009805D01*
X0015592Y0009688D01*
X0015482Y0009574D01*
X0015369Y0009463D01*
X0015254Y0009354D01*
X0015136Y0009249D01*
X0015015Y0009147D01*
X0014892Y0009047D01*
X0014766Y0008951D01*
X0014638Y0008858D01*
X0014508Y0008768D01*
X0014375Y0008682D01*
X0014240Y0008598D01*
X0014104Y0008519D01*
X0013965Y0008442D01*
X0013824Y0008370D01*
X0013682Y0008300D01*
X0013538Y0008235D01*
X0013392Y0008173D01*
X0013245Y0008115D01*
X0013096Y0008060D01*
X0012946Y0008009D01*
X0012795Y0007962D01*
X0012643Y0007919D01*
X0012490Y0007880D01*
X0012335Y0007844D01*
X0012180Y0007813D01*
X0012024Y0007785D01*
X0011868Y0007761D01*
X0011711Y0007741D01*
X0011553Y0007725D01*
X0011396Y0007713D01*
X0011237Y0007705D01*
X0011079Y0007701D01*
X0010921Y0007701D01*
X0010763Y0007705D01*
X0010604Y0007713D01*
X0010447Y0007725D01*
X0010289Y0007741D01*
X0010132Y0007761D01*
X0009976Y0007785D01*
X0009820Y0007813D01*
X0009665Y0007844D01*
X0009510Y0007880D01*
X0009357Y0007919D01*
X0009205Y0007962D01*
X0009054Y0008009D01*
X0008904Y0008060D01*
X0008755Y0008115D01*
X0008608Y0008173D01*
X0008462Y0008235D01*
X0008318Y0008300D01*
X0008176Y0008370D01*
X0008035Y0008442D01*
X0007896Y0008519D01*
X0007760Y0008598D01*
X0007625Y0008682D01*
X0007492Y0008768D01*
X0007362Y0008858D01*
X0007234Y0008951D01*
X0007108Y0009047D01*
X0006985Y0009147D01*
X0006864Y0009249D01*
X0006746Y0009354D01*
X0006631Y0009463D01*
X0006518Y0009574D01*
X0006408Y0009688D01*
X0006301Y0009805D01*
X0006197Y0009924D01*
X0006096Y0010046D01*
X0005999Y0010171D01*
X0005904Y0010298D01*
X0005813Y0010427D01*
X0005724Y0010558D01*
X0005640Y0010692D01*
X0005558Y0010828D01*
X0005480Y0010965D01*
X0005406Y0011105D01*
X0005335Y0011247D01*
X0005267Y0011390D01*
X0005203Y0011535D01*
X0005143Y0011681D01*
X0005087Y0011829D01*
X0005034Y0011978D01*
X0004985Y0012129D01*
X0004940Y0012281D01*
X0004899Y0012434D01*
X0004861Y0012587D01*
X0004828Y0012742D01*
X0004798Y0012898D01*
X0004772Y0013054D01*
X0004751Y0013211D01*
X0004733Y0013368D01*
X0004719Y0013526D01*
X0004709Y0013684D01*
X0004703Y0013842D01*
X0004701Y0014000D01*
X0044500Y0168000D02*
X0044502Y0168161D01*
X0044508Y0168321D01*
X0044518Y0168482D01*
X0044532Y0168642D01*
X0044550Y0168802D01*
X0044571Y0168961D01*
X0044597Y0169120D01*
X0044627Y0169278D01*
X0044660Y0169435D01*
X0044698Y0169592D01*
X0044739Y0169747D01*
X0044784Y0169901D01*
X0044833Y0170054D01*
X0044886Y0170206D01*
X0044942Y0170357D01*
X0045003Y0170506D01*
X0045066Y0170654D01*
X0045134Y0170800D01*
X0045205Y0170944D01*
X0045279Y0171086D01*
X0045357Y0171227D01*
X0045439Y0171365D01*
X0045524Y0171502D01*
X0045612Y0171636D01*
X0045704Y0171768D01*
X0045799Y0171898D01*
X0045897Y0172026D01*
X0045998Y0172151D01*
X0046102Y0172273D01*
X0046209Y0172393D01*
X0046319Y0172510D01*
X0046432Y0172625D01*
X0046548Y0172736D01*
X0046667Y0172845D01*
X0046788Y0172950D01*
X0046912Y0173053D01*
X0047038Y0173153D01*
X0047166Y0173249D01*
X0047297Y0173342D01*
X0047431Y0173432D01*
X0047566Y0173519D01*
X0047704Y0173602D01*
X0047843Y0173682D01*
X0047985Y0173758D01*
X0048128Y0173831D01*
X0048273Y0173900D01*
X0048420Y0173966D01*
X0048568Y0174028D01*
X0048718Y0174086D01*
X0048869Y0174141D01*
X0049022Y0174192D01*
X0049176Y0174239D01*
X0049331Y0174282D01*
X0049487Y0174321D01*
X0049643Y0174357D01*
X0049801Y0174388D01*
X0049959Y0174416D01*
X0050118Y0174440D01*
X0050278Y0174460D01*
X0050438Y0174476D01*
X0050598Y0174488D01*
X0050759Y0174496D01*
X0050920Y0174500D01*
X0051080Y0174500D01*
X0051241Y0174496D01*
X0051402Y0174488D01*
X0051562Y0174476D01*
X0051722Y0174460D01*
X0051882Y0174440D01*
X0052041Y0174416D01*
X0052199Y0174388D01*
X0052357Y0174357D01*
X0052513Y0174321D01*
X0052669Y0174282D01*
X0052824Y0174239D01*
X0052978Y0174192D01*
X0053131Y0174141D01*
X0053282Y0174086D01*
X0053432Y0174028D01*
X0053580Y0173966D01*
X0053727Y0173900D01*
X0053872Y0173831D01*
X0054015Y0173758D01*
X0054157Y0173682D01*
X0054296Y0173602D01*
X0054434Y0173519D01*
X0054569Y0173432D01*
X0054703Y0173342D01*
X0054834Y0173249D01*
X0054962Y0173153D01*
X0055088Y0173053D01*
X0055212Y0172950D01*
X0055333Y0172845D01*
X0055452Y0172736D01*
X0055568Y0172625D01*
X0055681Y0172510D01*
X0055791Y0172393D01*
X0055898Y0172273D01*
X0056002Y0172151D01*
X0056103Y0172026D01*
X0056201Y0171898D01*
X0056296Y0171768D01*
X0056388Y0171636D01*
X0056476Y0171502D01*
X0056561Y0171365D01*
X0056643Y0171227D01*
X0056721Y0171086D01*
X0056795Y0170944D01*
X0056866Y0170800D01*
X0056934Y0170654D01*
X0056997Y0170506D01*
X0057058Y0170357D01*
X0057114Y0170206D01*
X0057167Y0170054D01*
X0057216Y0169901D01*
X0057261Y0169747D01*
X0057302Y0169592D01*
X0057340Y0169435D01*
X0057373Y0169278D01*
X0057403Y0169120D01*
X0057429Y0168961D01*
X0057450Y0168802D01*
X0057468Y0168642D01*
X0057482Y0168482D01*
X0057492Y0168321D01*
X0057498Y0168161D01*
X0057500Y0168000D01*
X0057498Y0167839D01*
X0057492Y0167679D01*
X0057482Y0167518D01*
X0057468Y0167358D01*
X0057450Y0167198D01*
X0057429Y0167039D01*
X0057403Y0166880D01*
X0057373Y0166722D01*
X0057340Y0166565D01*
X0057302Y0166408D01*
X0057261Y0166253D01*
X0057216Y0166099D01*
X0057167Y0165946D01*
X0057114Y0165794D01*
X0057058Y0165643D01*
X0056997Y0165494D01*
X0056934Y0165346D01*
X0056866Y0165200D01*
X0056795Y0165056D01*
X0056721Y0164914D01*
X0056643Y0164773D01*
X0056561Y0164635D01*
X0056476Y0164498D01*
X0056388Y0164364D01*
X0056296Y0164232D01*
X0056201Y0164102D01*
X0056103Y0163974D01*
X0056002Y0163849D01*
X0055898Y0163727D01*
X0055791Y0163607D01*
X0055681Y0163490D01*
X0055568Y0163375D01*
X0055452Y0163264D01*
X0055333Y0163155D01*
X0055212Y0163050D01*
X0055088Y0162947D01*
X0054962Y0162847D01*
X0054834Y0162751D01*
X0054703Y0162658D01*
X0054569Y0162568D01*
X0054434Y0162481D01*
X0054296Y0162398D01*
X0054157Y0162318D01*
X0054015Y0162242D01*
X0053872Y0162169D01*
X0053727Y0162100D01*
X0053580Y0162034D01*
X0053432Y0161972D01*
X0053282Y0161914D01*
X0053131Y0161859D01*
X0052978Y0161808D01*
X0052824Y0161761D01*
X0052669Y0161718D01*
X0052513Y0161679D01*
X0052357Y0161643D01*
X0052199Y0161612D01*
X0052041Y0161584D01*
X0051882Y0161560D01*
X0051722Y0161540D01*
X0051562Y0161524D01*
X0051402Y0161512D01*
X0051241Y0161504D01*
X0051080Y0161500D01*
X0050920Y0161500D01*
X0050759Y0161504D01*
X0050598Y0161512D01*
X0050438Y0161524D01*
X0050278Y0161540D01*
X0050118Y0161560D01*
X0049959Y0161584D01*
X0049801Y0161612D01*
X0049643Y0161643D01*
X0049487Y0161679D01*
X0049331Y0161718D01*
X0049176Y0161761D01*
X0049022Y0161808D01*
X0048869Y0161859D01*
X0048718Y0161914D01*
X0048568Y0161972D01*
X0048420Y0162034D01*
X0048273Y0162100D01*
X0048128Y0162169D01*
X0047985Y0162242D01*
X0047843Y0162318D01*
X0047704Y0162398D01*
X0047566Y0162481D01*
X0047431Y0162568D01*
X0047297Y0162658D01*
X0047166Y0162751D01*
X0047038Y0162847D01*
X0046912Y0162947D01*
X0046788Y0163050D01*
X0046667Y0163155D01*
X0046548Y0163264D01*
X0046432Y0163375D01*
X0046319Y0163490D01*
X0046209Y0163607D01*
X0046102Y0163727D01*
X0045998Y0163849D01*
X0045897Y0163974D01*
X0045799Y0164102D01*
X0045704Y0164232D01*
X0045612Y0164364D01*
X0045524Y0164498D01*
X0045439Y0164635D01*
X0045357Y0164773D01*
X0045279Y0164914D01*
X0045205Y0165056D01*
X0045134Y0165200D01*
X0045066Y0165346D01*
X0045003Y0165494D01*
X0044942Y0165643D01*
X0044886Y0165794D01*
X0044833Y0165946D01*
X0044784Y0166099D01*
X0044739Y0166253D01*
X0044698Y0166408D01*
X0044660Y0166565D01*
X0044627Y0166722D01*
X0044597Y0166880D01*
X0044571Y0167039D01*
X0044550Y0167198D01*
X0044532Y0167358D01*
X0044518Y0167518D01*
X0044508Y0167679D01*
X0044502Y0167839D01*
X0044500Y0168000D01*
X0089500Y0168000D02*
X0089502Y0168161D01*
X0089508Y0168321D01*
X0089518Y0168482D01*
X0089532Y0168642D01*
X0089550Y0168802D01*
X0089571Y0168961D01*
X0089597Y0169120D01*
X0089627Y0169278D01*
X0089660Y0169435D01*
X0089698Y0169592D01*
X0089739Y0169747D01*
X0089784Y0169901D01*
X0089833Y0170054D01*
X0089886Y0170206D01*
X0089942Y0170357D01*
X0090003Y0170506D01*
X0090066Y0170654D01*
X0090134Y0170800D01*
X0090205Y0170944D01*
X0090279Y0171086D01*
X0090357Y0171227D01*
X0090439Y0171365D01*
X0090524Y0171502D01*
X0090612Y0171636D01*
X0090704Y0171768D01*
X0090799Y0171898D01*
X0090897Y0172026D01*
X0090998Y0172151D01*
X0091102Y0172273D01*
X0091209Y0172393D01*
X0091319Y0172510D01*
X0091432Y0172625D01*
X0091548Y0172736D01*
X0091667Y0172845D01*
X0091788Y0172950D01*
X0091912Y0173053D01*
X0092038Y0173153D01*
X0092166Y0173249D01*
X0092297Y0173342D01*
X0092431Y0173432D01*
X0092566Y0173519D01*
X0092704Y0173602D01*
X0092843Y0173682D01*
X0092985Y0173758D01*
X0093128Y0173831D01*
X0093273Y0173900D01*
X0093420Y0173966D01*
X0093568Y0174028D01*
X0093718Y0174086D01*
X0093869Y0174141D01*
X0094022Y0174192D01*
X0094176Y0174239D01*
X0094331Y0174282D01*
X0094487Y0174321D01*
X0094643Y0174357D01*
X0094801Y0174388D01*
X0094959Y0174416D01*
X0095118Y0174440D01*
X0095278Y0174460D01*
X0095438Y0174476D01*
X0095598Y0174488D01*
X0095759Y0174496D01*
X0095920Y0174500D01*
X0096080Y0174500D01*
X0096241Y0174496D01*
X0096402Y0174488D01*
X0096562Y0174476D01*
X0096722Y0174460D01*
X0096882Y0174440D01*
X0097041Y0174416D01*
X0097199Y0174388D01*
X0097357Y0174357D01*
X0097513Y0174321D01*
X0097669Y0174282D01*
X0097824Y0174239D01*
X0097978Y0174192D01*
X0098131Y0174141D01*
X0098282Y0174086D01*
X0098432Y0174028D01*
X0098580Y0173966D01*
X0098727Y0173900D01*
X0098872Y0173831D01*
X0099015Y0173758D01*
X0099157Y0173682D01*
X0099296Y0173602D01*
X0099434Y0173519D01*
X0099569Y0173432D01*
X0099703Y0173342D01*
X0099834Y0173249D01*
X0099962Y0173153D01*
X0100088Y0173053D01*
X0100212Y0172950D01*
X0100333Y0172845D01*
X0100452Y0172736D01*
X0100568Y0172625D01*
X0100681Y0172510D01*
X0100791Y0172393D01*
X0100898Y0172273D01*
X0101002Y0172151D01*
X0101103Y0172026D01*
X0101201Y0171898D01*
X0101296Y0171768D01*
X0101388Y0171636D01*
X0101476Y0171502D01*
X0101561Y0171365D01*
X0101643Y0171227D01*
X0101721Y0171086D01*
X0101795Y0170944D01*
X0101866Y0170800D01*
X0101934Y0170654D01*
X0101997Y0170506D01*
X0102058Y0170357D01*
X0102114Y0170206D01*
X0102167Y0170054D01*
X0102216Y0169901D01*
X0102261Y0169747D01*
X0102302Y0169592D01*
X0102340Y0169435D01*
X0102373Y0169278D01*
X0102403Y0169120D01*
X0102429Y0168961D01*
X0102450Y0168802D01*
X0102468Y0168642D01*
X0102482Y0168482D01*
X0102492Y0168321D01*
X0102498Y0168161D01*
X0102500Y0168000D01*
X0102498Y0167839D01*
X0102492Y0167679D01*
X0102482Y0167518D01*
X0102468Y0167358D01*
X0102450Y0167198D01*
X0102429Y0167039D01*
X0102403Y0166880D01*
X0102373Y0166722D01*
X0102340Y0166565D01*
X0102302Y0166408D01*
X0102261Y0166253D01*
X0102216Y0166099D01*
X0102167Y0165946D01*
X0102114Y0165794D01*
X0102058Y0165643D01*
X0101997Y0165494D01*
X0101934Y0165346D01*
X0101866Y0165200D01*
X0101795Y0165056D01*
X0101721Y0164914D01*
X0101643Y0164773D01*
X0101561Y0164635D01*
X0101476Y0164498D01*
X0101388Y0164364D01*
X0101296Y0164232D01*
X0101201Y0164102D01*
X0101103Y0163974D01*
X0101002Y0163849D01*
X0100898Y0163727D01*
X0100791Y0163607D01*
X0100681Y0163490D01*
X0100568Y0163375D01*
X0100452Y0163264D01*
X0100333Y0163155D01*
X0100212Y0163050D01*
X0100088Y0162947D01*
X0099962Y0162847D01*
X0099834Y0162751D01*
X0099703Y0162658D01*
X0099569Y0162568D01*
X0099434Y0162481D01*
X0099296Y0162398D01*
X0099157Y0162318D01*
X0099015Y0162242D01*
X0098872Y0162169D01*
X0098727Y0162100D01*
X0098580Y0162034D01*
X0098432Y0161972D01*
X0098282Y0161914D01*
X0098131Y0161859D01*
X0097978Y0161808D01*
X0097824Y0161761D01*
X0097669Y0161718D01*
X0097513Y0161679D01*
X0097357Y0161643D01*
X0097199Y0161612D01*
X0097041Y0161584D01*
X0096882Y0161560D01*
X0096722Y0161540D01*
X0096562Y0161524D01*
X0096402Y0161512D01*
X0096241Y0161504D01*
X0096080Y0161500D01*
X0095920Y0161500D01*
X0095759Y0161504D01*
X0095598Y0161512D01*
X0095438Y0161524D01*
X0095278Y0161540D01*
X0095118Y0161560D01*
X0094959Y0161584D01*
X0094801Y0161612D01*
X0094643Y0161643D01*
X0094487Y0161679D01*
X0094331Y0161718D01*
X0094176Y0161761D01*
X0094022Y0161808D01*
X0093869Y0161859D01*
X0093718Y0161914D01*
X0093568Y0161972D01*
X0093420Y0162034D01*
X0093273Y0162100D01*
X0093128Y0162169D01*
X0092985Y0162242D01*
X0092843Y0162318D01*
X0092704Y0162398D01*
X0092566Y0162481D01*
X0092431Y0162568D01*
X0092297Y0162658D01*
X0092166Y0162751D01*
X0092038Y0162847D01*
X0091912Y0162947D01*
X0091788Y0163050D01*
X0091667Y0163155D01*
X0091548Y0163264D01*
X0091432Y0163375D01*
X0091319Y0163490D01*
X0091209Y0163607D01*
X0091102Y0163727D01*
X0090998Y0163849D01*
X0090897Y0163974D01*
X0090799Y0164102D01*
X0090704Y0164232D01*
X0090612Y0164364D01*
X0090524Y0164498D01*
X0090439Y0164635D01*
X0090357Y0164773D01*
X0090279Y0164914D01*
X0090205Y0165056D01*
X0090134Y0165200D01*
X0090066Y0165346D01*
X0090003Y0165494D01*
X0089942Y0165643D01*
X0089886Y0165794D01*
X0089833Y0165946D01*
X0089784Y0166099D01*
X0089739Y0166253D01*
X0089698Y0166408D01*
X0089660Y0166565D01*
X0089627Y0166722D01*
X0089597Y0166880D01*
X0089571Y0167039D01*
X0089550Y0167198D01*
X0089532Y0167358D01*
X0089518Y0167518D01*
X0089508Y0167679D01*
X0089502Y0167839D01*
X0089500Y0168000D01*
X0134500Y0168000D02*
X0134502Y0168161D01*
X0134508Y0168321D01*
X0134518Y0168482D01*
X0134532Y0168642D01*
X0134550Y0168802D01*
X0134571Y0168961D01*
X0134597Y0169120D01*
X0134627Y0169278D01*
X0134660Y0169435D01*
X0134698Y0169592D01*
X0134739Y0169747D01*
X0134784Y0169901D01*
X0134833Y0170054D01*
X0134886Y0170206D01*
X0134942Y0170357D01*
X0135003Y0170506D01*
X0135066Y0170654D01*
X0135134Y0170800D01*
X0135205Y0170944D01*
X0135279Y0171086D01*
X0135357Y0171227D01*
X0135439Y0171365D01*
X0135524Y0171502D01*
X0135612Y0171636D01*
X0135704Y0171768D01*
X0135799Y0171898D01*
X0135897Y0172026D01*
X0135998Y0172151D01*
X0136102Y0172273D01*
X0136209Y0172393D01*
X0136319Y0172510D01*
X0136432Y0172625D01*
X0136548Y0172736D01*
X0136667Y0172845D01*
X0136788Y0172950D01*
X0136912Y0173053D01*
X0137038Y0173153D01*
X0137166Y0173249D01*
X0137297Y0173342D01*
X0137431Y0173432D01*
X0137566Y0173519D01*
X0137704Y0173602D01*
X0137843Y0173682D01*
X0137985Y0173758D01*
X0138128Y0173831D01*
X0138273Y0173900D01*
X0138420Y0173966D01*
X0138568Y0174028D01*
X0138718Y0174086D01*
X0138869Y0174141D01*
X0139022Y0174192D01*
X0139176Y0174239D01*
X0139331Y0174282D01*
X0139487Y0174321D01*
X0139643Y0174357D01*
X0139801Y0174388D01*
X0139959Y0174416D01*
X0140118Y0174440D01*
X0140278Y0174460D01*
X0140438Y0174476D01*
X0140598Y0174488D01*
X0140759Y0174496D01*
X0140920Y0174500D01*
X0141080Y0174500D01*
X0141241Y0174496D01*
X0141402Y0174488D01*
X0141562Y0174476D01*
X0141722Y0174460D01*
X0141882Y0174440D01*
X0142041Y0174416D01*
X0142199Y0174388D01*
X0142357Y0174357D01*
X0142513Y0174321D01*
X0142669Y0174282D01*
X0142824Y0174239D01*
X0142978Y0174192D01*
X0143131Y0174141D01*
X0143282Y0174086D01*
X0143432Y0174028D01*
X0143580Y0173966D01*
X0143727Y0173900D01*
X0143872Y0173831D01*
X0144015Y0173758D01*
X0144157Y0173682D01*
X0144296Y0173602D01*
X0144434Y0173519D01*
X0144569Y0173432D01*
X0144703Y0173342D01*
X0144834Y0173249D01*
X0144962Y0173153D01*
X0145088Y0173053D01*
X0145212Y0172950D01*
X0145333Y0172845D01*
X0145452Y0172736D01*
X0145568Y0172625D01*
X0145681Y0172510D01*
X0145791Y0172393D01*
X0145898Y0172273D01*
X0146002Y0172151D01*
X0146103Y0172026D01*
X0146201Y0171898D01*
X0146296Y0171768D01*
X0146388Y0171636D01*
X0146476Y0171502D01*
X0146561Y0171365D01*
X0146643Y0171227D01*
X0146721Y0171086D01*
X0146795Y0170944D01*
X0146866Y0170800D01*
X0146934Y0170654D01*
X0146997Y0170506D01*
X0147058Y0170357D01*
X0147114Y0170206D01*
X0147167Y0170054D01*
X0147216Y0169901D01*
X0147261Y0169747D01*
X0147302Y0169592D01*
X0147340Y0169435D01*
X0147373Y0169278D01*
X0147403Y0169120D01*
X0147429Y0168961D01*
X0147450Y0168802D01*
X0147468Y0168642D01*
X0147482Y0168482D01*
X0147492Y0168321D01*
X0147498Y0168161D01*
X0147500Y0168000D01*
X0147498Y0167839D01*
X0147492Y0167679D01*
X0147482Y0167518D01*
X0147468Y0167358D01*
X0147450Y0167198D01*
X0147429Y0167039D01*
X0147403Y0166880D01*
X0147373Y0166722D01*
X0147340Y0166565D01*
X0147302Y0166408D01*
X0147261Y0166253D01*
X0147216Y0166099D01*
X0147167Y0165946D01*
X0147114Y0165794D01*
X0147058Y0165643D01*
X0146997Y0165494D01*
X0146934Y0165346D01*
X0146866Y0165200D01*
X0146795Y0165056D01*
X0146721Y0164914D01*
X0146643Y0164773D01*
X0146561Y0164635D01*
X0146476Y0164498D01*
X0146388Y0164364D01*
X0146296Y0164232D01*
X0146201Y0164102D01*
X0146103Y0163974D01*
X0146002Y0163849D01*
X0145898Y0163727D01*
X0145791Y0163607D01*
X0145681Y0163490D01*
X0145568Y0163375D01*
X0145452Y0163264D01*
X0145333Y0163155D01*
X0145212Y0163050D01*
X0145088Y0162947D01*
X0144962Y0162847D01*
X0144834Y0162751D01*
X0144703Y0162658D01*
X0144569Y0162568D01*
X0144434Y0162481D01*
X0144296Y0162398D01*
X0144157Y0162318D01*
X0144015Y0162242D01*
X0143872Y0162169D01*
X0143727Y0162100D01*
X0143580Y0162034D01*
X0143432Y0161972D01*
X0143282Y0161914D01*
X0143131Y0161859D01*
X0142978Y0161808D01*
X0142824Y0161761D01*
X0142669Y0161718D01*
X0142513Y0161679D01*
X0142357Y0161643D01*
X0142199Y0161612D01*
X0142041Y0161584D01*
X0141882Y0161560D01*
X0141722Y0161540D01*
X0141562Y0161524D01*
X0141402Y0161512D01*
X0141241Y0161504D01*
X0141080Y0161500D01*
X0140920Y0161500D01*
X0140759Y0161504D01*
X0140598Y0161512D01*
X0140438Y0161524D01*
X0140278Y0161540D01*
X0140118Y0161560D01*
X0139959Y0161584D01*
X0139801Y0161612D01*
X0139643Y0161643D01*
X0139487Y0161679D01*
X0139331Y0161718D01*
X0139176Y0161761D01*
X0139022Y0161808D01*
X0138869Y0161859D01*
X0138718Y0161914D01*
X0138568Y0161972D01*
X0138420Y0162034D01*
X0138273Y0162100D01*
X0138128Y0162169D01*
X0137985Y0162242D01*
X0137843Y0162318D01*
X0137704Y0162398D01*
X0137566Y0162481D01*
X0137431Y0162568D01*
X0137297Y0162658D01*
X0137166Y0162751D01*
X0137038Y0162847D01*
X0136912Y0162947D01*
X0136788Y0163050D01*
X0136667Y0163155D01*
X0136548Y0163264D01*
X0136432Y0163375D01*
X0136319Y0163490D01*
X0136209Y0163607D01*
X0136102Y0163727D01*
X0135998Y0163849D01*
X0135897Y0163974D01*
X0135799Y0164102D01*
X0135704Y0164232D01*
X0135612Y0164364D01*
X0135524Y0164498D01*
X0135439Y0164635D01*
X0135357Y0164773D01*
X0135279Y0164914D01*
X0135205Y0165056D01*
X0135134Y0165200D01*
X0135066Y0165346D01*
X0135003Y0165494D01*
X0134942Y0165643D01*
X0134886Y0165794D01*
X0134833Y0165946D01*
X0134784Y0166099D01*
X0134739Y0166253D01*
X0134698Y0166408D01*
X0134660Y0166565D01*
X0134627Y0166722D01*
X0134597Y0166880D01*
X0134571Y0167039D01*
X0134550Y0167198D01*
X0134532Y0167358D01*
X0134518Y0167518D01*
X0134508Y0167679D01*
X0134502Y0167839D01*
X0134500Y0168000D01*
X0179500Y0168000D02*
X0179502Y0168161D01*
X0179508Y0168321D01*
X0179518Y0168482D01*
X0179532Y0168642D01*
X0179550Y0168802D01*
X0179571Y0168961D01*
X0179597Y0169120D01*
X0179627Y0169278D01*
X0179660Y0169435D01*
X0179698Y0169592D01*
X0179739Y0169747D01*
X0179784Y0169901D01*
X0179833Y0170054D01*
X0179886Y0170206D01*
X0179942Y0170357D01*
X0180003Y0170506D01*
X0180066Y0170654D01*
X0180134Y0170800D01*
X0180205Y0170944D01*
X0180279Y0171086D01*
X0180357Y0171227D01*
X0180439Y0171365D01*
X0180524Y0171502D01*
X0180612Y0171636D01*
X0180704Y0171768D01*
X0180799Y0171898D01*
X0180897Y0172026D01*
X0180998Y0172151D01*
X0181102Y0172273D01*
X0181209Y0172393D01*
X0181319Y0172510D01*
X0181432Y0172625D01*
X0181548Y0172736D01*
X0181667Y0172845D01*
X0181788Y0172950D01*
X0181912Y0173053D01*
X0182038Y0173153D01*
X0182166Y0173249D01*
X0182297Y0173342D01*
X0182431Y0173432D01*
X0182566Y0173519D01*
X0182704Y0173602D01*
X0182843Y0173682D01*
X0182985Y0173758D01*
X0183128Y0173831D01*
X0183273Y0173900D01*
X0183420Y0173966D01*
X0183568Y0174028D01*
X0183718Y0174086D01*
X0183869Y0174141D01*
X0184022Y0174192D01*
X0184176Y0174239D01*
X0184331Y0174282D01*
X0184487Y0174321D01*
X0184643Y0174357D01*
X0184801Y0174388D01*
X0184959Y0174416D01*
X0185118Y0174440D01*
X0185278Y0174460D01*
X0185438Y0174476D01*
X0185598Y0174488D01*
X0185759Y0174496D01*
X0185920Y0174500D01*
X0186080Y0174500D01*
X0186241Y0174496D01*
X0186402Y0174488D01*
X0186562Y0174476D01*
X0186722Y0174460D01*
X0186882Y0174440D01*
X0187041Y0174416D01*
X0187199Y0174388D01*
X0187357Y0174357D01*
X0187513Y0174321D01*
X0187669Y0174282D01*
X0187824Y0174239D01*
X0187978Y0174192D01*
X0188131Y0174141D01*
X0188282Y0174086D01*
X0188432Y0174028D01*
X0188580Y0173966D01*
X0188727Y0173900D01*
X0188872Y0173831D01*
X0189015Y0173758D01*
X0189157Y0173682D01*
X0189296Y0173602D01*
X0189434Y0173519D01*
X0189569Y0173432D01*
X0189703Y0173342D01*
X0189834Y0173249D01*
X0189962Y0173153D01*
X0190088Y0173053D01*
X0190212Y0172950D01*
X0190333Y0172845D01*
X0190452Y0172736D01*
X0190568Y0172625D01*
X0190681Y0172510D01*
X0190791Y0172393D01*
X0190898Y0172273D01*
X0191002Y0172151D01*
X0191103Y0172026D01*
X0191201Y0171898D01*
X0191296Y0171768D01*
X0191388Y0171636D01*
X0191476Y0171502D01*
X0191561Y0171365D01*
X0191643Y0171227D01*
X0191721Y0171086D01*
X0191795Y0170944D01*
X0191866Y0170800D01*
X0191934Y0170654D01*
X0191997Y0170506D01*
X0192058Y0170357D01*
X0192114Y0170206D01*
X0192167Y0170054D01*
X0192216Y0169901D01*
X0192261Y0169747D01*
X0192302Y0169592D01*
X0192340Y0169435D01*
X0192373Y0169278D01*
X0192403Y0169120D01*
X0192429Y0168961D01*
X0192450Y0168802D01*
X0192468Y0168642D01*
X0192482Y0168482D01*
X0192492Y0168321D01*
X0192498Y0168161D01*
X0192500Y0168000D01*
X0192498Y0167839D01*
X0192492Y0167679D01*
X0192482Y0167518D01*
X0192468Y0167358D01*
X0192450Y0167198D01*
X0192429Y0167039D01*
X0192403Y0166880D01*
X0192373Y0166722D01*
X0192340Y0166565D01*
X0192302Y0166408D01*
X0192261Y0166253D01*
X0192216Y0166099D01*
X0192167Y0165946D01*
X0192114Y0165794D01*
X0192058Y0165643D01*
X0191997Y0165494D01*
X0191934Y0165346D01*
X0191866Y0165200D01*
X0191795Y0165056D01*
X0191721Y0164914D01*
X0191643Y0164773D01*
X0191561Y0164635D01*
X0191476Y0164498D01*
X0191388Y0164364D01*
X0191296Y0164232D01*
X0191201Y0164102D01*
X0191103Y0163974D01*
X0191002Y0163849D01*
X0190898Y0163727D01*
X0190791Y0163607D01*
X0190681Y0163490D01*
X0190568Y0163375D01*
X0190452Y0163264D01*
X0190333Y0163155D01*
X0190212Y0163050D01*
X0190088Y0162947D01*
X0189962Y0162847D01*
X0189834Y0162751D01*
X0189703Y0162658D01*
X0189569Y0162568D01*
X0189434Y0162481D01*
X0189296Y0162398D01*
X0189157Y0162318D01*
X0189015Y0162242D01*
X0188872Y0162169D01*
X0188727Y0162100D01*
X0188580Y0162034D01*
X0188432Y0161972D01*
X0188282Y0161914D01*
X0188131Y0161859D01*
X0187978Y0161808D01*
X0187824Y0161761D01*
X0187669Y0161718D01*
X0187513Y0161679D01*
X0187357Y0161643D01*
X0187199Y0161612D01*
X0187041Y0161584D01*
X0186882Y0161560D01*
X0186722Y0161540D01*
X0186562Y0161524D01*
X0186402Y0161512D01*
X0186241Y0161504D01*
X0186080Y0161500D01*
X0185920Y0161500D01*
X0185759Y0161504D01*
X0185598Y0161512D01*
X0185438Y0161524D01*
X0185278Y0161540D01*
X0185118Y0161560D01*
X0184959Y0161584D01*
X0184801Y0161612D01*
X0184643Y0161643D01*
X0184487Y0161679D01*
X0184331Y0161718D01*
X0184176Y0161761D01*
X0184022Y0161808D01*
X0183869Y0161859D01*
X0183718Y0161914D01*
X0183568Y0161972D01*
X0183420Y0162034D01*
X0183273Y0162100D01*
X0183128Y0162169D01*
X0182985Y0162242D01*
X0182843Y0162318D01*
X0182704Y0162398D01*
X0182566Y0162481D01*
X0182431Y0162568D01*
X0182297Y0162658D01*
X0182166Y0162751D01*
X0182038Y0162847D01*
X0181912Y0162947D01*
X0181788Y0163050D01*
X0181667Y0163155D01*
X0181548Y0163264D01*
X0181432Y0163375D01*
X0181319Y0163490D01*
X0181209Y0163607D01*
X0181102Y0163727D01*
X0180998Y0163849D01*
X0180897Y0163974D01*
X0180799Y0164102D01*
X0180704Y0164232D01*
X0180612Y0164364D01*
X0180524Y0164498D01*
X0180439Y0164635D01*
X0180357Y0164773D01*
X0180279Y0164914D01*
X0180205Y0165056D01*
X0180134Y0165200D01*
X0180066Y0165346D01*
X0180003Y0165494D01*
X0179942Y0165643D01*
X0179886Y0165794D01*
X0179833Y0165946D01*
X0179784Y0166099D01*
X0179739Y0166253D01*
X0179698Y0166408D01*
X0179660Y0166565D01*
X0179627Y0166722D01*
X0179597Y0166880D01*
X0179571Y0167039D01*
X0179550Y0167198D01*
X0179532Y0167358D01*
X0179518Y0167518D01*
X0179508Y0167679D01*
X0179502Y0167839D01*
X0179500Y0168000D01*
X0227500Y0179000D02*
X0227502Y0179118D01*
X0227508Y0179236D01*
X0227518Y0179354D01*
X0227532Y0179471D01*
X0227550Y0179588D01*
X0227572Y0179705D01*
X0227597Y0179820D01*
X0227627Y0179934D01*
X0227661Y0180048D01*
X0227698Y0180160D01*
X0227739Y0180271D01*
X0227784Y0180380D01*
X0227832Y0180488D01*
X0227884Y0180594D01*
X0227940Y0180699D01*
X0227999Y0180801D01*
X0228061Y0180901D01*
X0228127Y0180999D01*
X0228196Y0181095D01*
X0228269Y0181189D01*
X0228344Y0181280D01*
X0228423Y0181368D01*
X0228504Y0181454D01*
X0228589Y0181537D01*
X0228676Y0181617D01*
X0228765Y0181694D01*
X0228858Y0181768D01*
X0228952Y0181838D01*
X0229049Y0181906D01*
X0229149Y0181970D01*
X0229250Y0182031D01*
X0229353Y0182088D01*
X0229459Y0182142D01*
X0229566Y0182193D01*
X0229674Y0182239D01*
X0229784Y0182282D01*
X0229896Y0182321D01*
X0230009Y0182357D01*
X0230123Y0182388D01*
X0230238Y0182416D01*
X0230353Y0182440D01*
X0230470Y0182460D01*
X0230587Y0182476D01*
X0230705Y0182488D01*
X0230823Y0182496D01*
X0230941Y0182500D01*
X0231059Y0182500D01*
X0231177Y0182496D01*
X0231295Y0182488D01*
X0231413Y0182476D01*
X0231530Y0182460D01*
X0231647Y0182440D01*
X0231762Y0182416D01*
X0231877Y0182388D01*
X0231991Y0182357D01*
X0232104Y0182321D01*
X0232216Y0182282D01*
X0232326Y0182239D01*
X0232434Y0182193D01*
X0232541Y0182142D01*
X0232647Y0182088D01*
X0232750Y0182031D01*
X0232851Y0181970D01*
X0232951Y0181906D01*
X0233048Y0181838D01*
X0233142Y0181768D01*
X0233235Y0181694D01*
X0233324Y0181617D01*
X0233411Y0181537D01*
X0233496Y0181454D01*
X0233577Y0181368D01*
X0233656Y0181280D01*
X0233731Y0181189D01*
X0233804Y0181095D01*
X0233873Y0180999D01*
X0233939Y0180901D01*
X0234001Y0180801D01*
X0234060Y0180699D01*
X0234116Y0180594D01*
X0234168Y0180488D01*
X0234216Y0180380D01*
X0234261Y0180271D01*
X0234302Y0180160D01*
X0234339Y0180048D01*
X0234373Y0179934D01*
X0234403Y0179820D01*
X0234428Y0179705D01*
X0234450Y0179588D01*
X0234468Y0179471D01*
X0234482Y0179354D01*
X0234492Y0179236D01*
X0234498Y0179118D01*
X0234500Y0179000D01*
X0234498Y0178882D01*
X0234492Y0178764D01*
X0234482Y0178646D01*
X0234468Y0178529D01*
X0234450Y0178412D01*
X0234428Y0178295D01*
X0234403Y0178180D01*
X0234373Y0178066D01*
X0234339Y0177952D01*
X0234302Y0177840D01*
X0234261Y0177729D01*
X0234216Y0177620D01*
X0234168Y0177512D01*
X0234116Y0177406D01*
X0234060Y0177301D01*
X0234001Y0177199D01*
X0233939Y0177099D01*
X0233873Y0177001D01*
X0233804Y0176905D01*
X0233731Y0176811D01*
X0233656Y0176720D01*
X0233577Y0176632D01*
X0233496Y0176546D01*
X0233411Y0176463D01*
X0233324Y0176383D01*
X0233235Y0176306D01*
X0233142Y0176232D01*
X0233048Y0176162D01*
X0232951Y0176094D01*
X0232851Y0176030D01*
X0232750Y0175969D01*
X0232647Y0175912D01*
X0232541Y0175858D01*
X0232434Y0175807D01*
X0232326Y0175761D01*
X0232216Y0175718D01*
X0232104Y0175679D01*
X0231991Y0175643D01*
X0231877Y0175612D01*
X0231762Y0175584D01*
X0231647Y0175560D01*
X0231530Y0175540D01*
X0231413Y0175524D01*
X0231295Y0175512D01*
X0231177Y0175504D01*
X0231059Y0175500D01*
X0230941Y0175500D01*
X0230823Y0175504D01*
X0230705Y0175512D01*
X0230587Y0175524D01*
X0230470Y0175540D01*
X0230353Y0175560D01*
X0230238Y0175584D01*
X0230123Y0175612D01*
X0230009Y0175643D01*
X0229896Y0175679D01*
X0229784Y0175718D01*
X0229674Y0175761D01*
X0229566Y0175807D01*
X0229459Y0175858D01*
X0229353Y0175912D01*
X0229250Y0175969D01*
X0229149Y0176030D01*
X0229049Y0176094D01*
X0228952Y0176162D01*
X0228858Y0176232D01*
X0228765Y0176306D01*
X0228676Y0176383D01*
X0228589Y0176463D01*
X0228504Y0176546D01*
X0228423Y0176632D01*
X0228344Y0176720D01*
X0228269Y0176811D01*
X0228196Y0176905D01*
X0228127Y0177001D01*
X0228061Y0177099D01*
X0227999Y0177199D01*
X0227940Y0177301D01*
X0227884Y0177406D01*
X0227832Y0177512D01*
X0227784Y0177620D01*
X0227739Y0177729D01*
X0227698Y0177840D01*
X0227661Y0177952D01*
X0227627Y0178066D01*
X0227597Y0178180D01*
X0227572Y0178295D01*
X0227550Y0178412D01*
X0227532Y0178529D01*
X0227518Y0178646D01*
X0227508Y0178764D01*
X0227502Y0178882D01*
X0227500Y0179000D01*
X0248150Y0207500D02*
X0248152Y0207619D01*
X0248158Y0207737D01*
X0248168Y0207855D01*
X0248182Y0207973D01*
X0248199Y0208090D01*
X0248221Y0208207D01*
X0248247Y0208323D01*
X0248276Y0208438D01*
X0248309Y0208552D01*
X0248346Y0208664D01*
X0248387Y0208776D01*
X0248432Y0208886D01*
X0248480Y0208994D01*
X0248532Y0209101D01*
X0248587Y0209206D01*
X0248646Y0209309D01*
X0248708Y0209410D01*
X0248773Y0209509D01*
X0248842Y0209606D01*
X0248914Y0209700D01*
X0248989Y0209792D01*
X0249067Y0209881D01*
X0249148Y0209968D01*
X0249232Y0210052D01*
X0249319Y0210133D01*
X0249408Y0210211D01*
X0249500Y0210286D01*
X0249594Y0210358D01*
X0249691Y0210427D01*
X0249790Y0210492D01*
X0249891Y0210554D01*
X0249994Y0210613D01*
X0250099Y0210668D01*
X0250206Y0210720D01*
X0250314Y0210768D01*
X0250424Y0210813D01*
X0250536Y0210854D01*
X0250648Y0210891D01*
X0250762Y0210924D01*
X0250877Y0210953D01*
X0250993Y0210979D01*
X0251110Y0211001D01*
X0251227Y0211018D01*
X0251345Y0211032D01*
X0251463Y0211042D01*
X0251581Y0211048D01*
X0251700Y0211050D01*
X0251819Y0211048D01*
X0251937Y0211042D01*
X0252055Y0211032D01*
X0252173Y0211018D01*
X0252290Y0211001D01*
X0252407Y0210979D01*
X0252523Y0210953D01*
X0252638Y0210924D01*
X0252752Y0210891D01*
X0252864Y0210854D01*
X0252976Y0210813D01*
X0253086Y0210768D01*
X0253194Y0210720D01*
X0253301Y0210668D01*
X0253406Y0210613D01*
X0253509Y0210554D01*
X0253610Y0210492D01*
X0253709Y0210427D01*
X0253806Y0210358D01*
X0253900Y0210286D01*
X0253992Y0210211D01*
X0254081Y0210133D01*
X0254168Y0210052D01*
X0254252Y0209968D01*
X0254333Y0209881D01*
X0254411Y0209792D01*
X0254486Y0209700D01*
X0254558Y0209606D01*
X0254627Y0209509D01*
X0254692Y0209410D01*
X0254754Y0209309D01*
X0254813Y0209206D01*
X0254868Y0209101D01*
X0254920Y0208994D01*
X0254968Y0208886D01*
X0255013Y0208776D01*
X0255054Y0208664D01*
X0255091Y0208552D01*
X0255124Y0208438D01*
X0255153Y0208323D01*
X0255179Y0208207D01*
X0255201Y0208090D01*
X0255218Y0207973D01*
X0255232Y0207855D01*
X0255242Y0207737D01*
X0255248Y0207619D01*
X0255250Y0207500D01*
X0255248Y0207381D01*
X0255242Y0207263D01*
X0255232Y0207145D01*
X0255218Y0207027D01*
X0255201Y0206910D01*
X0255179Y0206793D01*
X0255153Y0206677D01*
X0255124Y0206562D01*
X0255091Y0206448D01*
X0255054Y0206336D01*
X0255013Y0206224D01*
X0254968Y0206114D01*
X0254920Y0206006D01*
X0254868Y0205899D01*
X0254813Y0205794D01*
X0254754Y0205691D01*
X0254692Y0205590D01*
X0254627Y0205491D01*
X0254558Y0205394D01*
X0254486Y0205300D01*
X0254411Y0205208D01*
X0254333Y0205119D01*
X0254252Y0205032D01*
X0254168Y0204948D01*
X0254081Y0204867D01*
X0253992Y0204789D01*
X0253900Y0204714D01*
X0253806Y0204642D01*
X0253709Y0204573D01*
X0253610Y0204508D01*
X0253509Y0204446D01*
X0253406Y0204387D01*
X0253301Y0204332D01*
X0253194Y0204280D01*
X0253086Y0204232D01*
X0252976Y0204187D01*
X0252864Y0204146D01*
X0252752Y0204109D01*
X0252638Y0204076D01*
X0252523Y0204047D01*
X0252407Y0204021D01*
X0252290Y0203999D01*
X0252173Y0203982D01*
X0252055Y0203968D01*
X0251937Y0203958D01*
X0251819Y0203952D01*
X0251700Y0203950D01*
X0251581Y0203952D01*
X0251463Y0203958D01*
X0251345Y0203968D01*
X0251227Y0203982D01*
X0251110Y0203999D01*
X0250993Y0204021D01*
X0250877Y0204047D01*
X0250762Y0204076D01*
X0250648Y0204109D01*
X0250536Y0204146D01*
X0250424Y0204187D01*
X0250314Y0204232D01*
X0250206Y0204280D01*
X0250099Y0204332D01*
X0249994Y0204387D01*
X0249891Y0204446D01*
X0249790Y0204508D01*
X0249691Y0204573D01*
X0249594Y0204642D01*
X0249500Y0204714D01*
X0249408Y0204789D01*
X0249319Y0204867D01*
X0249232Y0204948D01*
X0249148Y0205032D01*
X0249067Y0205119D01*
X0248989Y0205208D01*
X0248914Y0205300D01*
X0248842Y0205394D01*
X0248773Y0205491D01*
X0248708Y0205590D01*
X0248646Y0205691D01*
X0248587Y0205794D01*
X0248532Y0205899D01*
X0248480Y0206006D01*
X0248432Y0206114D01*
X0248387Y0206224D01*
X0248346Y0206336D01*
X0248309Y0206448D01*
X0248276Y0206562D01*
X0248247Y0206677D01*
X0248221Y0206793D01*
X0248199Y0206910D01*
X0248182Y0207027D01*
X0248168Y0207145D01*
X0248158Y0207263D01*
X0248152Y0207381D01*
X0248150Y0207500D01*
X0248150Y0242900D02*
X0248152Y0243019D01*
X0248158Y0243137D01*
X0248168Y0243255D01*
X0248182Y0243373D01*
X0248199Y0243490D01*
X0248221Y0243607D01*
X0248247Y0243723D01*
X0248276Y0243838D01*
X0248309Y0243952D01*
X0248346Y0244064D01*
X0248387Y0244176D01*
X0248432Y0244286D01*
X0248480Y0244394D01*
X0248532Y0244501D01*
X0248587Y0244606D01*
X0248646Y0244709D01*
X0248708Y0244810D01*
X0248773Y0244909D01*
X0248842Y0245006D01*
X0248914Y0245100D01*
X0248989Y0245192D01*
X0249067Y0245281D01*
X0249148Y0245368D01*
X0249232Y0245452D01*
X0249319Y0245533D01*
X0249408Y0245611D01*
X0249500Y0245686D01*
X0249594Y0245758D01*
X0249691Y0245827D01*
X0249790Y0245892D01*
X0249891Y0245954D01*
X0249994Y0246013D01*
X0250099Y0246068D01*
X0250206Y0246120D01*
X0250314Y0246168D01*
X0250424Y0246213D01*
X0250536Y0246254D01*
X0250648Y0246291D01*
X0250762Y0246324D01*
X0250877Y0246353D01*
X0250993Y0246379D01*
X0251110Y0246401D01*
X0251227Y0246418D01*
X0251345Y0246432D01*
X0251463Y0246442D01*
X0251581Y0246448D01*
X0251700Y0246450D01*
X0251819Y0246448D01*
X0251937Y0246442D01*
X0252055Y0246432D01*
X0252173Y0246418D01*
X0252290Y0246401D01*
X0252407Y0246379D01*
X0252523Y0246353D01*
X0252638Y0246324D01*
X0252752Y0246291D01*
X0252864Y0246254D01*
X0252976Y0246213D01*
X0253086Y0246168D01*
X0253194Y0246120D01*
X0253301Y0246068D01*
X0253406Y0246013D01*
X0253509Y0245954D01*
X0253610Y0245892D01*
X0253709Y0245827D01*
X0253806Y0245758D01*
X0253900Y0245686D01*
X0253992Y0245611D01*
X0254081Y0245533D01*
X0254168Y0245452D01*
X0254252Y0245368D01*
X0254333Y0245281D01*
X0254411Y0245192D01*
X0254486Y0245100D01*
X0254558Y0245006D01*
X0254627Y0244909D01*
X0254692Y0244810D01*
X0254754Y0244709D01*
X0254813Y0244606D01*
X0254868Y0244501D01*
X0254920Y0244394D01*
X0254968Y0244286D01*
X0255013Y0244176D01*
X0255054Y0244064D01*
X0255091Y0243952D01*
X0255124Y0243838D01*
X0255153Y0243723D01*
X0255179Y0243607D01*
X0255201Y0243490D01*
X0255218Y0243373D01*
X0255232Y0243255D01*
X0255242Y0243137D01*
X0255248Y0243019D01*
X0255250Y0242900D01*
X0255248Y0242781D01*
X0255242Y0242663D01*
X0255232Y0242545D01*
X0255218Y0242427D01*
X0255201Y0242310D01*
X0255179Y0242193D01*
X0255153Y0242077D01*
X0255124Y0241962D01*
X0255091Y0241848D01*
X0255054Y0241736D01*
X0255013Y0241624D01*
X0254968Y0241514D01*
X0254920Y0241406D01*
X0254868Y0241299D01*
X0254813Y0241194D01*
X0254754Y0241091D01*
X0254692Y0240990D01*
X0254627Y0240891D01*
X0254558Y0240794D01*
X0254486Y0240700D01*
X0254411Y0240608D01*
X0254333Y0240519D01*
X0254252Y0240432D01*
X0254168Y0240348D01*
X0254081Y0240267D01*
X0253992Y0240189D01*
X0253900Y0240114D01*
X0253806Y0240042D01*
X0253709Y0239973D01*
X0253610Y0239908D01*
X0253509Y0239846D01*
X0253406Y0239787D01*
X0253301Y0239732D01*
X0253194Y0239680D01*
X0253086Y0239632D01*
X0252976Y0239587D01*
X0252864Y0239546D01*
X0252752Y0239509D01*
X0252638Y0239476D01*
X0252523Y0239447D01*
X0252407Y0239421D01*
X0252290Y0239399D01*
X0252173Y0239382D01*
X0252055Y0239368D01*
X0251937Y0239358D01*
X0251819Y0239352D01*
X0251700Y0239350D01*
X0251581Y0239352D01*
X0251463Y0239358D01*
X0251345Y0239368D01*
X0251227Y0239382D01*
X0251110Y0239399D01*
X0250993Y0239421D01*
X0250877Y0239447D01*
X0250762Y0239476D01*
X0250648Y0239509D01*
X0250536Y0239546D01*
X0250424Y0239587D01*
X0250314Y0239632D01*
X0250206Y0239680D01*
X0250099Y0239732D01*
X0249994Y0239787D01*
X0249891Y0239846D01*
X0249790Y0239908D01*
X0249691Y0239973D01*
X0249594Y0240042D01*
X0249500Y0240114D01*
X0249408Y0240189D01*
X0249319Y0240267D01*
X0249232Y0240348D01*
X0249148Y0240432D01*
X0249067Y0240519D01*
X0248989Y0240608D01*
X0248914Y0240700D01*
X0248842Y0240794D01*
X0248773Y0240891D01*
X0248708Y0240990D01*
X0248646Y0241091D01*
X0248587Y0241194D01*
X0248532Y0241299D01*
X0248480Y0241406D01*
X0248432Y0241514D01*
X0248387Y0241624D01*
X0248346Y0241736D01*
X0248309Y0241848D01*
X0248276Y0241962D01*
X0248247Y0242077D01*
X0248221Y0242193D01*
X0248199Y0242310D01*
X0248182Y0242427D01*
X0248168Y0242545D01*
X0248158Y0242663D01*
X0248152Y0242781D01*
X0248150Y0242900D01*
X0287500Y0179000D02*
X0287502Y0179118D01*
X0287508Y0179236D01*
X0287518Y0179354D01*
X0287532Y0179471D01*
X0287550Y0179588D01*
X0287572Y0179705D01*
X0287597Y0179820D01*
X0287627Y0179934D01*
X0287661Y0180048D01*
X0287698Y0180160D01*
X0287739Y0180271D01*
X0287784Y0180380D01*
X0287832Y0180488D01*
X0287884Y0180594D01*
X0287940Y0180699D01*
X0287999Y0180801D01*
X0288061Y0180901D01*
X0288127Y0180999D01*
X0288196Y0181095D01*
X0288269Y0181189D01*
X0288344Y0181280D01*
X0288423Y0181368D01*
X0288504Y0181454D01*
X0288589Y0181537D01*
X0288676Y0181617D01*
X0288765Y0181694D01*
X0288858Y0181768D01*
X0288952Y0181838D01*
X0289049Y0181906D01*
X0289149Y0181970D01*
X0289250Y0182031D01*
X0289353Y0182088D01*
X0289459Y0182142D01*
X0289566Y0182193D01*
X0289674Y0182239D01*
X0289784Y0182282D01*
X0289896Y0182321D01*
X0290009Y0182357D01*
X0290123Y0182388D01*
X0290238Y0182416D01*
X0290353Y0182440D01*
X0290470Y0182460D01*
X0290587Y0182476D01*
X0290705Y0182488D01*
X0290823Y0182496D01*
X0290941Y0182500D01*
X0291059Y0182500D01*
X0291177Y0182496D01*
X0291295Y0182488D01*
X0291413Y0182476D01*
X0291530Y0182460D01*
X0291647Y0182440D01*
X0291762Y0182416D01*
X0291877Y0182388D01*
X0291991Y0182357D01*
X0292104Y0182321D01*
X0292216Y0182282D01*
X0292326Y0182239D01*
X0292434Y0182193D01*
X0292541Y0182142D01*
X0292647Y0182088D01*
X0292750Y0182031D01*
X0292851Y0181970D01*
X0292951Y0181906D01*
X0293048Y0181838D01*
X0293142Y0181768D01*
X0293235Y0181694D01*
X0293324Y0181617D01*
X0293411Y0181537D01*
X0293496Y0181454D01*
X0293577Y0181368D01*
X0293656Y0181280D01*
X0293731Y0181189D01*
X0293804Y0181095D01*
X0293873Y0180999D01*
X0293939Y0180901D01*
X0294001Y0180801D01*
X0294060Y0180699D01*
X0294116Y0180594D01*
X0294168Y0180488D01*
X0294216Y0180380D01*
X0294261Y0180271D01*
X0294302Y0180160D01*
X0294339Y0180048D01*
X0294373Y0179934D01*
X0294403Y0179820D01*
X0294428Y0179705D01*
X0294450Y0179588D01*
X0294468Y0179471D01*
X0294482Y0179354D01*
X0294492Y0179236D01*
X0294498Y0179118D01*
X0294500Y0179000D01*
X0294498Y0178882D01*
X0294492Y0178764D01*
X0294482Y0178646D01*
X0294468Y0178529D01*
X0294450Y0178412D01*
X0294428Y0178295D01*
X0294403Y0178180D01*
X0294373Y0178066D01*
X0294339Y0177952D01*
X0294302Y0177840D01*
X0294261Y0177729D01*
X0294216Y0177620D01*
X0294168Y0177512D01*
X0294116Y0177406D01*
X0294060Y0177301D01*
X0294001Y0177199D01*
X0293939Y0177099D01*
X0293873Y0177001D01*
X0293804Y0176905D01*
X0293731Y0176811D01*
X0293656Y0176720D01*
X0293577Y0176632D01*
X0293496Y0176546D01*
X0293411Y0176463D01*
X0293324Y0176383D01*
X0293235Y0176306D01*
X0293142Y0176232D01*
X0293048Y0176162D01*
X0292951Y0176094D01*
X0292851Y0176030D01*
X0292750Y0175969D01*
X0292647Y0175912D01*
X0292541Y0175858D01*
X0292434Y0175807D01*
X0292326Y0175761D01*
X0292216Y0175718D01*
X0292104Y0175679D01*
X0291991Y0175643D01*
X0291877Y0175612D01*
X0291762Y0175584D01*
X0291647Y0175560D01*
X0291530Y0175540D01*
X0291413Y0175524D01*
X0291295Y0175512D01*
X0291177Y0175504D01*
X0291059Y0175500D01*
X0290941Y0175500D01*
X0290823Y0175504D01*
X0290705Y0175512D01*
X0290587Y0175524D01*
X0290470Y0175540D01*
X0290353Y0175560D01*
X0290238Y0175584D01*
X0290123Y0175612D01*
X0290009Y0175643D01*
X0289896Y0175679D01*
X0289784Y0175718D01*
X0289674Y0175761D01*
X0289566Y0175807D01*
X0289459Y0175858D01*
X0289353Y0175912D01*
X0289250Y0175969D01*
X0289149Y0176030D01*
X0289049Y0176094D01*
X0288952Y0176162D01*
X0288858Y0176232D01*
X0288765Y0176306D01*
X0288676Y0176383D01*
X0288589Y0176463D01*
X0288504Y0176546D01*
X0288423Y0176632D01*
X0288344Y0176720D01*
X0288269Y0176811D01*
X0288196Y0176905D01*
X0288127Y0177001D01*
X0288061Y0177099D01*
X0287999Y0177199D01*
X0287940Y0177301D01*
X0287884Y0177406D01*
X0287832Y0177512D01*
X0287784Y0177620D01*
X0287739Y0177729D01*
X0287698Y0177840D01*
X0287661Y0177952D01*
X0287627Y0178066D01*
X0287597Y0178180D01*
X0287572Y0178295D01*
X0287550Y0178412D01*
X0287532Y0178529D01*
X0287518Y0178646D01*
X0287508Y0178764D01*
X0287502Y0178882D01*
X0287500Y0179000D01*
X0314201Y0333700D02*
X0314203Y0333858D01*
X0314209Y0334016D01*
X0314219Y0334174D01*
X0314233Y0334332D01*
X0314251Y0334489D01*
X0314272Y0334646D01*
X0314298Y0334802D01*
X0314328Y0334958D01*
X0314361Y0335113D01*
X0314399Y0335266D01*
X0314440Y0335419D01*
X0314485Y0335571D01*
X0314534Y0335722D01*
X0314587Y0335871D01*
X0314643Y0336019D01*
X0314703Y0336165D01*
X0314767Y0336310D01*
X0314835Y0336453D01*
X0314906Y0336595D01*
X0314980Y0336735D01*
X0315058Y0336872D01*
X0315140Y0337008D01*
X0315224Y0337142D01*
X0315313Y0337273D01*
X0315404Y0337402D01*
X0315499Y0337529D01*
X0315596Y0337654D01*
X0315697Y0337776D01*
X0315801Y0337895D01*
X0315908Y0338012D01*
X0316018Y0338126D01*
X0316131Y0338237D01*
X0316246Y0338346D01*
X0316364Y0338451D01*
X0316485Y0338553D01*
X0316608Y0338653D01*
X0316734Y0338749D01*
X0316862Y0338842D01*
X0316992Y0338932D01*
X0317125Y0339018D01*
X0317260Y0339102D01*
X0317396Y0339181D01*
X0317535Y0339258D01*
X0317676Y0339330D01*
X0317818Y0339400D01*
X0317962Y0339465D01*
X0318108Y0339527D01*
X0318255Y0339585D01*
X0318404Y0339640D01*
X0318554Y0339691D01*
X0318705Y0339738D01*
X0318857Y0339781D01*
X0319010Y0339820D01*
X0319165Y0339856D01*
X0319320Y0339887D01*
X0319476Y0339915D01*
X0319632Y0339939D01*
X0319789Y0339959D01*
X0319947Y0339975D01*
X0320104Y0339987D01*
X0320263Y0339995D01*
X0320421Y0339999D01*
X0320579Y0339999D01*
X0320737Y0339995D01*
X0320896Y0339987D01*
X0321053Y0339975D01*
X0321211Y0339959D01*
X0321368Y0339939D01*
X0321524Y0339915D01*
X0321680Y0339887D01*
X0321835Y0339856D01*
X0321990Y0339820D01*
X0322143Y0339781D01*
X0322295Y0339738D01*
X0322446Y0339691D01*
X0322596Y0339640D01*
X0322745Y0339585D01*
X0322892Y0339527D01*
X0323038Y0339465D01*
X0323182Y0339400D01*
X0323324Y0339330D01*
X0323465Y0339258D01*
X0323604Y0339181D01*
X0323740Y0339102D01*
X0323875Y0339018D01*
X0324008Y0338932D01*
X0324138Y0338842D01*
X0324266Y0338749D01*
X0324392Y0338653D01*
X0324515Y0338553D01*
X0324636Y0338451D01*
X0324754Y0338346D01*
X0324869Y0338237D01*
X0324982Y0338126D01*
X0325092Y0338012D01*
X0325199Y0337895D01*
X0325303Y0337776D01*
X0325404Y0337654D01*
X0325501Y0337529D01*
X0325596Y0337402D01*
X0325687Y0337273D01*
X0325776Y0337142D01*
X0325860Y0337008D01*
X0325942Y0336872D01*
X0326020Y0336735D01*
X0326094Y0336595D01*
X0326165Y0336453D01*
X0326233Y0336310D01*
X0326297Y0336165D01*
X0326357Y0336019D01*
X0326413Y0335871D01*
X0326466Y0335722D01*
X0326515Y0335571D01*
X0326560Y0335419D01*
X0326601Y0335266D01*
X0326639Y0335113D01*
X0326672Y0334958D01*
X0326702Y0334802D01*
X0326728Y0334646D01*
X0326749Y0334489D01*
X0326767Y0334332D01*
X0326781Y0334174D01*
X0326791Y0334016D01*
X0326797Y0333858D01*
X0326799Y0333700D01*
X0326797Y0333542D01*
X0326791Y0333384D01*
X0326781Y0333226D01*
X0326767Y0333068D01*
X0326749Y0332911D01*
X0326728Y0332754D01*
X0326702Y0332598D01*
X0326672Y0332442D01*
X0326639Y0332287D01*
X0326601Y0332134D01*
X0326560Y0331981D01*
X0326515Y0331829D01*
X0326466Y0331678D01*
X0326413Y0331529D01*
X0326357Y0331381D01*
X0326297Y0331235D01*
X0326233Y0331090D01*
X0326165Y0330947D01*
X0326094Y0330805D01*
X0326020Y0330665D01*
X0325942Y0330528D01*
X0325860Y0330392D01*
X0325776Y0330258D01*
X0325687Y0330127D01*
X0325596Y0329998D01*
X0325501Y0329871D01*
X0325404Y0329746D01*
X0325303Y0329624D01*
X0325199Y0329505D01*
X0325092Y0329388D01*
X0324982Y0329274D01*
X0324869Y0329163D01*
X0324754Y0329054D01*
X0324636Y0328949D01*
X0324515Y0328847D01*
X0324392Y0328747D01*
X0324266Y0328651D01*
X0324138Y0328558D01*
X0324008Y0328468D01*
X0323875Y0328382D01*
X0323740Y0328298D01*
X0323604Y0328219D01*
X0323465Y0328142D01*
X0323324Y0328070D01*
X0323182Y0328000D01*
X0323038Y0327935D01*
X0322892Y0327873D01*
X0322745Y0327815D01*
X0322596Y0327760D01*
X0322446Y0327709D01*
X0322295Y0327662D01*
X0322143Y0327619D01*
X0321990Y0327580D01*
X0321835Y0327544D01*
X0321680Y0327513D01*
X0321524Y0327485D01*
X0321368Y0327461D01*
X0321211Y0327441D01*
X0321053Y0327425D01*
X0320896Y0327413D01*
X0320737Y0327405D01*
X0320579Y0327401D01*
X0320421Y0327401D01*
X0320263Y0327405D01*
X0320104Y0327413D01*
X0319947Y0327425D01*
X0319789Y0327441D01*
X0319632Y0327461D01*
X0319476Y0327485D01*
X0319320Y0327513D01*
X0319165Y0327544D01*
X0319010Y0327580D01*
X0318857Y0327619D01*
X0318705Y0327662D01*
X0318554Y0327709D01*
X0318404Y0327760D01*
X0318255Y0327815D01*
X0318108Y0327873D01*
X0317962Y0327935D01*
X0317818Y0328000D01*
X0317676Y0328070D01*
X0317535Y0328142D01*
X0317396Y0328219D01*
X0317260Y0328298D01*
X0317125Y0328382D01*
X0316992Y0328468D01*
X0316862Y0328558D01*
X0316734Y0328651D01*
X0316608Y0328747D01*
X0316485Y0328847D01*
X0316364Y0328949D01*
X0316246Y0329054D01*
X0316131Y0329163D01*
X0316018Y0329274D01*
X0315908Y0329388D01*
X0315801Y0329505D01*
X0315697Y0329624D01*
X0315596Y0329746D01*
X0315499Y0329871D01*
X0315404Y0329998D01*
X0315313Y0330127D01*
X0315224Y0330258D01*
X0315140Y0330392D01*
X0315058Y0330528D01*
X0314980Y0330665D01*
X0314906Y0330805D01*
X0314835Y0330947D01*
X0314767Y0331090D01*
X0314703Y0331235D01*
X0314643Y0331381D01*
X0314587Y0331529D01*
X0314534Y0331678D01*
X0314485Y0331829D01*
X0314440Y0331981D01*
X0314399Y0332134D01*
X0314361Y0332287D01*
X0314328Y0332442D01*
X0314298Y0332598D01*
X0314272Y0332754D01*
X0314251Y0332911D01*
X0314233Y0333068D01*
X0314219Y0333226D01*
X0314209Y0333384D01*
X0314203Y0333542D01*
X0314201Y0333700D01*
X0030500Y0244000D02*
X0030502Y0244148D01*
X0030508Y0244296D01*
X0030518Y0244444D01*
X0030532Y0244592D01*
X0030550Y0244739D01*
X0030572Y0244886D01*
X0030598Y0245032D01*
X0030627Y0245177D01*
X0030661Y0245322D01*
X0030699Y0245465D01*
X0030740Y0245608D01*
X0030785Y0245749D01*
X0030835Y0245889D01*
X0030887Y0246027D01*
X0030944Y0246165D01*
X0031004Y0246300D01*
X0031068Y0246434D01*
X0031135Y0246566D01*
X0031206Y0246696D01*
X0031281Y0246825D01*
X0031359Y0246951D01*
X0031440Y0247075D01*
X0031524Y0247197D01*
X0031612Y0247316D01*
X0031703Y0247433D01*
X0031797Y0247548D01*
X0031895Y0247660D01*
X0031995Y0247769D01*
X0032098Y0247876D01*
X0032204Y0247980D01*
X0032312Y0248081D01*
X0032424Y0248179D01*
X0032538Y0248274D01*
X0032654Y0248365D01*
X0032773Y0248454D01*
X0032894Y0248539D01*
X0033018Y0248621D01*
X0033144Y0248700D01*
X0033271Y0248775D01*
X0033401Y0248847D01*
X0033533Y0248916D01*
X0033666Y0248980D01*
X0033801Y0249041D01*
X0033938Y0249099D01*
X0034076Y0249153D01*
X0034216Y0249203D01*
X0034357Y0249249D01*
X0034499Y0249291D01*
X0034642Y0249330D01*
X0034786Y0249364D01*
X0034932Y0249395D01*
X0035077Y0249422D01*
X0035224Y0249445D01*
X0035371Y0249464D01*
X0035519Y0249479D01*
X0035666Y0249490D01*
X0035815Y0249497D01*
X0035963Y0249500D01*
X0036111Y0249499D01*
X0036259Y0249494D01*
X0036407Y0249485D01*
X0036555Y0249472D01*
X0036703Y0249455D01*
X0036849Y0249434D01*
X0036996Y0249409D01*
X0037141Y0249380D01*
X0037286Y0249348D01*
X0037429Y0249311D01*
X0037572Y0249271D01*
X0037714Y0249226D01*
X0037854Y0249178D01*
X0037993Y0249126D01*
X0038130Y0249071D01*
X0038266Y0249011D01*
X0038401Y0248948D01*
X0038533Y0248882D01*
X0038664Y0248812D01*
X0038793Y0248738D01*
X0038919Y0248661D01*
X0039044Y0248581D01*
X0039166Y0248497D01*
X0039287Y0248410D01*
X0039404Y0248320D01*
X0039520Y0248226D01*
X0039632Y0248130D01*
X0039742Y0248031D01*
X0039850Y0247928D01*
X0039954Y0247823D01*
X0040056Y0247715D01*
X0040154Y0247604D01*
X0040250Y0247491D01*
X0040343Y0247375D01*
X0040432Y0247257D01*
X0040518Y0247136D01*
X0040601Y0247013D01*
X0040681Y0246888D01*
X0040757Y0246761D01*
X0040830Y0246631D01*
X0040899Y0246500D01*
X0040964Y0246367D01*
X0041027Y0246233D01*
X0041085Y0246096D01*
X0041140Y0245958D01*
X0041190Y0245819D01*
X0041238Y0245678D01*
X0041281Y0245537D01*
X0041321Y0245394D01*
X0041356Y0245250D01*
X0041388Y0245105D01*
X0041416Y0244959D01*
X0041440Y0244813D01*
X0041460Y0244666D01*
X0041476Y0244518D01*
X0041488Y0244371D01*
X0041496Y0244222D01*
X0041500Y0244074D01*
X0041500Y0243926D01*
X0041496Y0243778D01*
X0041488Y0243629D01*
X0041476Y0243482D01*
X0041460Y0243334D01*
X0041440Y0243187D01*
X0041416Y0243041D01*
X0041388Y0242895D01*
X0041356Y0242750D01*
X0041321Y0242606D01*
X0041281Y0242463D01*
X0041238Y0242322D01*
X0041190Y0242181D01*
X0041140Y0242042D01*
X0041085Y0241904D01*
X0041027Y0241767D01*
X0040964Y0241633D01*
X0040899Y0241500D01*
X0040830Y0241369D01*
X0040757Y0241239D01*
X0040681Y0241112D01*
X0040601Y0240987D01*
X0040518Y0240864D01*
X0040432Y0240743D01*
X0040343Y0240625D01*
X0040250Y0240509D01*
X0040154Y0240396D01*
X0040056Y0240285D01*
X0039954Y0240177D01*
X0039850Y0240072D01*
X0039742Y0239969D01*
X0039632Y0239870D01*
X0039520Y0239774D01*
X0039404Y0239680D01*
X0039287Y0239590D01*
X0039166Y0239503D01*
X0039044Y0239419D01*
X0038919Y0239339D01*
X0038793Y0239262D01*
X0038664Y0239188D01*
X0038533Y0239118D01*
X0038401Y0239052D01*
X0038266Y0238989D01*
X0038130Y0238929D01*
X0037993Y0238874D01*
X0037854Y0238822D01*
X0037714Y0238774D01*
X0037572Y0238729D01*
X0037429Y0238689D01*
X0037286Y0238652D01*
X0037141Y0238620D01*
X0036996Y0238591D01*
X0036849Y0238566D01*
X0036703Y0238545D01*
X0036555Y0238528D01*
X0036407Y0238515D01*
X0036259Y0238506D01*
X0036111Y0238501D01*
X0035963Y0238500D01*
X0035815Y0238503D01*
X0035666Y0238510D01*
X0035519Y0238521D01*
X0035371Y0238536D01*
X0035224Y0238555D01*
X0035077Y0238578D01*
X0034932Y0238605D01*
X0034786Y0238636D01*
X0034642Y0238670D01*
X0034499Y0238709D01*
X0034357Y0238751D01*
X0034216Y0238797D01*
X0034076Y0238847D01*
X0033938Y0238901D01*
X0033801Y0238959D01*
X0033666Y0239020D01*
X0033533Y0239084D01*
X0033401Y0239153D01*
X0033271Y0239225D01*
X0033144Y0239300D01*
X0033018Y0239379D01*
X0032894Y0239461D01*
X0032773Y0239546D01*
X0032654Y0239635D01*
X0032538Y0239726D01*
X0032424Y0239821D01*
X0032312Y0239919D01*
X0032204Y0240020D01*
X0032098Y0240124D01*
X0031995Y0240231D01*
X0031895Y0240340D01*
X0031797Y0240452D01*
X0031703Y0240567D01*
X0031612Y0240684D01*
X0031524Y0240803D01*
X0031440Y0240925D01*
X0031359Y0241049D01*
X0031281Y0241175D01*
X0031206Y0241304D01*
X0031135Y0241434D01*
X0031068Y0241566D01*
X0031004Y0241700D01*
X0030944Y0241835D01*
X0030887Y0241973D01*
X0030835Y0242111D01*
X0030785Y0242251D01*
X0030740Y0242392D01*
X0030699Y0242535D01*
X0030661Y0242678D01*
X0030627Y0242823D01*
X0030598Y0242968D01*
X0030572Y0243114D01*
X0030550Y0243261D01*
X0030532Y0243408D01*
X0030518Y0243556D01*
X0030508Y0243704D01*
X0030502Y0243852D01*
X0030500Y0244000D01*
X0004701Y0334000D02*
X0004703Y0334158D01*
X0004709Y0334316D01*
X0004719Y0334474D01*
X0004733Y0334632D01*
X0004751Y0334789D01*
X0004772Y0334946D01*
X0004798Y0335102D01*
X0004828Y0335258D01*
X0004861Y0335413D01*
X0004899Y0335566D01*
X0004940Y0335719D01*
X0004985Y0335871D01*
X0005034Y0336022D01*
X0005087Y0336171D01*
X0005143Y0336319D01*
X0005203Y0336465D01*
X0005267Y0336610D01*
X0005335Y0336753D01*
X0005406Y0336895D01*
X0005480Y0337035D01*
X0005558Y0337172D01*
X0005640Y0337308D01*
X0005724Y0337442D01*
X0005813Y0337573D01*
X0005904Y0337702D01*
X0005999Y0337829D01*
X0006096Y0337954D01*
X0006197Y0338076D01*
X0006301Y0338195D01*
X0006408Y0338312D01*
X0006518Y0338426D01*
X0006631Y0338537D01*
X0006746Y0338646D01*
X0006864Y0338751D01*
X0006985Y0338853D01*
X0007108Y0338953D01*
X0007234Y0339049D01*
X0007362Y0339142D01*
X0007492Y0339232D01*
X0007625Y0339318D01*
X0007760Y0339402D01*
X0007896Y0339481D01*
X0008035Y0339558D01*
X0008176Y0339630D01*
X0008318Y0339700D01*
X0008462Y0339765D01*
X0008608Y0339827D01*
X0008755Y0339885D01*
X0008904Y0339940D01*
X0009054Y0339991D01*
X0009205Y0340038D01*
X0009357Y0340081D01*
X0009510Y0340120D01*
X0009665Y0340156D01*
X0009820Y0340187D01*
X0009976Y0340215D01*
X0010132Y0340239D01*
X0010289Y0340259D01*
X0010447Y0340275D01*
X0010604Y0340287D01*
X0010763Y0340295D01*
X0010921Y0340299D01*
X0011079Y0340299D01*
X0011237Y0340295D01*
X0011396Y0340287D01*
X0011553Y0340275D01*
X0011711Y0340259D01*
X0011868Y0340239D01*
X0012024Y0340215D01*
X0012180Y0340187D01*
X0012335Y0340156D01*
X0012490Y0340120D01*
X0012643Y0340081D01*
X0012795Y0340038D01*
X0012946Y0339991D01*
X0013096Y0339940D01*
X0013245Y0339885D01*
X0013392Y0339827D01*
X0013538Y0339765D01*
X0013682Y0339700D01*
X0013824Y0339630D01*
X0013965Y0339558D01*
X0014104Y0339481D01*
X0014240Y0339402D01*
X0014375Y0339318D01*
X0014508Y0339232D01*
X0014638Y0339142D01*
X0014766Y0339049D01*
X0014892Y0338953D01*
X0015015Y0338853D01*
X0015136Y0338751D01*
X0015254Y0338646D01*
X0015369Y0338537D01*
X0015482Y0338426D01*
X0015592Y0338312D01*
X0015699Y0338195D01*
X0015803Y0338076D01*
X0015904Y0337954D01*
X0016001Y0337829D01*
X0016096Y0337702D01*
X0016187Y0337573D01*
X0016276Y0337442D01*
X0016360Y0337308D01*
X0016442Y0337172D01*
X0016520Y0337035D01*
X0016594Y0336895D01*
X0016665Y0336753D01*
X0016733Y0336610D01*
X0016797Y0336465D01*
X0016857Y0336319D01*
X0016913Y0336171D01*
X0016966Y0336022D01*
X0017015Y0335871D01*
X0017060Y0335719D01*
X0017101Y0335566D01*
X0017139Y0335413D01*
X0017172Y0335258D01*
X0017202Y0335102D01*
X0017228Y0334946D01*
X0017249Y0334789D01*
X0017267Y0334632D01*
X0017281Y0334474D01*
X0017291Y0334316D01*
X0017297Y0334158D01*
X0017299Y0334000D01*
X0017297Y0333842D01*
X0017291Y0333684D01*
X0017281Y0333526D01*
X0017267Y0333368D01*
X0017249Y0333211D01*
X0017228Y0333054D01*
X0017202Y0332898D01*
X0017172Y0332742D01*
X0017139Y0332587D01*
X0017101Y0332434D01*
X0017060Y0332281D01*
X0017015Y0332129D01*
X0016966Y0331978D01*
X0016913Y0331829D01*
X0016857Y0331681D01*
X0016797Y0331535D01*
X0016733Y0331390D01*
X0016665Y0331247D01*
X0016594Y0331105D01*
X0016520Y0330965D01*
X0016442Y0330828D01*
X0016360Y0330692D01*
X0016276Y0330558D01*
X0016187Y0330427D01*
X0016096Y0330298D01*
X0016001Y0330171D01*
X0015904Y0330046D01*
X0015803Y0329924D01*
X0015699Y0329805D01*
X0015592Y0329688D01*
X0015482Y0329574D01*
X0015369Y0329463D01*
X0015254Y0329354D01*
X0015136Y0329249D01*
X0015015Y0329147D01*
X0014892Y0329047D01*
X0014766Y0328951D01*
X0014638Y0328858D01*
X0014508Y0328768D01*
X0014375Y0328682D01*
X0014240Y0328598D01*
X0014104Y0328519D01*
X0013965Y0328442D01*
X0013824Y0328370D01*
X0013682Y0328300D01*
X0013538Y0328235D01*
X0013392Y0328173D01*
X0013245Y0328115D01*
X0013096Y0328060D01*
X0012946Y0328009D01*
X0012795Y0327962D01*
X0012643Y0327919D01*
X0012490Y0327880D01*
X0012335Y0327844D01*
X0012180Y0327813D01*
X0012024Y0327785D01*
X0011868Y0327761D01*
X0011711Y0327741D01*
X0011553Y0327725D01*
X0011396Y0327713D01*
X0011237Y0327705D01*
X0011079Y0327701D01*
X0010921Y0327701D01*
X0010763Y0327705D01*
X0010604Y0327713D01*
X0010447Y0327725D01*
X0010289Y0327741D01*
X0010132Y0327761D01*
X0009976Y0327785D01*
X0009820Y0327813D01*
X0009665Y0327844D01*
X0009510Y0327880D01*
X0009357Y0327919D01*
X0009205Y0327962D01*
X0009054Y0328009D01*
X0008904Y0328060D01*
X0008755Y0328115D01*
X0008608Y0328173D01*
X0008462Y0328235D01*
X0008318Y0328300D01*
X0008176Y0328370D01*
X0008035Y0328442D01*
X0007896Y0328519D01*
X0007760Y0328598D01*
X0007625Y0328682D01*
X0007492Y0328768D01*
X0007362Y0328858D01*
X0007234Y0328951D01*
X0007108Y0329047D01*
X0006985Y0329147D01*
X0006864Y0329249D01*
X0006746Y0329354D01*
X0006631Y0329463D01*
X0006518Y0329574D01*
X0006408Y0329688D01*
X0006301Y0329805D01*
X0006197Y0329924D01*
X0006096Y0330046D01*
X0005999Y0330171D01*
X0005904Y0330298D01*
X0005813Y0330427D01*
X0005724Y0330558D01*
X0005640Y0330692D01*
X0005558Y0330828D01*
X0005480Y0330965D01*
X0005406Y0331105D01*
X0005335Y0331247D01*
X0005267Y0331390D01*
X0005203Y0331535D01*
X0005143Y0331681D01*
X0005087Y0331829D01*
X0005034Y0331978D01*
X0004985Y0332129D01*
X0004940Y0332281D01*
X0004899Y0332434D01*
X0004861Y0332587D01*
X0004828Y0332742D01*
X0004798Y0332898D01*
X0004772Y0333054D01*
X0004751Y0333211D01*
X0004733Y0333368D01*
X0004719Y0333526D01*
X0004709Y0333684D01*
X0004703Y0333842D01*
X0004701Y0334000D01*
X0227500Y0019000D02*
X0227502Y0019118D01*
X0227508Y0019236D01*
X0227518Y0019354D01*
X0227532Y0019471D01*
X0227550Y0019588D01*
X0227572Y0019705D01*
X0227597Y0019820D01*
X0227627Y0019934D01*
X0227661Y0020048D01*
X0227698Y0020160D01*
X0227739Y0020271D01*
X0227784Y0020380D01*
X0227832Y0020488D01*
X0227884Y0020594D01*
X0227940Y0020699D01*
X0227999Y0020801D01*
X0228061Y0020901D01*
X0228127Y0020999D01*
X0228196Y0021095D01*
X0228269Y0021189D01*
X0228344Y0021280D01*
X0228423Y0021368D01*
X0228504Y0021454D01*
X0228589Y0021537D01*
X0228676Y0021617D01*
X0228765Y0021694D01*
X0228858Y0021768D01*
X0228952Y0021838D01*
X0229049Y0021906D01*
X0229149Y0021970D01*
X0229250Y0022031D01*
X0229353Y0022088D01*
X0229459Y0022142D01*
X0229566Y0022193D01*
X0229674Y0022239D01*
X0229784Y0022282D01*
X0229896Y0022321D01*
X0230009Y0022357D01*
X0230123Y0022388D01*
X0230238Y0022416D01*
X0230353Y0022440D01*
X0230470Y0022460D01*
X0230587Y0022476D01*
X0230705Y0022488D01*
X0230823Y0022496D01*
X0230941Y0022500D01*
X0231059Y0022500D01*
X0231177Y0022496D01*
X0231295Y0022488D01*
X0231413Y0022476D01*
X0231530Y0022460D01*
X0231647Y0022440D01*
X0231762Y0022416D01*
X0231877Y0022388D01*
X0231991Y0022357D01*
X0232104Y0022321D01*
X0232216Y0022282D01*
X0232326Y0022239D01*
X0232434Y0022193D01*
X0232541Y0022142D01*
X0232647Y0022088D01*
X0232750Y0022031D01*
X0232851Y0021970D01*
X0232951Y0021906D01*
X0233048Y0021838D01*
X0233142Y0021768D01*
X0233235Y0021694D01*
X0233324Y0021617D01*
X0233411Y0021537D01*
X0233496Y0021454D01*
X0233577Y0021368D01*
X0233656Y0021280D01*
X0233731Y0021189D01*
X0233804Y0021095D01*
X0233873Y0020999D01*
X0233939Y0020901D01*
X0234001Y0020801D01*
X0234060Y0020699D01*
X0234116Y0020594D01*
X0234168Y0020488D01*
X0234216Y0020380D01*
X0234261Y0020271D01*
X0234302Y0020160D01*
X0234339Y0020048D01*
X0234373Y0019934D01*
X0234403Y0019820D01*
X0234428Y0019705D01*
X0234450Y0019588D01*
X0234468Y0019471D01*
X0234482Y0019354D01*
X0234492Y0019236D01*
X0234498Y0019118D01*
X0234500Y0019000D01*
X0234498Y0018882D01*
X0234492Y0018764D01*
X0234482Y0018646D01*
X0234468Y0018529D01*
X0234450Y0018412D01*
X0234428Y0018295D01*
X0234403Y0018180D01*
X0234373Y0018066D01*
X0234339Y0017952D01*
X0234302Y0017840D01*
X0234261Y0017729D01*
X0234216Y0017620D01*
X0234168Y0017512D01*
X0234116Y0017406D01*
X0234060Y0017301D01*
X0234001Y0017199D01*
X0233939Y0017099D01*
X0233873Y0017001D01*
X0233804Y0016905D01*
X0233731Y0016811D01*
X0233656Y0016720D01*
X0233577Y0016632D01*
X0233496Y0016546D01*
X0233411Y0016463D01*
X0233324Y0016383D01*
X0233235Y0016306D01*
X0233142Y0016232D01*
X0233048Y0016162D01*
X0232951Y0016094D01*
X0232851Y0016030D01*
X0232750Y0015969D01*
X0232647Y0015912D01*
X0232541Y0015858D01*
X0232434Y0015807D01*
X0232326Y0015761D01*
X0232216Y0015718D01*
X0232104Y0015679D01*
X0231991Y0015643D01*
X0231877Y0015612D01*
X0231762Y0015584D01*
X0231647Y0015560D01*
X0231530Y0015540D01*
X0231413Y0015524D01*
X0231295Y0015512D01*
X0231177Y0015504D01*
X0231059Y0015500D01*
X0230941Y0015500D01*
X0230823Y0015504D01*
X0230705Y0015512D01*
X0230587Y0015524D01*
X0230470Y0015540D01*
X0230353Y0015560D01*
X0230238Y0015584D01*
X0230123Y0015612D01*
X0230009Y0015643D01*
X0229896Y0015679D01*
X0229784Y0015718D01*
X0229674Y0015761D01*
X0229566Y0015807D01*
X0229459Y0015858D01*
X0229353Y0015912D01*
X0229250Y0015969D01*
X0229149Y0016030D01*
X0229049Y0016094D01*
X0228952Y0016162D01*
X0228858Y0016232D01*
X0228765Y0016306D01*
X0228676Y0016383D01*
X0228589Y0016463D01*
X0228504Y0016546D01*
X0228423Y0016632D01*
X0228344Y0016720D01*
X0228269Y0016811D01*
X0228196Y0016905D01*
X0228127Y0017001D01*
X0228061Y0017099D01*
X0227999Y0017199D01*
X0227940Y0017301D01*
X0227884Y0017406D01*
X0227832Y0017512D01*
X0227784Y0017620D01*
X0227739Y0017729D01*
X0227698Y0017840D01*
X0227661Y0017952D01*
X0227627Y0018066D01*
X0227597Y0018180D01*
X0227572Y0018295D01*
X0227550Y0018412D01*
X0227532Y0018529D01*
X0227518Y0018646D01*
X0227508Y0018764D01*
X0227502Y0018882D01*
X0227500Y0019000D01*
X0287500Y0019000D02*
X0287502Y0019118D01*
X0287508Y0019236D01*
X0287518Y0019354D01*
X0287532Y0019471D01*
X0287550Y0019588D01*
X0287572Y0019705D01*
X0287597Y0019820D01*
X0287627Y0019934D01*
X0287661Y0020048D01*
X0287698Y0020160D01*
X0287739Y0020271D01*
X0287784Y0020380D01*
X0287832Y0020488D01*
X0287884Y0020594D01*
X0287940Y0020699D01*
X0287999Y0020801D01*
X0288061Y0020901D01*
X0288127Y0020999D01*
X0288196Y0021095D01*
X0288269Y0021189D01*
X0288344Y0021280D01*
X0288423Y0021368D01*
X0288504Y0021454D01*
X0288589Y0021537D01*
X0288676Y0021617D01*
X0288765Y0021694D01*
X0288858Y0021768D01*
X0288952Y0021838D01*
X0289049Y0021906D01*
X0289149Y0021970D01*
X0289250Y0022031D01*
X0289353Y0022088D01*
X0289459Y0022142D01*
X0289566Y0022193D01*
X0289674Y0022239D01*
X0289784Y0022282D01*
X0289896Y0022321D01*
X0290009Y0022357D01*
X0290123Y0022388D01*
X0290238Y0022416D01*
X0290353Y0022440D01*
X0290470Y0022460D01*
X0290587Y0022476D01*
X0290705Y0022488D01*
X0290823Y0022496D01*
X0290941Y0022500D01*
X0291059Y0022500D01*
X0291177Y0022496D01*
X0291295Y0022488D01*
X0291413Y0022476D01*
X0291530Y0022460D01*
X0291647Y0022440D01*
X0291762Y0022416D01*
X0291877Y0022388D01*
X0291991Y0022357D01*
X0292104Y0022321D01*
X0292216Y0022282D01*
X0292326Y0022239D01*
X0292434Y0022193D01*
X0292541Y0022142D01*
X0292647Y0022088D01*
X0292750Y0022031D01*
X0292851Y0021970D01*
X0292951Y0021906D01*
X0293048Y0021838D01*
X0293142Y0021768D01*
X0293235Y0021694D01*
X0293324Y0021617D01*
X0293411Y0021537D01*
X0293496Y0021454D01*
X0293577Y0021368D01*
X0293656Y0021280D01*
X0293731Y0021189D01*
X0293804Y0021095D01*
X0293873Y0020999D01*
X0293939Y0020901D01*
X0294001Y0020801D01*
X0294060Y0020699D01*
X0294116Y0020594D01*
X0294168Y0020488D01*
X0294216Y0020380D01*
X0294261Y0020271D01*
X0294302Y0020160D01*
X0294339Y0020048D01*
X0294373Y0019934D01*
X0294403Y0019820D01*
X0294428Y0019705D01*
X0294450Y0019588D01*
X0294468Y0019471D01*
X0294482Y0019354D01*
X0294492Y0019236D01*
X0294498Y0019118D01*
X0294500Y0019000D01*
X0294498Y0018882D01*
X0294492Y0018764D01*
X0294482Y0018646D01*
X0294468Y0018529D01*
X0294450Y0018412D01*
X0294428Y0018295D01*
X0294403Y0018180D01*
X0294373Y0018066D01*
X0294339Y0017952D01*
X0294302Y0017840D01*
X0294261Y0017729D01*
X0294216Y0017620D01*
X0294168Y0017512D01*
X0294116Y0017406D01*
X0294060Y0017301D01*
X0294001Y0017199D01*
X0293939Y0017099D01*
X0293873Y0017001D01*
X0293804Y0016905D01*
X0293731Y0016811D01*
X0293656Y0016720D01*
X0293577Y0016632D01*
X0293496Y0016546D01*
X0293411Y0016463D01*
X0293324Y0016383D01*
X0293235Y0016306D01*
X0293142Y0016232D01*
X0293048Y0016162D01*
X0292951Y0016094D01*
X0292851Y0016030D01*
X0292750Y0015969D01*
X0292647Y0015912D01*
X0292541Y0015858D01*
X0292434Y0015807D01*
X0292326Y0015761D01*
X0292216Y0015718D01*
X0292104Y0015679D01*
X0291991Y0015643D01*
X0291877Y0015612D01*
X0291762Y0015584D01*
X0291647Y0015560D01*
X0291530Y0015540D01*
X0291413Y0015524D01*
X0291295Y0015512D01*
X0291177Y0015504D01*
X0291059Y0015500D01*
X0290941Y0015500D01*
X0290823Y0015504D01*
X0290705Y0015512D01*
X0290587Y0015524D01*
X0290470Y0015540D01*
X0290353Y0015560D01*
X0290238Y0015584D01*
X0290123Y0015612D01*
X0290009Y0015643D01*
X0289896Y0015679D01*
X0289784Y0015718D01*
X0289674Y0015761D01*
X0289566Y0015807D01*
X0289459Y0015858D01*
X0289353Y0015912D01*
X0289250Y0015969D01*
X0289149Y0016030D01*
X0289049Y0016094D01*
X0288952Y0016162D01*
X0288858Y0016232D01*
X0288765Y0016306D01*
X0288676Y0016383D01*
X0288589Y0016463D01*
X0288504Y0016546D01*
X0288423Y0016632D01*
X0288344Y0016720D01*
X0288269Y0016811D01*
X0288196Y0016905D01*
X0288127Y0017001D01*
X0288061Y0017099D01*
X0287999Y0017199D01*
X0287940Y0017301D01*
X0287884Y0017406D01*
X0287832Y0017512D01*
X0287784Y0017620D01*
X0287739Y0017729D01*
X0287698Y0017840D01*
X0287661Y0017952D01*
X0287627Y0018066D01*
X0287597Y0018180D01*
X0287572Y0018295D01*
X0287550Y0018412D01*
X0287532Y0018529D01*
X0287518Y0018646D01*
X0287508Y0018764D01*
X0287502Y0018882D01*
X0287500Y0019000D01*
X0313401Y0014600D02*
X0313403Y0014758D01*
X0313409Y0014916D01*
X0313419Y0015074D01*
X0313433Y0015232D01*
X0313451Y0015389D01*
X0313472Y0015546D01*
X0313498Y0015702D01*
X0313528Y0015858D01*
X0313561Y0016013D01*
X0313599Y0016166D01*
X0313640Y0016319D01*
X0313685Y0016471D01*
X0313734Y0016622D01*
X0313787Y0016771D01*
X0313843Y0016919D01*
X0313903Y0017065D01*
X0313967Y0017210D01*
X0314035Y0017353D01*
X0314106Y0017495D01*
X0314180Y0017635D01*
X0314258Y0017772D01*
X0314340Y0017908D01*
X0314424Y0018042D01*
X0314513Y0018173D01*
X0314604Y0018302D01*
X0314699Y0018429D01*
X0314796Y0018554D01*
X0314897Y0018676D01*
X0315001Y0018795D01*
X0315108Y0018912D01*
X0315218Y0019026D01*
X0315331Y0019137D01*
X0315446Y0019246D01*
X0315564Y0019351D01*
X0315685Y0019453D01*
X0315808Y0019553D01*
X0315934Y0019649D01*
X0316062Y0019742D01*
X0316192Y0019832D01*
X0316325Y0019918D01*
X0316460Y0020002D01*
X0316596Y0020081D01*
X0316735Y0020158D01*
X0316876Y0020230D01*
X0317018Y0020300D01*
X0317162Y0020365D01*
X0317308Y0020427D01*
X0317455Y0020485D01*
X0317604Y0020540D01*
X0317754Y0020591D01*
X0317905Y0020638D01*
X0318057Y0020681D01*
X0318210Y0020720D01*
X0318365Y0020756D01*
X0318520Y0020787D01*
X0318676Y0020815D01*
X0318832Y0020839D01*
X0318989Y0020859D01*
X0319147Y0020875D01*
X0319304Y0020887D01*
X0319463Y0020895D01*
X0319621Y0020899D01*
X0319779Y0020899D01*
X0319937Y0020895D01*
X0320096Y0020887D01*
X0320253Y0020875D01*
X0320411Y0020859D01*
X0320568Y0020839D01*
X0320724Y0020815D01*
X0320880Y0020787D01*
X0321035Y0020756D01*
X0321190Y0020720D01*
X0321343Y0020681D01*
X0321495Y0020638D01*
X0321646Y0020591D01*
X0321796Y0020540D01*
X0321945Y0020485D01*
X0322092Y0020427D01*
X0322238Y0020365D01*
X0322382Y0020300D01*
X0322524Y0020230D01*
X0322665Y0020158D01*
X0322804Y0020081D01*
X0322940Y0020002D01*
X0323075Y0019918D01*
X0323208Y0019832D01*
X0323338Y0019742D01*
X0323466Y0019649D01*
X0323592Y0019553D01*
X0323715Y0019453D01*
X0323836Y0019351D01*
X0323954Y0019246D01*
X0324069Y0019137D01*
X0324182Y0019026D01*
X0324292Y0018912D01*
X0324399Y0018795D01*
X0324503Y0018676D01*
X0324604Y0018554D01*
X0324701Y0018429D01*
X0324796Y0018302D01*
X0324887Y0018173D01*
X0324976Y0018042D01*
X0325060Y0017908D01*
X0325142Y0017772D01*
X0325220Y0017635D01*
X0325294Y0017495D01*
X0325365Y0017353D01*
X0325433Y0017210D01*
X0325497Y0017065D01*
X0325557Y0016919D01*
X0325613Y0016771D01*
X0325666Y0016622D01*
X0325715Y0016471D01*
X0325760Y0016319D01*
X0325801Y0016166D01*
X0325839Y0016013D01*
X0325872Y0015858D01*
X0325902Y0015702D01*
X0325928Y0015546D01*
X0325949Y0015389D01*
X0325967Y0015232D01*
X0325981Y0015074D01*
X0325991Y0014916D01*
X0325997Y0014758D01*
X0325999Y0014600D01*
X0325997Y0014442D01*
X0325991Y0014284D01*
X0325981Y0014126D01*
X0325967Y0013968D01*
X0325949Y0013811D01*
X0325928Y0013654D01*
X0325902Y0013498D01*
X0325872Y0013342D01*
X0325839Y0013187D01*
X0325801Y0013034D01*
X0325760Y0012881D01*
X0325715Y0012729D01*
X0325666Y0012578D01*
X0325613Y0012429D01*
X0325557Y0012281D01*
X0325497Y0012135D01*
X0325433Y0011990D01*
X0325365Y0011847D01*
X0325294Y0011705D01*
X0325220Y0011565D01*
X0325142Y0011428D01*
X0325060Y0011292D01*
X0324976Y0011158D01*
X0324887Y0011027D01*
X0324796Y0010898D01*
X0324701Y0010771D01*
X0324604Y0010646D01*
X0324503Y0010524D01*
X0324399Y0010405D01*
X0324292Y0010288D01*
X0324182Y0010174D01*
X0324069Y0010063D01*
X0323954Y0009954D01*
X0323836Y0009849D01*
X0323715Y0009747D01*
X0323592Y0009647D01*
X0323466Y0009551D01*
X0323338Y0009458D01*
X0323208Y0009368D01*
X0323075Y0009282D01*
X0322940Y0009198D01*
X0322804Y0009119D01*
X0322665Y0009042D01*
X0322524Y0008970D01*
X0322382Y0008900D01*
X0322238Y0008835D01*
X0322092Y0008773D01*
X0321945Y0008715D01*
X0321796Y0008660D01*
X0321646Y0008609D01*
X0321495Y0008562D01*
X0321343Y0008519D01*
X0321190Y0008480D01*
X0321035Y0008444D01*
X0320880Y0008413D01*
X0320724Y0008385D01*
X0320568Y0008361D01*
X0320411Y0008341D01*
X0320253Y0008325D01*
X0320096Y0008313D01*
X0319937Y0008305D01*
X0319779Y0008301D01*
X0319621Y0008301D01*
X0319463Y0008305D01*
X0319304Y0008313D01*
X0319147Y0008325D01*
X0318989Y0008341D01*
X0318832Y0008361D01*
X0318676Y0008385D01*
X0318520Y0008413D01*
X0318365Y0008444D01*
X0318210Y0008480D01*
X0318057Y0008519D01*
X0317905Y0008562D01*
X0317754Y0008609D01*
X0317604Y0008660D01*
X0317455Y0008715D01*
X0317308Y0008773D01*
X0317162Y0008835D01*
X0317018Y0008900D01*
X0316876Y0008970D01*
X0316735Y0009042D01*
X0316596Y0009119D01*
X0316460Y0009198D01*
X0316325Y0009282D01*
X0316192Y0009368D01*
X0316062Y0009458D01*
X0315934Y0009551D01*
X0315808Y0009647D01*
X0315685Y0009747D01*
X0315564Y0009849D01*
X0315446Y0009954D01*
X0315331Y0010063D01*
X0315218Y0010174D01*
X0315108Y0010288D01*
X0315001Y0010405D01*
X0314897Y0010524D01*
X0314796Y0010646D01*
X0314699Y0010771D01*
X0314604Y0010898D01*
X0314513Y0011027D01*
X0314424Y0011158D01*
X0314340Y0011292D01*
X0314258Y0011428D01*
X0314180Y0011565D01*
X0314106Y0011705D01*
X0314035Y0011847D01*
X0313967Y0011990D01*
X0313903Y0012135D01*
X0313843Y0012281D01*
X0313787Y0012429D01*
X0313734Y0012578D01*
X0313685Y0012729D01*
X0313640Y0012881D01*
X0313599Y0013034D01*
X0313561Y0013187D01*
X0313528Y0013342D01*
X0313498Y0013498D01*
X0313472Y0013654D01*
X0313451Y0013811D01*
X0313433Y0013968D01*
X0313419Y0014126D01*
X0313409Y0014284D01*
X0313403Y0014442D01*
X0313401Y0014600D01*
D11*
X0246150Y0005502D02*
X0246150Y0004735D01*
X0243081Y0004735D01*
X0243081Y0005502D02*
X0243848Y0006269D01*
X0245383Y0006269D01*
X0246150Y0005502D01*
X0245383Y0003200D02*
X0243848Y0003200D01*
X0243081Y0003967D01*
X0243081Y0005502D01*
X0241546Y0006269D02*
X0241546Y0003200D01*
X0239244Y0003200D01*
X0238477Y0003967D01*
X0238477Y0006269D01*
X0236175Y0007804D02*
X0236175Y0003200D01*
X0235408Y0003200D02*
X0236942Y0003200D01*
X0233873Y0003200D02*
X0231571Y0003200D01*
X0230804Y0003967D01*
X0231571Y0004735D01*
X0233873Y0004735D01*
X0233873Y0005502D02*
X0233873Y0003200D01*
X0233873Y0005502D02*
X0233106Y0006269D01*
X0231571Y0006269D01*
X0229269Y0004735D02*
X0227735Y0003200D01*
X0226200Y0004735D01*
X0226200Y0007804D01*
X0229269Y0007804D02*
X0229269Y0004735D01*
X0235408Y0007804D02*
X0236175Y0007804D01*
X0094063Y0014357D02*
X0090994Y0014357D01*
X0094063Y0017427D01*
X0094063Y0018194D01*
X0093296Y0018961D01*
X0091761Y0018961D01*
X0090994Y0018194D01*
X0089459Y0018194D02*
X0088692Y0018961D01*
X0087157Y0018961D01*
X0086390Y0018194D01*
X0084855Y0018961D02*
X0081786Y0018961D01*
X0083320Y0018961D02*
X0083320Y0014357D01*
X0080251Y0014357D02*
X0080251Y0018961D01*
X0080251Y0016659D02*
X0077182Y0016659D01*
X0075647Y0015125D02*
X0075647Y0018194D01*
X0074880Y0018961D01*
X0072578Y0018961D01*
X0072578Y0014357D01*
X0074880Y0014357D01*
X0075647Y0015125D01*
X0077182Y0014357D02*
X0077182Y0018961D01*
X0078717Y0011087D02*
X0078717Y0006483D01*
X0080251Y0006483D02*
X0077182Y0006483D01*
X0075647Y0007251D02*
X0075647Y0011087D01*
X0077182Y0009553D02*
X0078717Y0011087D01*
X0075647Y0007251D02*
X0074880Y0006483D01*
X0073345Y0006483D01*
X0072578Y0007251D01*
X0072578Y0011087D01*
X0086390Y0014357D02*
X0089459Y0017427D01*
X0089459Y0018194D01*
X0089459Y0014357D02*
X0086390Y0014357D01*
X0020800Y0014200D02*
X0017197Y0016602D01*
X0018998Y0017883D02*
X0018998Y0020285D01*
X0017197Y0019685D02*
X0018998Y0017883D01*
X0020800Y0016602D02*
X0017197Y0014200D01*
X0017197Y0019685D02*
X0020800Y0019685D01*
X0020800Y0039200D02*
X0017197Y0041602D01*
X0017797Y0042883D02*
X0017197Y0043484D01*
X0017197Y0044685D01*
X0017797Y0045285D01*
X0018398Y0045285D01*
X0018998Y0044685D01*
X0019599Y0045285D01*
X0020199Y0045285D01*
X0020800Y0044685D01*
X0020800Y0043484D01*
X0020199Y0042883D01*
X0020800Y0041602D02*
X0017197Y0039200D01*
X0018998Y0044084D02*
X0018998Y0044685D01*
X0017197Y0064200D02*
X0020800Y0066602D01*
X0020800Y0067883D02*
X0018398Y0070285D01*
X0017797Y0070285D01*
X0017197Y0069685D01*
X0017197Y0068484D01*
X0017797Y0067883D01*
X0017197Y0066602D02*
X0020800Y0064200D01*
X0020800Y0067883D02*
X0020800Y0070285D01*
X0228200Y0188200D02*
X0228200Y0192804D01*
X0231269Y0188200D01*
X0231269Y0192804D01*
X0233571Y0191269D02*
X0235106Y0191269D01*
X0235873Y0190502D01*
X0235873Y0188200D01*
X0233571Y0188200D01*
X0232804Y0188967D01*
X0233571Y0189735D01*
X0235873Y0189735D01*
X0237408Y0188200D02*
X0237408Y0191269D01*
X0238175Y0191269D01*
X0238942Y0190502D01*
X0239710Y0191269D01*
X0240477Y0190502D01*
X0240477Y0188200D01*
X0238942Y0188200D02*
X0238942Y0190502D01*
X0242012Y0190502D02*
X0242012Y0188967D01*
X0242779Y0188200D01*
X0244314Y0188200D01*
X0245081Y0189735D02*
X0242012Y0189735D01*
X0242012Y0190502D02*
X0242779Y0191269D01*
X0244314Y0191269D01*
X0245081Y0190502D01*
X0245081Y0189735D01*
X0107685Y0319200D02*
X0104616Y0319200D01*
X0106150Y0319200D02*
X0106150Y0323804D01*
X0104616Y0322269D01*
X0103081Y0321502D02*
X0102314Y0320735D01*
X0100012Y0320735D01*
X0100012Y0319200D02*
X0100012Y0323804D01*
X0102314Y0323804D01*
X0103081Y0323037D01*
X0103081Y0321502D01*
X0098477Y0319200D02*
X0095408Y0319200D01*
X0095408Y0323804D01*
X0093873Y0323804D02*
X0090804Y0320735D01*
X0091571Y0321502D02*
X0093873Y0319200D01*
X0090804Y0319200D02*
X0090804Y0323804D01*
X0089269Y0323804D02*
X0089269Y0319200D01*
X0089269Y0321502D02*
X0086200Y0321502D01*
X0086200Y0319200D02*
X0086200Y0323804D01*
X0025800Y0324982D02*
X0023398Y0327384D01*
X0022797Y0327384D01*
X0022197Y0326784D01*
X0022197Y0325583D01*
X0022797Y0324982D01*
X0023998Y0323701D02*
X0023998Y0321299D01*
X0022797Y0320018D02*
X0025199Y0317616D01*
X0025800Y0318216D01*
X0025800Y0319417D01*
X0025199Y0320018D01*
X0022797Y0320018D01*
X0022197Y0319417D01*
X0022197Y0318216D01*
X0022797Y0317616D01*
X0025199Y0317616D01*
X0025199Y0316335D02*
X0022797Y0316335D01*
X0025199Y0313933D01*
X0025800Y0314533D01*
X0025800Y0315734D01*
X0025199Y0316335D01*
X0022797Y0316335D02*
X0022197Y0315734D01*
X0022197Y0314533D01*
X0022797Y0313933D01*
X0025199Y0313933D01*
X0025800Y0312651D02*
X0025800Y0310249D01*
X0025800Y0311450D02*
X0022197Y0311450D01*
X0023398Y0310249D01*
X0023998Y0308968D02*
X0023998Y0306566D01*
X0022797Y0305285D02*
X0022197Y0304685D01*
X0022197Y0303484D01*
X0022797Y0302883D01*
X0025199Y0302883D01*
X0025800Y0303484D01*
X0025800Y0304685D01*
X0025199Y0305285D01*
X0025800Y0301602D02*
X0023398Y0301602D01*
X0022197Y0300401D01*
X0023398Y0299200D01*
X0025800Y0299200D01*
X0023998Y0299200D02*
X0023998Y0301602D01*
X0025800Y0324982D02*
X0025800Y0327384D01*
X0023998Y0328665D02*
X0022197Y0330467D01*
X0025800Y0330467D01*
X0023998Y0331067D02*
X0023998Y0328665D01*
X0022797Y0332348D02*
X0022197Y0332949D01*
X0022197Y0334150D01*
X0022797Y0334750D01*
X0025199Y0332348D01*
X0025800Y0332949D01*
X0025800Y0334150D01*
X0025199Y0334750D01*
X0022797Y0334750D01*
X0022797Y0332348D02*
X0025199Y0332348D01*
D12*
X0075246Y0286898D02*
X0075246Y0285397D01*
X0075997Y0284646D01*
X0075997Y0283045D02*
X0077498Y0283045D01*
X0078249Y0282294D01*
X0078249Y0280042D01*
X0079750Y0280042D02*
X0075246Y0280042D01*
X0075246Y0282294D01*
X0075997Y0283045D01*
X0078249Y0281543D02*
X0079750Y0283045D01*
X0078999Y0284646D02*
X0079750Y0285397D01*
X0079750Y0286898D01*
X0078999Y0287649D01*
X0078249Y0287649D01*
X0077498Y0286898D01*
X0077498Y0286147D01*
X0077498Y0286898D02*
X0076747Y0287649D01*
X0075997Y0287649D01*
X0075246Y0286898D01*
X0074798Y0233554D02*
X0073297Y0233554D01*
X0072546Y0232803D01*
X0070945Y0232803D02*
X0070194Y0233554D01*
X0068693Y0233554D01*
X0067942Y0232803D01*
X0067942Y0229801D01*
X0068693Y0229050D01*
X0070194Y0229050D01*
X0070945Y0229801D01*
X0072546Y0229801D02*
X0073297Y0229050D01*
X0074798Y0229050D01*
X0075549Y0229801D01*
X0075549Y0230551D01*
X0074798Y0231302D01*
X0074047Y0231302D01*
X0074798Y0231302D02*
X0075549Y0232053D01*
X0075549Y0232803D01*
X0074798Y0233554D01*
X0078997Y0229453D02*
X0079747Y0229453D01*
X0080498Y0228702D01*
X0080498Y0227201D01*
X0079747Y0226450D01*
X0078997Y0226450D01*
X0078246Y0227201D01*
X0078246Y0228702D01*
X0078997Y0229453D01*
X0080498Y0228702D02*
X0081249Y0229453D01*
X0081999Y0229453D01*
X0082750Y0228702D01*
X0082750Y0227201D01*
X0081999Y0226450D01*
X0081249Y0226450D01*
X0080498Y0227201D01*
X0062750Y0217076D02*
X0062750Y0214074D01*
X0062750Y0215575D02*
X0058246Y0215575D01*
X0059747Y0214074D01*
X0062750Y0212472D02*
X0062750Y0209470D01*
X0058246Y0209470D01*
X0058246Y0207118D02*
X0060498Y0204866D01*
X0060498Y0207868D01*
X0062750Y0207118D02*
X0058246Y0207118D01*
X0058997Y0203264D02*
X0058246Y0202514D01*
X0058246Y0201012D01*
X0058997Y0200262D01*
X0058246Y0198660D02*
X0058246Y0195658D01*
X0062750Y0195658D01*
X0062750Y0194056D02*
X0061249Y0192555D01*
X0061249Y0193306D02*
X0061249Y0191054D01*
X0062750Y0191054D02*
X0058246Y0191054D01*
X0058246Y0193306D01*
X0058997Y0194056D01*
X0060498Y0194056D01*
X0061249Y0193306D01*
X0060498Y0195658D02*
X0060498Y0197159D01*
X0062750Y0200262D02*
X0059747Y0203264D01*
X0058997Y0203264D01*
X0062750Y0203264D02*
X0062750Y0200262D01*
X0062750Y0189453D02*
X0058246Y0189453D01*
X0058246Y0186450D02*
X0062750Y0189453D01*
X0062750Y0186450D02*
X0058246Y0186450D01*
X0066246Y0180951D02*
X0070750Y0180951D01*
X0071500Y0181500D02*
X0071500Y0174000D01*
X0068000Y0174000D01*
X0068000Y0168000D01*
X0071500Y0168000D01*
X0071500Y0119000D01*
X0030500Y0119000D01*
X0030500Y0168000D01*
X0034000Y0168000D01*
X0034000Y0174000D01*
X0030500Y0174000D01*
X0030500Y0181500D01*
X0071500Y0181500D01*
X0070750Y0182453D02*
X0070750Y0179450D01*
X0067747Y0179450D02*
X0066246Y0180951D01*
X0075500Y0181500D02*
X0075500Y0174000D01*
X0079000Y0174000D01*
X0079000Y0168000D01*
X0075500Y0168000D01*
X0075500Y0119000D01*
X0116500Y0119000D01*
X0116500Y0168000D01*
X0113000Y0168000D01*
X0113000Y0174000D01*
X0116500Y0174000D01*
X0116500Y0181500D01*
X0075500Y0181500D01*
X0088900Y0168000D02*
X0088902Y0168174D01*
X0088909Y0168348D01*
X0088919Y0168522D01*
X0088934Y0168696D01*
X0088953Y0168869D01*
X0088977Y0169042D01*
X0089005Y0169214D01*
X0089036Y0169385D01*
X0089073Y0169556D01*
X0089113Y0169725D01*
X0089157Y0169894D01*
X0089206Y0170061D01*
X0089258Y0170227D01*
X0089315Y0170392D01*
X0089376Y0170555D01*
X0089440Y0170717D01*
X0089509Y0170877D01*
X0089582Y0171036D01*
X0089658Y0171192D01*
X0089738Y0171347D01*
X0089822Y0171500D01*
X0089910Y0171650D01*
X0090002Y0171798D01*
X0090097Y0171945D01*
X0090195Y0172088D01*
X0090297Y0172229D01*
X0090403Y0172368D01*
X0090512Y0172504D01*
X0090624Y0172638D01*
X0090739Y0172768D01*
X0090858Y0172896D01*
X0090980Y0173020D01*
X0091104Y0173142D01*
X0091232Y0173261D01*
X0091362Y0173376D01*
X0091496Y0173488D01*
X0091632Y0173597D01*
X0091771Y0173703D01*
X0091912Y0173805D01*
X0092055Y0173903D01*
X0092202Y0173998D01*
X0092350Y0174090D01*
X0092500Y0174178D01*
X0092653Y0174262D01*
X0092808Y0174342D01*
X0092964Y0174418D01*
X0093123Y0174491D01*
X0093283Y0174560D01*
X0093445Y0174624D01*
X0093608Y0174685D01*
X0093773Y0174742D01*
X0093939Y0174794D01*
X0094106Y0174843D01*
X0094275Y0174887D01*
X0094444Y0174927D01*
X0094615Y0174964D01*
X0094786Y0174995D01*
X0094958Y0175023D01*
X0095131Y0175047D01*
X0095304Y0175066D01*
X0095478Y0175081D01*
X0095652Y0175091D01*
X0095826Y0175098D01*
X0096000Y0175100D01*
X0096174Y0175098D01*
X0096348Y0175091D01*
X0096522Y0175081D01*
X0096696Y0175066D01*
X0096869Y0175047D01*
X0097042Y0175023D01*
X0097214Y0174995D01*
X0097385Y0174964D01*
X0097556Y0174927D01*
X0097725Y0174887D01*
X0097894Y0174843D01*
X0098061Y0174794D01*
X0098227Y0174742D01*
X0098392Y0174685D01*
X0098555Y0174624D01*
X0098717Y0174560D01*
X0098877Y0174491D01*
X0099036Y0174418D01*
X0099192Y0174342D01*
X0099347Y0174262D01*
X0099500Y0174178D01*
X0099650Y0174090D01*
X0099798Y0173998D01*
X0099945Y0173903D01*
X0100088Y0173805D01*
X0100229Y0173703D01*
X0100368Y0173597D01*
X0100504Y0173488D01*
X0100638Y0173376D01*
X0100768Y0173261D01*
X0100896Y0173142D01*
X0101020Y0173020D01*
X0101142Y0172896D01*
X0101261Y0172768D01*
X0101376Y0172638D01*
X0101488Y0172504D01*
X0101597Y0172368D01*
X0101703Y0172229D01*
X0101805Y0172088D01*
X0101903Y0171945D01*
X0101998Y0171798D01*
X0102090Y0171650D01*
X0102178Y0171500D01*
X0102262Y0171347D01*
X0102342Y0171192D01*
X0102418Y0171036D01*
X0102491Y0170877D01*
X0102560Y0170717D01*
X0102624Y0170555D01*
X0102685Y0170392D01*
X0102742Y0170227D01*
X0102794Y0170061D01*
X0102843Y0169894D01*
X0102887Y0169725D01*
X0102927Y0169556D01*
X0102964Y0169385D01*
X0102995Y0169214D01*
X0103023Y0169042D01*
X0103047Y0168869D01*
X0103066Y0168696D01*
X0103081Y0168522D01*
X0103091Y0168348D01*
X0103098Y0168174D01*
X0103100Y0168000D01*
X0103098Y0167826D01*
X0103091Y0167652D01*
X0103081Y0167478D01*
X0103066Y0167304D01*
X0103047Y0167131D01*
X0103023Y0166958D01*
X0102995Y0166786D01*
X0102964Y0166615D01*
X0102927Y0166444D01*
X0102887Y0166275D01*
X0102843Y0166106D01*
X0102794Y0165939D01*
X0102742Y0165773D01*
X0102685Y0165608D01*
X0102624Y0165445D01*
X0102560Y0165283D01*
X0102491Y0165123D01*
X0102418Y0164964D01*
X0102342Y0164808D01*
X0102262Y0164653D01*
X0102178Y0164500D01*
X0102090Y0164350D01*
X0101998Y0164202D01*
X0101903Y0164055D01*
X0101805Y0163912D01*
X0101703Y0163771D01*
X0101597Y0163632D01*
X0101488Y0163496D01*
X0101376Y0163362D01*
X0101261Y0163232D01*
X0101142Y0163104D01*
X0101020Y0162980D01*
X0100896Y0162858D01*
X0100768Y0162739D01*
X0100638Y0162624D01*
X0100504Y0162512D01*
X0100368Y0162403D01*
X0100229Y0162297D01*
X0100088Y0162195D01*
X0099945Y0162097D01*
X0099798Y0162002D01*
X0099650Y0161910D01*
X0099500Y0161822D01*
X0099347Y0161738D01*
X0099192Y0161658D01*
X0099036Y0161582D01*
X0098877Y0161509D01*
X0098717Y0161440D01*
X0098555Y0161376D01*
X0098392Y0161315D01*
X0098227Y0161258D01*
X0098061Y0161206D01*
X0097894Y0161157D01*
X0097725Y0161113D01*
X0097556Y0161073D01*
X0097385Y0161036D01*
X0097214Y0161005D01*
X0097042Y0160977D01*
X0096869Y0160953D01*
X0096696Y0160934D01*
X0096522Y0160919D01*
X0096348Y0160909D01*
X0096174Y0160902D01*
X0096000Y0160900D01*
X0095826Y0160902D01*
X0095652Y0160909D01*
X0095478Y0160919D01*
X0095304Y0160934D01*
X0095131Y0160953D01*
X0094958Y0160977D01*
X0094786Y0161005D01*
X0094615Y0161036D01*
X0094444Y0161073D01*
X0094275Y0161113D01*
X0094106Y0161157D01*
X0093939Y0161206D01*
X0093773Y0161258D01*
X0093608Y0161315D01*
X0093445Y0161376D01*
X0093283Y0161440D01*
X0093123Y0161509D01*
X0092964Y0161582D01*
X0092808Y0161658D01*
X0092653Y0161738D01*
X0092500Y0161822D01*
X0092350Y0161910D01*
X0092202Y0162002D01*
X0092055Y0162097D01*
X0091912Y0162195D01*
X0091771Y0162297D01*
X0091632Y0162403D01*
X0091496Y0162512D01*
X0091362Y0162624D01*
X0091232Y0162739D01*
X0091104Y0162858D01*
X0090980Y0162980D01*
X0090858Y0163104D01*
X0090739Y0163232D01*
X0090624Y0163362D01*
X0090512Y0163496D01*
X0090403Y0163632D01*
X0090297Y0163771D01*
X0090195Y0163912D01*
X0090097Y0164055D01*
X0090002Y0164202D01*
X0089910Y0164350D01*
X0089822Y0164500D01*
X0089738Y0164653D01*
X0089658Y0164808D01*
X0089582Y0164964D01*
X0089509Y0165123D01*
X0089440Y0165283D01*
X0089376Y0165445D01*
X0089315Y0165608D01*
X0089258Y0165773D01*
X0089206Y0165939D01*
X0089157Y0166106D01*
X0089113Y0166275D01*
X0089073Y0166444D01*
X0089036Y0166615D01*
X0089005Y0166786D01*
X0088977Y0166958D01*
X0088953Y0167131D01*
X0088934Y0167304D01*
X0088919Y0167478D01*
X0088909Y0167652D01*
X0088902Y0167826D01*
X0088900Y0168000D01*
X0088201Y0158653D02*
X0085932Y0158653D01*
X0088201Y0158653D02*
X0088201Y0158086D01*
X0085932Y0155817D01*
X0085932Y0155250D01*
X0084610Y0155250D02*
X0082341Y0155250D01*
X0083475Y0155250D02*
X0083475Y0158653D01*
X0082341Y0157519D01*
X0081019Y0157519D02*
X0081019Y0155250D01*
X0081019Y0156951D02*
X0078750Y0156951D01*
X0078750Y0157519D02*
X0079884Y0158653D01*
X0081019Y0157519D01*
X0078750Y0157519D02*
X0078750Y0155250D01*
X0089523Y0154116D02*
X0090658Y0155250D01*
X0090090Y0155250D01*
X0090090Y0155817D01*
X0090658Y0155817D01*
X0090658Y0155250D01*
X0091917Y0155817D02*
X0092484Y0155250D01*
X0093619Y0155250D01*
X0094186Y0155817D01*
X0094186Y0156951D01*
X0093619Y0157519D01*
X0093052Y0157519D01*
X0091917Y0156951D01*
X0091917Y0158653D01*
X0094186Y0158653D01*
X0095508Y0157519D02*
X0096075Y0157519D01*
X0096643Y0156951D01*
X0097210Y0157519D01*
X0097777Y0156951D01*
X0097777Y0155250D01*
X0096643Y0155250D02*
X0096643Y0156951D01*
X0095508Y0157519D02*
X0095508Y0155250D01*
X0099099Y0155250D02*
X0099099Y0157519D01*
X0099667Y0157519D01*
X0100234Y0156951D01*
X0100801Y0157519D01*
X0101368Y0156951D01*
X0101368Y0155250D01*
X0100234Y0155250D02*
X0100234Y0156951D01*
X0120500Y0168000D02*
X0124000Y0168000D01*
X0124000Y0174000D01*
X0120500Y0174000D01*
X0120500Y0181500D01*
X0161500Y0181500D01*
X0161500Y0174000D01*
X0158000Y0174000D01*
X0158000Y0168000D01*
X0161500Y0168000D01*
X0161500Y0119000D01*
X0120500Y0119000D01*
X0120500Y0168000D01*
X0124884Y0158653D02*
X0126019Y0157519D01*
X0126019Y0155250D01*
X0127341Y0155250D02*
X0129610Y0155250D01*
X0128475Y0155250D02*
X0128475Y0158653D01*
X0127341Y0157519D01*
X0126019Y0156951D02*
X0123750Y0156951D01*
X0123750Y0157519D02*
X0124884Y0158653D01*
X0123750Y0157519D02*
X0123750Y0155250D01*
X0130932Y0155250D02*
X0130932Y0155817D01*
X0133201Y0158086D01*
X0133201Y0158653D01*
X0130932Y0158653D01*
X0135090Y0155817D02*
X0135090Y0155250D01*
X0135658Y0155250D01*
X0135658Y0155817D01*
X0135090Y0155817D01*
X0135658Y0155250D02*
X0134523Y0154116D01*
X0136917Y0155817D02*
X0137484Y0155250D01*
X0138619Y0155250D01*
X0139186Y0155817D01*
X0139186Y0156951D01*
X0138619Y0157519D01*
X0138052Y0157519D01*
X0136917Y0156951D01*
X0136917Y0158653D01*
X0139186Y0158653D01*
X0140508Y0157519D02*
X0141075Y0157519D01*
X0141643Y0156951D01*
X0142210Y0157519D01*
X0142777Y0156951D01*
X0142777Y0155250D01*
X0141643Y0155250D02*
X0141643Y0156951D01*
X0140508Y0157519D02*
X0140508Y0155250D01*
X0144099Y0155250D02*
X0144099Y0157519D01*
X0144667Y0157519D01*
X0145234Y0156951D01*
X0145801Y0157519D01*
X0146368Y0156951D01*
X0146368Y0155250D01*
X0145234Y0155250D02*
X0145234Y0156951D01*
X0133900Y0168000D02*
X0133902Y0168174D01*
X0133909Y0168348D01*
X0133919Y0168522D01*
X0133934Y0168696D01*
X0133953Y0168869D01*
X0133977Y0169042D01*
X0134005Y0169214D01*
X0134036Y0169385D01*
X0134073Y0169556D01*
X0134113Y0169725D01*
X0134157Y0169894D01*
X0134206Y0170061D01*
X0134258Y0170227D01*
X0134315Y0170392D01*
X0134376Y0170555D01*
X0134440Y0170717D01*
X0134509Y0170877D01*
X0134582Y0171036D01*
X0134658Y0171192D01*
X0134738Y0171347D01*
X0134822Y0171500D01*
X0134910Y0171650D01*
X0135002Y0171798D01*
X0135097Y0171945D01*
X0135195Y0172088D01*
X0135297Y0172229D01*
X0135403Y0172368D01*
X0135512Y0172504D01*
X0135624Y0172638D01*
X0135739Y0172768D01*
X0135858Y0172896D01*
X0135980Y0173020D01*
X0136104Y0173142D01*
X0136232Y0173261D01*
X0136362Y0173376D01*
X0136496Y0173488D01*
X0136632Y0173597D01*
X0136771Y0173703D01*
X0136912Y0173805D01*
X0137055Y0173903D01*
X0137202Y0173998D01*
X0137350Y0174090D01*
X0137500Y0174178D01*
X0137653Y0174262D01*
X0137808Y0174342D01*
X0137964Y0174418D01*
X0138123Y0174491D01*
X0138283Y0174560D01*
X0138445Y0174624D01*
X0138608Y0174685D01*
X0138773Y0174742D01*
X0138939Y0174794D01*
X0139106Y0174843D01*
X0139275Y0174887D01*
X0139444Y0174927D01*
X0139615Y0174964D01*
X0139786Y0174995D01*
X0139958Y0175023D01*
X0140131Y0175047D01*
X0140304Y0175066D01*
X0140478Y0175081D01*
X0140652Y0175091D01*
X0140826Y0175098D01*
X0141000Y0175100D01*
X0141174Y0175098D01*
X0141348Y0175091D01*
X0141522Y0175081D01*
X0141696Y0175066D01*
X0141869Y0175047D01*
X0142042Y0175023D01*
X0142214Y0174995D01*
X0142385Y0174964D01*
X0142556Y0174927D01*
X0142725Y0174887D01*
X0142894Y0174843D01*
X0143061Y0174794D01*
X0143227Y0174742D01*
X0143392Y0174685D01*
X0143555Y0174624D01*
X0143717Y0174560D01*
X0143877Y0174491D01*
X0144036Y0174418D01*
X0144192Y0174342D01*
X0144347Y0174262D01*
X0144500Y0174178D01*
X0144650Y0174090D01*
X0144798Y0173998D01*
X0144945Y0173903D01*
X0145088Y0173805D01*
X0145229Y0173703D01*
X0145368Y0173597D01*
X0145504Y0173488D01*
X0145638Y0173376D01*
X0145768Y0173261D01*
X0145896Y0173142D01*
X0146020Y0173020D01*
X0146142Y0172896D01*
X0146261Y0172768D01*
X0146376Y0172638D01*
X0146488Y0172504D01*
X0146597Y0172368D01*
X0146703Y0172229D01*
X0146805Y0172088D01*
X0146903Y0171945D01*
X0146998Y0171798D01*
X0147090Y0171650D01*
X0147178Y0171500D01*
X0147262Y0171347D01*
X0147342Y0171192D01*
X0147418Y0171036D01*
X0147491Y0170877D01*
X0147560Y0170717D01*
X0147624Y0170555D01*
X0147685Y0170392D01*
X0147742Y0170227D01*
X0147794Y0170061D01*
X0147843Y0169894D01*
X0147887Y0169725D01*
X0147927Y0169556D01*
X0147964Y0169385D01*
X0147995Y0169214D01*
X0148023Y0169042D01*
X0148047Y0168869D01*
X0148066Y0168696D01*
X0148081Y0168522D01*
X0148091Y0168348D01*
X0148098Y0168174D01*
X0148100Y0168000D01*
X0148098Y0167826D01*
X0148091Y0167652D01*
X0148081Y0167478D01*
X0148066Y0167304D01*
X0148047Y0167131D01*
X0148023Y0166958D01*
X0147995Y0166786D01*
X0147964Y0166615D01*
X0147927Y0166444D01*
X0147887Y0166275D01*
X0147843Y0166106D01*
X0147794Y0165939D01*
X0147742Y0165773D01*
X0147685Y0165608D01*
X0147624Y0165445D01*
X0147560Y0165283D01*
X0147491Y0165123D01*
X0147418Y0164964D01*
X0147342Y0164808D01*
X0147262Y0164653D01*
X0147178Y0164500D01*
X0147090Y0164350D01*
X0146998Y0164202D01*
X0146903Y0164055D01*
X0146805Y0163912D01*
X0146703Y0163771D01*
X0146597Y0163632D01*
X0146488Y0163496D01*
X0146376Y0163362D01*
X0146261Y0163232D01*
X0146142Y0163104D01*
X0146020Y0162980D01*
X0145896Y0162858D01*
X0145768Y0162739D01*
X0145638Y0162624D01*
X0145504Y0162512D01*
X0145368Y0162403D01*
X0145229Y0162297D01*
X0145088Y0162195D01*
X0144945Y0162097D01*
X0144798Y0162002D01*
X0144650Y0161910D01*
X0144500Y0161822D01*
X0144347Y0161738D01*
X0144192Y0161658D01*
X0144036Y0161582D01*
X0143877Y0161509D01*
X0143717Y0161440D01*
X0143555Y0161376D01*
X0143392Y0161315D01*
X0143227Y0161258D01*
X0143061Y0161206D01*
X0142894Y0161157D01*
X0142725Y0161113D01*
X0142556Y0161073D01*
X0142385Y0161036D01*
X0142214Y0161005D01*
X0142042Y0160977D01*
X0141869Y0160953D01*
X0141696Y0160934D01*
X0141522Y0160919D01*
X0141348Y0160909D01*
X0141174Y0160902D01*
X0141000Y0160900D01*
X0140826Y0160902D01*
X0140652Y0160909D01*
X0140478Y0160919D01*
X0140304Y0160934D01*
X0140131Y0160953D01*
X0139958Y0160977D01*
X0139786Y0161005D01*
X0139615Y0161036D01*
X0139444Y0161073D01*
X0139275Y0161113D01*
X0139106Y0161157D01*
X0138939Y0161206D01*
X0138773Y0161258D01*
X0138608Y0161315D01*
X0138445Y0161376D01*
X0138283Y0161440D01*
X0138123Y0161509D01*
X0137964Y0161582D01*
X0137808Y0161658D01*
X0137653Y0161738D01*
X0137500Y0161822D01*
X0137350Y0161910D01*
X0137202Y0162002D01*
X0137055Y0162097D01*
X0136912Y0162195D01*
X0136771Y0162297D01*
X0136632Y0162403D01*
X0136496Y0162512D01*
X0136362Y0162624D01*
X0136232Y0162739D01*
X0136104Y0162858D01*
X0135980Y0162980D01*
X0135858Y0163104D01*
X0135739Y0163232D01*
X0135624Y0163362D01*
X0135512Y0163496D01*
X0135403Y0163632D01*
X0135297Y0163771D01*
X0135195Y0163912D01*
X0135097Y0164055D01*
X0135002Y0164202D01*
X0134910Y0164350D01*
X0134822Y0164500D01*
X0134738Y0164653D01*
X0134658Y0164808D01*
X0134582Y0164964D01*
X0134509Y0165123D01*
X0134440Y0165283D01*
X0134376Y0165445D01*
X0134315Y0165608D01*
X0134258Y0165773D01*
X0134206Y0165939D01*
X0134157Y0166106D01*
X0134113Y0166275D01*
X0134073Y0166444D01*
X0134036Y0166615D01*
X0134005Y0166786D01*
X0133977Y0166958D01*
X0133953Y0167131D01*
X0133934Y0167304D01*
X0133919Y0167478D01*
X0133909Y0167652D01*
X0133902Y0167826D01*
X0133900Y0168000D01*
X0165500Y0168000D02*
X0169000Y0168000D01*
X0169000Y0174000D01*
X0165500Y0174000D01*
X0165500Y0181500D01*
X0206500Y0181500D01*
X0206500Y0174000D01*
X0203000Y0174000D01*
X0203000Y0168000D01*
X0206500Y0168000D01*
X0206500Y0119000D01*
X0165500Y0119000D01*
X0165500Y0168000D01*
X0169884Y0158653D02*
X0171019Y0157519D01*
X0171019Y0155250D01*
X0172341Y0155250D02*
X0174610Y0155250D01*
X0173475Y0155250D02*
X0173475Y0158653D01*
X0172341Y0157519D01*
X0171019Y0156951D02*
X0168750Y0156951D01*
X0168750Y0157519D02*
X0169884Y0158653D01*
X0168750Y0157519D02*
X0168750Y0155250D01*
X0175932Y0155250D02*
X0175932Y0155817D01*
X0178201Y0158086D01*
X0178201Y0158653D01*
X0175932Y0158653D01*
X0179523Y0154116D02*
X0180658Y0155250D01*
X0180090Y0155250D01*
X0180090Y0155817D01*
X0180658Y0155817D01*
X0180658Y0155250D01*
X0181917Y0155817D02*
X0182484Y0155250D01*
X0183619Y0155250D01*
X0184186Y0155817D01*
X0184186Y0156951D01*
X0183619Y0157519D01*
X0183052Y0157519D01*
X0181917Y0156951D01*
X0181917Y0158653D01*
X0184186Y0158653D01*
X0185508Y0157519D02*
X0186075Y0157519D01*
X0186643Y0156951D01*
X0187210Y0157519D01*
X0187777Y0156951D01*
X0187777Y0155250D01*
X0186643Y0155250D02*
X0186643Y0156951D01*
X0185508Y0157519D02*
X0185508Y0155250D01*
X0189099Y0155250D02*
X0189099Y0157519D01*
X0189667Y0157519D01*
X0190234Y0156951D01*
X0190801Y0157519D01*
X0191368Y0156951D01*
X0191368Y0155250D01*
X0190234Y0155250D02*
X0190234Y0156951D01*
X0178900Y0168000D02*
X0178902Y0168174D01*
X0178909Y0168348D01*
X0178919Y0168522D01*
X0178934Y0168696D01*
X0178953Y0168869D01*
X0178977Y0169042D01*
X0179005Y0169214D01*
X0179036Y0169385D01*
X0179073Y0169556D01*
X0179113Y0169725D01*
X0179157Y0169894D01*
X0179206Y0170061D01*
X0179258Y0170227D01*
X0179315Y0170392D01*
X0179376Y0170555D01*
X0179440Y0170717D01*
X0179509Y0170877D01*
X0179582Y0171036D01*
X0179658Y0171192D01*
X0179738Y0171347D01*
X0179822Y0171500D01*
X0179910Y0171650D01*
X0180002Y0171798D01*
X0180097Y0171945D01*
X0180195Y0172088D01*
X0180297Y0172229D01*
X0180403Y0172368D01*
X0180512Y0172504D01*
X0180624Y0172638D01*
X0180739Y0172768D01*
X0180858Y0172896D01*
X0180980Y0173020D01*
X0181104Y0173142D01*
X0181232Y0173261D01*
X0181362Y0173376D01*
X0181496Y0173488D01*
X0181632Y0173597D01*
X0181771Y0173703D01*
X0181912Y0173805D01*
X0182055Y0173903D01*
X0182202Y0173998D01*
X0182350Y0174090D01*
X0182500Y0174178D01*
X0182653Y0174262D01*
X0182808Y0174342D01*
X0182964Y0174418D01*
X0183123Y0174491D01*
X0183283Y0174560D01*
X0183445Y0174624D01*
X0183608Y0174685D01*
X0183773Y0174742D01*
X0183939Y0174794D01*
X0184106Y0174843D01*
X0184275Y0174887D01*
X0184444Y0174927D01*
X0184615Y0174964D01*
X0184786Y0174995D01*
X0184958Y0175023D01*
X0185131Y0175047D01*
X0185304Y0175066D01*
X0185478Y0175081D01*
X0185652Y0175091D01*
X0185826Y0175098D01*
X0186000Y0175100D01*
X0186174Y0175098D01*
X0186348Y0175091D01*
X0186522Y0175081D01*
X0186696Y0175066D01*
X0186869Y0175047D01*
X0187042Y0175023D01*
X0187214Y0174995D01*
X0187385Y0174964D01*
X0187556Y0174927D01*
X0187725Y0174887D01*
X0187894Y0174843D01*
X0188061Y0174794D01*
X0188227Y0174742D01*
X0188392Y0174685D01*
X0188555Y0174624D01*
X0188717Y0174560D01*
X0188877Y0174491D01*
X0189036Y0174418D01*
X0189192Y0174342D01*
X0189347Y0174262D01*
X0189500Y0174178D01*
X0189650Y0174090D01*
X0189798Y0173998D01*
X0189945Y0173903D01*
X0190088Y0173805D01*
X0190229Y0173703D01*
X0190368Y0173597D01*
X0190504Y0173488D01*
X0190638Y0173376D01*
X0190768Y0173261D01*
X0190896Y0173142D01*
X0191020Y0173020D01*
X0191142Y0172896D01*
X0191261Y0172768D01*
X0191376Y0172638D01*
X0191488Y0172504D01*
X0191597Y0172368D01*
X0191703Y0172229D01*
X0191805Y0172088D01*
X0191903Y0171945D01*
X0191998Y0171798D01*
X0192090Y0171650D01*
X0192178Y0171500D01*
X0192262Y0171347D01*
X0192342Y0171192D01*
X0192418Y0171036D01*
X0192491Y0170877D01*
X0192560Y0170717D01*
X0192624Y0170555D01*
X0192685Y0170392D01*
X0192742Y0170227D01*
X0192794Y0170061D01*
X0192843Y0169894D01*
X0192887Y0169725D01*
X0192927Y0169556D01*
X0192964Y0169385D01*
X0192995Y0169214D01*
X0193023Y0169042D01*
X0193047Y0168869D01*
X0193066Y0168696D01*
X0193081Y0168522D01*
X0193091Y0168348D01*
X0193098Y0168174D01*
X0193100Y0168000D01*
X0193098Y0167826D01*
X0193091Y0167652D01*
X0193081Y0167478D01*
X0193066Y0167304D01*
X0193047Y0167131D01*
X0193023Y0166958D01*
X0192995Y0166786D01*
X0192964Y0166615D01*
X0192927Y0166444D01*
X0192887Y0166275D01*
X0192843Y0166106D01*
X0192794Y0165939D01*
X0192742Y0165773D01*
X0192685Y0165608D01*
X0192624Y0165445D01*
X0192560Y0165283D01*
X0192491Y0165123D01*
X0192418Y0164964D01*
X0192342Y0164808D01*
X0192262Y0164653D01*
X0192178Y0164500D01*
X0192090Y0164350D01*
X0191998Y0164202D01*
X0191903Y0164055D01*
X0191805Y0163912D01*
X0191703Y0163771D01*
X0191597Y0163632D01*
X0191488Y0163496D01*
X0191376Y0163362D01*
X0191261Y0163232D01*
X0191142Y0163104D01*
X0191020Y0162980D01*
X0190896Y0162858D01*
X0190768Y0162739D01*
X0190638Y0162624D01*
X0190504Y0162512D01*
X0190368Y0162403D01*
X0190229Y0162297D01*
X0190088Y0162195D01*
X0189945Y0162097D01*
X0189798Y0162002D01*
X0189650Y0161910D01*
X0189500Y0161822D01*
X0189347Y0161738D01*
X0189192Y0161658D01*
X0189036Y0161582D01*
X0188877Y0161509D01*
X0188717Y0161440D01*
X0188555Y0161376D01*
X0188392Y0161315D01*
X0188227Y0161258D01*
X0188061Y0161206D01*
X0187894Y0161157D01*
X0187725Y0161113D01*
X0187556Y0161073D01*
X0187385Y0161036D01*
X0187214Y0161005D01*
X0187042Y0160977D01*
X0186869Y0160953D01*
X0186696Y0160934D01*
X0186522Y0160919D01*
X0186348Y0160909D01*
X0186174Y0160902D01*
X0186000Y0160900D01*
X0185826Y0160902D01*
X0185652Y0160909D01*
X0185478Y0160919D01*
X0185304Y0160934D01*
X0185131Y0160953D01*
X0184958Y0160977D01*
X0184786Y0161005D01*
X0184615Y0161036D01*
X0184444Y0161073D01*
X0184275Y0161113D01*
X0184106Y0161157D01*
X0183939Y0161206D01*
X0183773Y0161258D01*
X0183608Y0161315D01*
X0183445Y0161376D01*
X0183283Y0161440D01*
X0183123Y0161509D01*
X0182964Y0161582D01*
X0182808Y0161658D01*
X0182653Y0161738D01*
X0182500Y0161822D01*
X0182350Y0161910D01*
X0182202Y0162002D01*
X0182055Y0162097D01*
X0181912Y0162195D01*
X0181771Y0162297D01*
X0181632Y0162403D01*
X0181496Y0162512D01*
X0181362Y0162624D01*
X0181232Y0162739D01*
X0181104Y0162858D01*
X0180980Y0162980D01*
X0180858Y0163104D01*
X0180739Y0163232D01*
X0180624Y0163362D01*
X0180512Y0163496D01*
X0180403Y0163632D01*
X0180297Y0163771D01*
X0180195Y0163912D01*
X0180097Y0164055D01*
X0180002Y0164202D01*
X0179910Y0164350D01*
X0179822Y0164500D01*
X0179738Y0164653D01*
X0179658Y0164808D01*
X0179582Y0164964D01*
X0179509Y0165123D01*
X0179440Y0165283D01*
X0179376Y0165445D01*
X0179315Y0165608D01*
X0179258Y0165773D01*
X0179206Y0165939D01*
X0179157Y0166106D01*
X0179113Y0166275D01*
X0179073Y0166444D01*
X0179036Y0166615D01*
X0179005Y0166786D01*
X0178977Y0166958D01*
X0178953Y0167131D01*
X0178934Y0167304D01*
X0178919Y0167478D01*
X0178909Y0167652D01*
X0178902Y0167826D01*
X0178900Y0168000D01*
X0225000Y0185000D02*
X0225000Y0013000D01*
X0297000Y0013000D01*
X0297000Y0185000D01*
X0225000Y0185000D01*
X0232201Y0206950D02*
X0231450Y0207701D01*
X0232201Y0206950D02*
X0233702Y0206950D01*
X0234453Y0207701D01*
X0234453Y0208451D01*
X0233702Y0209202D01*
X0232951Y0209202D01*
X0233702Y0209202D02*
X0234453Y0209953D01*
X0234453Y0210703D01*
X0233702Y0211454D01*
X0232201Y0211454D01*
X0231450Y0210703D01*
X0231450Y0238450D02*
X0234453Y0238450D01*
X0232951Y0238450D02*
X0232951Y0242954D01*
X0231450Y0241453D01*
X0232701Y0252950D02*
X0231950Y0253701D01*
X0232701Y0252950D02*
X0234202Y0252950D01*
X0234953Y0253701D01*
X0234953Y0254451D01*
X0234202Y0255202D01*
X0232701Y0255202D01*
X0231950Y0255953D01*
X0231950Y0256703D01*
X0232701Y0257454D01*
X0234202Y0257454D01*
X0234953Y0256703D01*
X0236554Y0255953D02*
X0238055Y0257454D01*
X0238055Y0252950D01*
X0236554Y0252950D02*
X0239556Y0252950D01*
X0229856Y0281750D02*
X0226854Y0281750D01*
X0229856Y0284753D01*
X0229856Y0285503D01*
X0229106Y0286254D01*
X0227605Y0286254D01*
X0226854Y0285503D01*
X0225253Y0285503D02*
X0224502Y0286254D01*
X0223001Y0286254D01*
X0222250Y0285503D01*
X0222250Y0282501D01*
X0223001Y0281750D01*
X0224502Y0281750D01*
X0225253Y0282501D01*
X0224502Y0306750D02*
X0223001Y0306750D01*
X0222250Y0307501D01*
X0222250Y0310503D01*
X0223001Y0311254D01*
X0224502Y0311254D01*
X0225253Y0310503D01*
X0226854Y0309753D02*
X0228355Y0311254D01*
X0228355Y0306750D01*
X0226854Y0306750D02*
X0229856Y0306750D01*
X0225253Y0307501D02*
X0224502Y0306750D01*
X0226250Y0328250D02*
X0226250Y0332754D01*
X0228502Y0332754D01*
X0229253Y0332003D01*
X0229253Y0330502D01*
X0228502Y0329751D01*
X0226250Y0329751D01*
X0227751Y0329751D02*
X0229253Y0328250D01*
X0230854Y0330502D02*
X0233106Y0332754D01*
X0233106Y0328250D01*
X0233856Y0330502D02*
X0230854Y0330502D01*
X0268201Y0242954D02*
X0267450Y0242203D01*
X0268201Y0242954D02*
X0269702Y0242954D01*
X0270453Y0242203D01*
X0270453Y0241453D01*
X0267450Y0238450D01*
X0270453Y0238450D01*
X0270202Y0211454D02*
X0267950Y0209202D01*
X0270953Y0209202D01*
X0270202Y0206950D02*
X0270202Y0211454D01*
X0273242Y0186854D02*
X0275494Y0186854D01*
X0276245Y0186103D01*
X0276245Y0184602D01*
X0275494Y0183851D01*
X0273242Y0183851D01*
X0273242Y0182350D02*
X0273242Y0186854D01*
X0274743Y0183851D02*
X0276245Y0182350D01*
X0277846Y0182350D02*
X0280849Y0185353D01*
X0280849Y0186103D01*
X0280098Y0186854D01*
X0278597Y0186854D01*
X0277846Y0186103D01*
X0277846Y0182350D02*
X0280849Y0182350D01*
X0125724Y0033843D02*
X0125724Y0027150D01*
X0066276Y0027150D01*
X0066276Y0003528D01*
X0125724Y0003528D01*
X0125724Y0027150D01*
X0125724Y0033843D02*
X0066276Y0033843D01*
X0066276Y0027150D01*
X0099042Y0033250D02*
X0099042Y0037754D01*
X0101294Y0037754D01*
X0102045Y0037003D01*
X0102045Y0035502D01*
X0101294Y0034751D01*
X0099042Y0034751D01*
X0100543Y0034751D02*
X0102045Y0033250D01*
X0103646Y0033250D02*
X0106649Y0033250D01*
X0105147Y0033250D02*
X0105147Y0037754D01*
X0103646Y0036253D01*
X0044523Y0154116D02*
X0045658Y0155250D01*
X0045090Y0155250D01*
X0045090Y0155817D01*
X0045658Y0155817D01*
X0045658Y0155250D01*
X0046917Y0155817D02*
X0047484Y0155250D01*
X0048619Y0155250D01*
X0049186Y0155817D01*
X0049186Y0156951D01*
X0048619Y0157519D01*
X0048052Y0157519D01*
X0046917Y0156951D01*
X0046917Y0158653D01*
X0049186Y0158653D01*
X0050508Y0157519D02*
X0051075Y0157519D01*
X0051643Y0156951D01*
X0052210Y0157519D01*
X0052777Y0156951D01*
X0052777Y0155250D01*
X0051643Y0155250D02*
X0051643Y0156951D01*
X0050508Y0157519D02*
X0050508Y0155250D01*
X0054099Y0155250D02*
X0054099Y0157519D01*
X0054667Y0157519D01*
X0055234Y0156951D01*
X0055801Y0157519D01*
X0056368Y0156951D01*
X0056368Y0155250D01*
X0055234Y0155250D02*
X0055234Y0156951D01*
X0043900Y0168000D02*
X0043902Y0168174D01*
X0043909Y0168348D01*
X0043919Y0168522D01*
X0043934Y0168696D01*
X0043953Y0168869D01*
X0043977Y0169042D01*
X0044005Y0169214D01*
X0044036Y0169385D01*
X0044073Y0169556D01*
X0044113Y0169725D01*
X0044157Y0169894D01*
X0044206Y0170061D01*
X0044258Y0170227D01*
X0044315Y0170392D01*
X0044376Y0170555D01*
X0044440Y0170717D01*
X0044509Y0170877D01*
X0044582Y0171036D01*
X0044658Y0171192D01*
X0044738Y0171347D01*
X0044822Y0171500D01*
X0044910Y0171650D01*
X0045002Y0171798D01*
X0045097Y0171945D01*
X0045195Y0172088D01*
X0045297Y0172229D01*
X0045403Y0172368D01*
X0045512Y0172504D01*
X0045624Y0172638D01*
X0045739Y0172768D01*
X0045858Y0172896D01*
X0045980Y0173020D01*
X0046104Y0173142D01*
X0046232Y0173261D01*
X0046362Y0173376D01*
X0046496Y0173488D01*
X0046632Y0173597D01*
X0046771Y0173703D01*
X0046912Y0173805D01*
X0047055Y0173903D01*
X0047202Y0173998D01*
X0047350Y0174090D01*
X0047500Y0174178D01*
X0047653Y0174262D01*
X0047808Y0174342D01*
X0047964Y0174418D01*
X0048123Y0174491D01*
X0048283Y0174560D01*
X0048445Y0174624D01*
X0048608Y0174685D01*
X0048773Y0174742D01*
X0048939Y0174794D01*
X0049106Y0174843D01*
X0049275Y0174887D01*
X0049444Y0174927D01*
X0049615Y0174964D01*
X0049786Y0174995D01*
X0049958Y0175023D01*
X0050131Y0175047D01*
X0050304Y0175066D01*
X0050478Y0175081D01*
X0050652Y0175091D01*
X0050826Y0175098D01*
X0051000Y0175100D01*
X0051174Y0175098D01*
X0051348Y0175091D01*
X0051522Y0175081D01*
X0051696Y0175066D01*
X0051869Y0175047D01*
X0052042Y0175023D01*
X0052214Y0174995D01*
X0052385Y0174964D01*
X0052556Y0174927D01*
X0052725Y0174887D01*
X0052894Y0174843D01*
X0053061Y0174794D01*
X0053227Y0174742D01*
X0053392Y0174685D01*
X0053555Y0174624D01*
X0053717Y0174560D01*
X0053877Y0174491D01*
X0054036Y0174418D01*
X0054192Y0174342D01*
X0054347Y0174262D01*
X0054500Y0174178D01*
X0054650Y0174090D01*
X0054798Y0173998D01*
X0054945Y0173903D01*
X0055088Y0173805D01*
X0055229Y0173703D01*
X0055368Y0173597D01*
X0055504Y0173488D01*
X0055638Y0173376D01*
X0055768Y0173261D01*
X0055896Y0173142D01*
X0056020Y0173020D01*
X0056142Y0172896D01*
X0056261Y0172768D01*
X0056376Y0172638D01*
X0056488Y0172504D01*
X0056597Y0172368D01*
X0056703Y0172229D01*
X0056805Y0172088D01*
X0056903Y0171945D01*
X0056998Y0171798D01*
X0057090Y0171650D01*
X0057178Y0171500D01*
X0057262Y0171347D01*
X0057342Y0171192D01*
X0057418Y0171036D01*
X0057491Y0170877D01*
X0057560Y0170717D01*
X0057624Y0170555D01*
X0057685Y0170392D01*
X0057742Y0170227D01*
X0057794Y0170061D01*
X0057843Y0169894D01*
X0057887Y0169725D01*
X0057927Y0169556D01*
X0057964Y0169385D01*
X0057995Y0169214D01*
X0058023Y0169042D01*
X0058047Y0168869D01*
X0058066Y0168696D01*
X0058081Y0168522D01*
X0058091Y0168348D01*
X0058098Y0168174D01*
X0058100Y0168000D01*
X0058098Y0167826D01*
X0058091Y0167652D01*
X0058081Y0167478D01*
X0058066Y0167304D01*
X0058047Y0167131D01*
X0058023Y0166958D01*
X0057995Y0166786D01*
X0057964Y0166615D01*
X0057927Y0166444D01*
X0057887Y0166275D01*
X0057843Y0166106D01*
X0057794Y0165939D01*
X0057742Y0165773D01*
X0057685Y0165608D01*
X0057624Y0165445D01*
X0057560Y0165283D01*
X0057491Y0165123D01*
X0057418Y0164964D01*
X0057342Y0164808D01*
X0057262Y0164653D01*
X0057178Y0164500D01*
X0057090Y0164350D01*
X0056998Y0164202D01*
X0056903Y0164055D01*
X0056805Y0163912D01*
X0056703Y0163771D01*
X0056597Y0163632D01*
X0056488Y0163496D01*
X0056376Y0163362D01*
X0056261Y0163232D01*
X0056142Y0163104D01*
X0056020Y0162980D01*
X0055896Y0162858D01*
X0055768Y0162739D01*
X0055638Y0162624D01*
X0055504Y0162512D01*
X0055368Y0162403D01*
X0055229Y0162297D01*
X0055088Y0162195D01*
X0054945Y0162097D01*
X0054798Y0162002D01*
X0054650Y0161910D01*
X0054500Y0161822D01*
X0054347Y0161738D01*
X0054192Y0161658D01*
X0054036Y0161582D01*
X0053877Y0161509D01*
X0053717Y0161440D01*
X0053555Y0161376D01*
X0053392Y0161315D01*
X0053227Y0161258D01*
X0053061Y0161206D01*
X0052894Y0161157D01*
X0052725Y0161113D01*
X0052556Y0161073D01*
X0052385Y0161036D01*
X0052214Y0161005D01*
X0052042Y0160977D01*
X0051869Y0160953D01*
X0051696Y0160934D01*
X0051522Y0160919D01*
X0051348Y0160909D01*
X0051174Y0160902D01*
X0051000Y0160900D01*
X0050826Y0160902D01*
X0050652Y0160909D01*
X0050478Y0160919D01*
X0050304Y0160934D01*
X0050131Y0160953D01*
X0049958Y0160977D01*
X0049786Y0161005D01*
X0049615Y0161036D01*
X0049444Y0161073D01*
X0049275Y0161113D01*
X0049106Y0161157D01*
X0048939Y0161206D01*
X0048773Y0161258D01*
X0048608Y0161315D01*
X0048445Y0161376D01*
X0048283Y0161440D01*
X0048123Y0161509D01*
X0047964Y0161582D01*
X0047808Y0161658D01*
X0047653Y0161738D01*
X0047500Y0161822D01*
X0047350Y0161910D01*
X0047202Y0162002D01*
X0047055Y0162097D01*
X0046912Y0162195D01*
X0046771Y0162297D01*
X0046632Y0162403D01*
X0046496Y0162512D01*
X0046362Y0162624D01*
X0046232Y0162739D01*
X0046104Y0162858D01*
X0045980Y0162980D01*
X0045858Y0163104D01*
X0045739Y0163232D01*
X0045624Y0163362D01*
X0045512Y0163496D01*
X0045403Y0163632D01*
X0045297Y0163771D01*
X0045195Y0163912D01*
X0045097Y0164055D01*
X0045002Y0164202D01*
X0044910Y0164350D01*
X0044822Y0164500D01*
X0044738Y0164653D01*
X0044658Y0164808D01*
X0044582Y0164964D01*
X0044509Y0165123D01*
X0044440Y0165283D01*
X0044376Y0165445D01*
X0044315Y0165608D01*
X0044258Y0165773D01*
X0044206Y0165939D01*
X0044157Y0166106D01*
X0044113Y0166275D01*
X0044073Y0166444D01*
X0044036Y0166615D01*
X0044005Y0166786D01*
X0043977Y0166958D01*
X0043953Y0167131D01*
X0043934Y0167304D01*
X0043919Y0167478D01*
X0043909Y0167652D01*
X0043902Y0167826D01*
X0043900Y0168000D01*
X0043201Y0158653D02*
X0043201Y0158086D01*
X0040932Y0155817D01*
X0040932Y0155250D01*
X0039610Y0155250D02*
X0037341Y0155250D01*
X0038475Y0155250D02*
X0038475Y0158653D01*
X0037341Y0157519D01*
X0036019Y0157519D02*
X0036019Y0155250D01*
X0036019Y0156951D02*
X0033750Y0156951D01*
X0033750Y0157519D02*
X0034884Y0158653D01*
X0036019Y0157519D01*
X0033750Y0157519D02*
X0033750Y0155250D01*
X0040932Y0158653D02*
X0043201Y0158653D01*
D13*
X0033000Y0154000D02*
X0033000Y0121500D01*
X0069000Y0121500D01*
X0069000Y0154000D01*
X0033000Y0154000D01*
X0078000Y0154000D02*
X0078000Y0121500D01*
X0114000Y0121500D01*
X0114000Y0154000D01*
X0078000Y0154000D01*
X0123000Y0154000D02*
X0123000Y0121500D01*
X0159000Y0121500D01*
X0159000Y0154000D01*
X0123000Y0154000D01*
X0168000Y0154000D02*
X0168000Y0121500D01*
X0204000Y0121500D01*
X0204000Y0154000D01*
X0168000Y0154000D01*
X0245200Y0218700D02*
X0245200Y0231700D01*
X0258200Y0231700D01*
X0258200Y0218700D01*
X0245200Y0218700D01*
X0248700Y0225200D02*
X0248702Y0225309D01*
X0248708Y0225418D01*
X0248718Y0225526D01*
X0248732Y0225634D01*
X0248749Y0225742D01*
X0248771Y0225849D01*
X0248796Y0225955D01*
X0248826Y0226059D01*
X0248859Y0226163D01*
X0248896Y0226266D01*
X0248936Y0226367D01*
X0248980Y0226466D01*
X0249028Y0226564D01*
X0249080Y0226661D01*
X0249134Y0226755D01*
X0249192Y0226847D01*
X0249254Y0226937D01*
X0249319Y0227024D01*
X0249386Y0227110D01*
X0249457Y0227193D01*
X0249531Y0227273D01*
X0249608Y0227350D01*
X0249687Y0227425D01*
X0249769Y0227496D01*
X0249854Y0227565D01*
X0249941Y0227630D01*
X0250030Y0227693D01*
X0250122Y0227751D01*
X0250216Y0227807D01*
X0250311Y0227859D01*
X0250409Y0227908D01*
X0250508Y0227953D01*
X0250609Y0227995D01*
X0250711Y0228032D01*
X0250814Y0228066D01*
X0250919Y0228097D01*
X0251025Y0228123D01*
X0251131Y0228146D01*
X0251239Y0228164D01*
X0251347Y0228179D01*
X0251455Y0228190D01*
X0251564Y0228197D01*
X0251673Y0228200D01*
X0251782Y0228199D01*
X0251891Y0228194D01*
X0251999Y0228185D01*
X0252107Y0228172D01*
X0252215Y0228155D01*
X0252322Y0228135D01*
X0252428Y0228110D01*
X0252533Y0228082D01*
X0252637Y0228050D01*
X0252740Y0228014D01*
X0252842Y0227974D01*
X0252942Y0227931D01*
X0253040Y0227884D01*
X0253137Y0227834D01*
X0253231Y0227780D01*
X0253324Y0227722D01*
X0253415Y0227662D01*
X0253503Y0227598D01*
X0253589Y0227531D01*
X0253672Y0227461D01*
X0253753Y0227388D01*
X0253831Y0227312D01*
X0253906Y0227233D01*
X0253979Y0227151D01*
X0254048Y0227067D01*
X0254114Y0226981D01*
X0254177Y0226892D01*
X0254237Y0226801D01*
X0254294Y0226708D01*
X0254347Y0226613D01*
X0254396Y0226516D01*
X0254442Y0226417D01*
X0254484Y0226317D01*
X0254523Y0226215D01*
X0254558Y0226111D01*
X0254589Y0226007D01*
X0254617Y0225902D01*
X0254640Y0225795D01*
X0254660Y0225688D01*
X0254676Y0225580D01*
X0254688Y0225472D01*
X0254696Y0225363D01*
X0254700Y0225254D01*
X0254700Y0225146D01*
X0254696Y0225037D01*
X0254688Y0224928D01*
X0254676Y0224820D01*
X0254660Y0224712D01*
X0254640Y0224605D01*
X0254617Y0224498D01*
X0254589Y0224393D01*
X0254558Y0224289D01*
X0254523Y0224185D01*
X0254484Y0224083D01*
X0254442Y0223983D01*
X0254396Y0223884D01*
X0254347Y0223787D01*
X0254294Y0223692D01*
X0254237Y0223599D01*
X0254177Y0223508D01*
X0254114Y0223419D01*
X0254048Y0223333D01*
X0253979Y0223249D01*
X0253906Y0223167D01*
X0253831Y0223088D01*
X0253753Y0223012D01*
X0253672Y0222939D01*
X0253589Y0222869D01*
X0253503Y0222802D01*
X0253415Y0222738D01*
X0253324Y0222678D01*
X0253231Y0222620D01*
X0253137Y0222566D01*
X0253040Y0222516D01*
X0252942Y0222469D01*
X0252842Y0222426D01*
X0252740Y0222386D01*
X0252637Y0222350D01*
X0252533Y0222318D01*
X0252428Y0222290D01*
X0252322Y0222265D01*
X0252215Y0222245D01*
X0252107Y0222228D01*
X0251999Y0222215D01*
X0251891Y0222206D01*
X0251782Y0222201D01*
X0251673Y0222200D01*
X0251564Y0222203D01*
X0251455Y0222210D01*
X0251347Y0222221D01*
X0251239Y0222236D01*
X0251131Y0222254D01*
X0251025Y0222277D01*
X0250919Y0222303D01*
X0250814Y0222334D01*
X0250711Y0222368D01*
X0250609Y0222405D01*
X0250508Y0222447D01*
X0250409Y0222492D01*
X0250311Y0222541D01*
X0250216Y0222593D01*
X0250122Y0222649D01*
X0250030Y0222707D01*
X0249941Y0222770D01*
X0249854Y0222835D01*
X0249769Y0222904D01*
X0249687Y0222975D01*
X0249608Y0223050D01*
X0249531Y0223127D01*
X0249457Y0223207D01*
X0249386Y0223290D01*
X0249319Y0223376D01*
X0249254Y0223463D01*
X0249192Y0223553D01*
X0249134Y0223645D01*
X0249080Y0223739D01*
X0249028Y0223836D01*
X0248980Y0223934D01*
X0248936Y0224033D01*
X0248896Y0224134D01*
X0248859Y0224237D01*
X0248826Y0224341D01*
X0248796Y0224445D01*
X0248771Y0224551D01*
X0248749Y0224658D01*
X0248732Y0224766D01*
X0248718Y0224874D01*
X0248708Y0224982D01*
X0248702Y0225091D01*
X0248700Y0225200D01*
X0247700Y0225200D02*
X0247702Y0225326D01*
X0247708Y0225452D01*
X0247718Y0225578D01*
X0247732Y0225704D01*
X0247750Y0225829D01*
X0247772Y0225953D01*
X0247797Y0226077D01*
X0247827Y0226200D01*
X0247860Y0226321D01*
X0247898Y0226442D01*
X0247939Y0226561D01*
X0247984Y0226680D01*
X0248032Y0226796D01*
X0248084Y0226911D01*
X0248140Y0227024D01*
X0248200Y0227136D01*
X0248263Y0227245D01*
X0248329Y0227353D01*
X0248398Y0227458D01*
X0248471Y0227561D01*
X0248548Y0227662D01*
X0248627Y0227760D01*
X0248709Y0227856D01*
X0248795Y0227949D01*
X0248883Y0228040D01*
X0248974Y0228127D01*
X0249068Y0228212D01*
X0249164Y0228293D01*
X0249263Y0228372D01*
X0249364Y0228447D01*
X0249468Y0228519D01*
X0249574Y0228588D01*
X0249682Y0228654D01*
X0249792Y0228716D01*
X0249904Y0228774D01*
X0250017Y0228829D01*
X0250133Y0228880D01*
X0250250Y0228928D01*
X0250368Y0228972D01*
X0250488Y0229012D01*
X0250609Y0229048D01*
X0250731Y0229081D01*
X0250854Y0229110D01*
X0250978Y0229134D01*
X0251102Y0229155D01*
X0251227Y0229172D01*
X0251353Y0229185D01*
X0251479Y0229194D01*
X0251605Y0229199D01*
X0251732Y0229200D01*
X0251858Y0229197D01*
X0251984Y0229190D01*
X0252110Y0229179D01*
X0252235Y0229164D01*
X0252360Y0229145D01*
X0252484Y0229122D01*
X0252608Y0229096D01*
X0252730Y0229065D01*
X0252852Y0229031D01*
X0252972Y0228992D01*
X0253091Y0228950D01*
X0253209Y0228905D01*
X0253325Y0228855D01*
X0253440Y0228802D01*
X0253552Y0228745D01*
X0253663Y0228685D01*
X0253772Y0228621D01*
X0253879Y0228554D01*
X0253984Y0228484D01*
X0254087Y0228410D01*
X0254187Y0228333D01*
X0254285Y0228253D01*
X0254380Y0228170D01*
X0254472Y0228084D01*
X0254562Y0227995D01*
X0254649Y0227903D01*
X0254732Y0227809D01*
X0254813Y0227712D01*
X0254891Y0227612D01*
X0254966Y0227510D01*
X0255037Y0227406D01*
X0255105Y0227299D01*
X0255169Y0227191D01*
X0255230Y0227080D01*
X0255288Y0226968D01*
X0255342Y0226854D01*
X0255392Y0226738D01*
X0255439Y0226621D01*
X0255482Y0226502D01*
X0255521Y0226382D01*
X0255557Y0226261D01*
X0255588Y0226138D01*
X0255616Y0226015D01*
X0255640Y0225891D01*
X0255660Y0225766D01*
X0255676Y0225641D01*
X0255688Y0225515D01*
X0255696Y0225389D01*
X0255700Y0225263D01*
X0255700Y0225137D01*
X0255696Y0225011D01*
X0255688Y0224885D01*
X0255676Y0224759D01*
X0255660Y0224634D01*
X0255640Y0224509D01*
X0255616Y0224385D01*
X0255588Y0224262D01*
X0255557Y0224139D01*
X0255521Y0224018D01*
X0255482Y0223898D01*
X0255439Y0223779D01*
X0255392Y0223662D01*
X0255342Y0223546D01*
X0255288Y0223432D01*
X0255230Y0223320D01*
X0255169Y0223209D01*
X0255105Y0223101D01*
X0255037Y0222994D01*
X0254966Y0222890D01*
X0254891Y0222788D01*
X0254813Y0222688D01*
X0254732Y0222591D01*
X0254649Y0222497D01*
X0254562Y0222405D01*
X0254472Y0222316D01*
X0254380Y0222230D01*
X0254285Y0222147D01*
X0254187Y0222067D01*
X0254087Y0221990D01*
X0253984Y0221916D01*
X0253879Y0221846D01*
X0253772Y0221779D01*
X0253663Y0221715D01*
X0253552Y0221655D01*
X0253440Y0221598D01*
X0253325Y0221545D01*
X0253209Y0221495D01*
X0253091Y0221450D01*
X0252972Y0221408D01*
X0252852Y0221369D01*
X0252730Y0221335D01*
X0252608Y0221304D01*
X0252484Y0221278D01*
X0252360Y0221255D01*
X0252235Y0221236D01*
X0252110Y0221221D01*
X0251984Y0221210D01*
X0251858Y0221203D01*
X0251732Y0221200D01*
X0251605Y0221201D01*
X0251479Y0221206D01*
X0251353Y0221215D01*
X0251227Y0221228D01*
X0251102Y0221245D01*
X0250978Y0221266D01*
X0250854Y0221290D01*
X0250731Y0221319D01*
X0250609Y0221352D01*
X0250488Y0221388D01*
X0250368Y0221428D01*
X0250250Y0221472D01*
X0250133Y0221520D01*
X0250017Y0221571D01*
X0249904Y0221626D01*
X0249792Y0221684D01*
X0249682Y0221746D01*
X0249574Y0221812D01*
X0249468Y0221881D01*
X0249364Y0221953D01*
X0249263Y0222028D01*
X0249164Y0222107D01*
X0249068Y0222188D01*
X0248974Y0222273D01*
X0248883Y0222360D01*
X0248795Y0222451D01*
X0248709Y0222544D01*
X0248627Y0222640D01*
X0248548Y0222738D01*
X0248471Y0222839D01*
X0248398Y0222942D01*
X0248329Y0223047D01*
X0248263Y0223155D01*
X0248200Y0223264D01*
X0248140Y0223376D01*
X0248084Y0223489D01*
X0248032Y0223604D01*
X0247984Y0223720D01*
X0247939Y0223839D01*
X0247898Y0223958D01*
X0247860Y0224079D01*
X0247827Y0224200D01*
X0247797Y0224323D01*
X0247772Y0224447D01*
X0247750Y0224571D01*
X0247732Y0224696D01*
X0247718Y0224822D01*
X0247708Y0224948D01*
X0247702Y0225074D01*
X0247700Y0225200D01*
X0036000Y0223500D02*
X0036000Y0264500D01*
X0024500Y0264000D02*
X0024500Y0224000D01*
D14*
X0021450Y0226950D02*
X0015145Y0226950D01*
X0015145Y0231154D01*
X0017246Y0233395D02*
X0015145Y0235497D01*
X0021450Y0235497D01*
X0021450Y0233395D02*
X0021450Y0237599D01*
X0018297Y0229052D02*
X0018297Y0226950D01*
X0037401Y0151155D02*
X0036350Y0150104D01*
X0036350Y0145901D01*
X0037401Y0144850D01*
X0039503Y0144850D01*
X0040554Y0145901D01*
X0040554Y0150104D01*
X0039503Y0151155D01*
X0037401Y0151155D01*
X0038452Y0146952D02*
X0040554Y0144850D01*
X0042795Y0144850D02*
X0046999Y0144850D01*
X0044897Y0144850D02*
X0044897Y0151155D01*
X0042795Y0149054D01*
X0081350Y0150104D02*
X0081350Y0145901D01*
X0082401Y0144850D01*
X0084503Y0144850D01*
X0085554Y0145901D01*
X0085554Y0150104D01*
X0084503Y0151155D01*
X0082401Y0151155D01*
X0081350Y0150104D01*
X0083452Y0146952D02*
X0085554Y0144850D01*
X0087795Y0144850D02*
X0091999Y0149054D01*
X0091999Y0150104D01*
X0090948Y0151155D01*
X0088846Y0151155D01*
X0087795Y0150104D01*
X0087795Y0144850D02*
X0091999Y0144850D01*
X0126350Y0145901D02*
X0127401Y0144850D01*
X0129503Y0144850D01*
X0130554Y0145901D01*
X0130554Y0150104D01*
X0129503Y0151155D01*
X0127401Y0151155D01*
X0126350Y0150104D01*
X0126350Y0145901D01*
X0128452Y0146952D02*
X0130554Y0144850D01*
X0132795Y0145901D02*
X0133846Y0144850D01*
X0135948Y0144850D01*
X0136999Y0145901D01*
X0136999Y0146952D01*
X0135948Y0148003D01*
X0134897Y0148003D01*
X0135948Y0148003D02*
X0136999Y0149054D01*
X0136999Y0150104D01*
X0135948Y0151155D01*
X0133846Y0151155D01*
X0132795Y0150104D01*
X0171350Y0150104D02*
X0171350Y0145901D01*
X0172401Y0144850D01*
X0174503Y0144850D01*
X0175554Y0145901D01*
X0175554Y0150104D01*
X0174503Y0151155D01*
X0172401Y0151155D01*
X0171350Y0150104D01*
X0173452Y0146952D02*
X0175554Y0144850D01*
X0177795Y0148003D02*
X0181999Y0148003D01*
X0180948Y0151155D02*
X0180948Y0144850D01*
X0177795Y0148003D02*
X0180948Y0151155D01*
D15*
X0176000Y0106750D03*
X0186000Y0106750D03*
X0196000Y0106750D03*
X0151000Y0106750D03*
X0141000Y0106750D03*
X0131000Y0106750D03*
X0106000Y0106750D03*
X0096000Y0106750D03*
X0086000Y0106750D03*
X0061000Y0106750D03*
X0051000Y0106750D03*
X0041000Y0106750D03*
D16*
X0041000Y0113500D03*
X0051000Y0113500D03*
X0061000Y0113500D03*
X0086000Y0113500D03*
X0096000Y0113500D03*
X0106000Y0113500D03*
X0131000Y0113500D03*
X0141000Y0113500D03*
X0151000Y0113500D03*
X0176000Y0113500D03*
X0186000Y0113500D03*
X0196000Y0113500D03*
D17*
X0258700Y0188600D02*
X0260200Y0188600D01*
X0260700Y0189100D01*
X0279700Y0189100D01*
X0280200Y0188600D01*
X0281700Y0188600D01*
X0281760Y0188602D01*
X0281821Y0188607D01*
X0281880Y0188616D01*
X0281939Y0188629D01*
X0281998Y0188645D01*
X0282055Y0188665D01*
X0282110Y0188688D01*
X0282165Y0188715D01*
X0282217Y0188744D01*
X0282268Y0188777D01*
X0282317Y0188813D01*
X0282363Y0188851D01*
X0282407Y0188893D01*
X0282449Y0188937D01*
X0282487Y0188983D01*
X0282523Y0189032D01*
X0282556Y0189083D01*
X0282585Y0189135D01*
X0282612Y0189190D01*
X0282635Y0189245D01*
X0282655Y0189302D01*
X0282671Y0189361D01*
X0282684Y0189420D01*
X0282693Y0189479D01*
X0282698Y0189540D01*
X0282700Y0189600D01*
X0282700Y0196600D01*
X0282698Y0196660D01*
X0282693Y0196721D01*
X0282684Y0196780D01*
X0282671Y0196839D01*
X0282655Y0196898D01*
X0282635Y0196955D01*
X0282612Y0197010D01*
X0282585Y0197065D01*
X0282556Y0197117D01*
X0282523Y0197168D01*
X0282487Y0197217D01*
X0282449Y0197263D01*
X0282407Y0197307D01*
X0282363Y0197349D01*
X0282317Y0197387D01*
X0282268Y0197423D01*
X0282217Y0197456D01*
X0282165Y0197485D01*
X0282110Y0197512D01*
X0282055Y0197535D01*
X0281998Y0197555D01*
X0281939Y0197571D01*
X0281880Y0197584D01*
X0281821Y0197593D01*
X0281760Y0197598D01*
X0281700Y0197600D01*
X0280200Y0197600D01*
X0279700Y0197100D01*
X0260700Y0197100D01*
X0260200Y0197600D01*
X0258700Y0197600D01*
X0258640Y0197598D01*
X0258579Y0197593D01*
X0258520Y0197584D01*
X0258461Y0197571D01*
X0258402Y0197555D01*
X0258345Y0197535D01*
X0258290Y0197512D01*
X0258235Y0197485D01*
X0258183Y0197456D01*
X0258132Y0197423D01*
X0258083Y0197387D01*
X0258037Y0197349D01*
X0257993Y0197307D01*
X0257951Y0197263D01*
X0257913Y0197217D01*
X0257877Y0197168D01*
X0257844Y0197117D01*
X0257815Y0197065D01*
X0257788Y0197010D01*
X0257765Y0196955D01*
X0257745Y0196898D01*
X0257729Y0196839D01*
X0257716Y0196780D01*
X0257707Y0196721D01*
X0257702Y0196660D01*
X0257700Y0196600D01*
X0257700Y0189600D01*
X0257702Y0189540D01*
X0257707Y0189479D01*
X0257716Y0189420D01*
X0257729Y0189361D01*
X0257745Y0189302D01*
X0257765Y0189245D01*
X0257788Y0189190D01*
X0257815Y0189135D01*
X0257844Y0189083D01*
X0257877Y0189032D01*
X0257913Y0188983D01*
X0257951Y0188937D01*
X0257993Y0188893D01*
X0258037Y0188851D01*
X0258083Y0188813D01*
X0258132Y0188777D01*
X0258183Y0188744D01*
X0258235Y0188715D01*
X0258290Y0188688D01*
X0258345Y0188665D01*
X0258402Y0188645D01*
X0258461Y0188629D01*
X0258520Y0188616D01*
X0258579Y0188607D01*
X0258640Y0188602D01*
X0258700Y0188600D01*
X0255700Y0199700D02*
X0247700Y0199700D01*
X0247700Y0201200D01*
X0244700Y0201200D01*
X0244700Y0200200D01*
X0232700Y0200200D01*
X0231700Y0201200D01*
X0244700Y0201200D01*
X0247700Y0201200D02*
X0255700Y0201200D01*
X0258700Y0201200D01*
X0271700Y0201200D01*
X0270700Y0200200D01*
X0258700Y0200200D01*
X0258700Y0201200D01*
X0255700Y0201200D02*
X0255700Y0199700D01*
X0271700Y0201200D02*
X0275700Y0205200D01*
X0275700Y0210200D01*
X0275700Y0220700D02*
X0275700Y0229700D01*
X0275700Y0240200D02*
X0275700Y0245200D01*
X0271700Y0249200D01*
X0270700Y0250200D01*
X0258700Y0250200D01*
X0258700Y0249200D01*
X0255700Y0249200D01*
X0255700Y0250700D01*
X0247700Y0250700D01*
X0247700Y0249200D01*
X0244700Y0249200D01*
X0244700Y0250200D01*
X0232700Y0250200D01*
X0231700Y0249200D01*
X0227700Y0245200D01*
X0227700Y0240200D01*
X0231700Y0249200D02*
X0244700Y0249200D01*
X0247700Y0249200D02*
X0255700Y0249200D01*
X0258700Y0249200D02*
X0271700Y0249200D01*
X0259200Y0232700D02*
X0259200Y0217700D01*
X0244200Y0217700D01*
X0244200Y0232700D01*
X0259200Y0232700D01*
X0237700Y0225200D02*
X0237704Y0225544D01*
X0237717Y0225887D01*
X0237738Y0226230D01*
X0237767Y0226572D01*
X0237805Y0226914D01*
X0237852Y0227254D01*
X0237906Y0227593D01*
X0237969Y0227931D01*
X0238040Y0228267D01*
X0238120Y0228602D01*
X0238207Y0228934D01*
X0238303Y0229264D01*
X0238407Y0229592D01*
X0238518Y0229916D01*
X0238638Y0230239D01*
X0238766Y0230558D01*
X0238901Y0230873D01*
X0239044Y0231186D01*
X0239195Y0231495D01*
X0239353Y0231800D01*
X0239519Y0232101D01*
X0239692Y0232397D01*
X0239872Y0232690D01*
X0240059Y0232978D01*
X0240254Y0233261D01*
X0240455Y0233540D01*
X0240663Y0233813D01*
X0240878Y0234082D01*
X0241099Y0234344D01*
X0241327Y0234602D01*
X0241561Y0234854D01*
X0241801Y0235099D01*
X0242046Y0235339D01*
X0242298Y0235573D01*
X0242556Y0235801D01*
X0242818Y0236022D01*
X0243087Y0236237D01*
X0243360Y0236445D01*
X0243639Y0236646D01*
X0243922Y0236841D01*
X0244210Y0237028D01*
X0244503Y0237208D01*
X0244799Y0237381D01*
X0245100Y0237547D01*
X0245405Y0237705D01*
X0245714Y0237856D01*
X0246027Y0237999D01*
X0246342Y0238134D01*
X0246661Y0238262D01*
X0246984Y0238382D01*
X0247308Y0238493D01*
X0247636Y0238597D01*
X0247966Y0238693D01*
X0248298Y0238780D01*
X0248633Y0238860D01*
X0248969Y0238931D01*
X0249307Y0238994D01*
X0249646Y0239048D01*
X0249986Y0239095D01*
X0250328Y0239133D01*
X0250670Y0239162D01*
X0251013Y0239183D01*
X0251356Y0239196D01*
X0251700Y0239200D01*
X0252044Y0239196D01*
X0252387Y0239183D01*
X0252730Y0239162D01*
X0253072Y0239133D01*
X0253414Y0239095D01*
X0253754Y0239048D01*
X0254093Y0238994D01*
X0254431Y0238931D01*
X0254767Y0238860D01*
X0255102Y0238780D01*
X0255434Y0238693D01*
X0255764Y0238597D01*
X0256092Y0238493D01*
X0256416Y0238382D01*
X0256739Y0238262D01*
X0257058Y0238134D01*
X0257373Y0237999D01*
X0257686Y0237856D01*
X0257995Y0237705D01*
X0258300Y0237547D01*
X0258601Y0237381D01*
X0258897Y0237208D01*
X0259190Y0237028D01*
X0259478Y0236841D01*
X0259761Y0236646D01*
X0260040Y0236445D01*
X0260313Y0236237D01*
X0260582Y0236022D01*
X0260844Y0235801D01*
X0261102Y0235573D01*
X0261354Y0235339D01*
X0261599Y0235099D01*
X0261839Y0234854D01*
X0262073Y0234602D01*
X0262301Y0234344D01*
X0262522Y0234082D01*
X0262737Y0233813D01*
X0262945Y0233540D01*
X0263146Y0233261D01*
X0263341Y0232978D01*
X0263528Y0232690D01*
X0263708Y0232397D01*
X0263881Y0232101D01*
X0264047Y0231800D01*
X0264205Y0231495D01*
X0264356Y0231186D01*
X0264499Y0230873D01*
X0264634Y0230558D01*
X0264762Y0230239D01*
X0264882Y0229916D01*
X0264993Y0229592D01*
X0265097Y0229264D01*
X0265193Y0228934D01*
X0265280Y0228602D01*
X0265360Y0228267D01*
X0265431Y0227931D01*
X0265494Y0227593D01*
X0265548Y0227254D01*
X0265595Y0226914D01*
X0265633Y0226572D01*
X0265662Y0226230D01*
X0265683Y0225887D01*
X0265696Y0225544D01*
X0265700Y0225200D01*
X0265696Y0224856D01*
X0265683Y0224513D01*
X0265662Y0224170D01*
X0265633Y0223828D01*
X0265595Y0223486D01*
X0265548Y0223146D01*
X0265494Y0222807D01*
X0265431Y0222469D01*
X0265360Y0222133D01*
X0265280Y0221798D01*
X0265193Y0221466D01*
X0265097Y0221136D01*
X0264993Y0220808D01*
X0264882Y0220484D01*
X0264762Y0220161D01*
X0264634Y0219842D01*
X0264499Y0219527D01*
X0264356Y0219214D01*
X0264205Y0218905D01*
X0264047Y0218600D01*
X0263881Y0218299D01*
X0263708Y0218003D01*
X0263528Y0217710D01*
X0263341Y0217422D01*
X0263146Y0217139D01*
X0262945Y0216860D01*
X0262737Y0216587D01*
X0262522Y0216318D01*
X0262301Y0216056D01*
X0262073Y0215798D01*
X0261839Y0215546D01*
X0261599Y0215301D01*
X0261354Y0215061D01*
X0261102Y0214827D01*
X0260844Y0214599D01*
X0260582Y0214378D01*
X0260313Y0214163D01*
X0260040Y0213955D01*
X0259761Y0213754D01*
X0259478Y0213559D01*
X0259190Y0213372D01*
X0258897Y0213192D01*
X0258601Y0213019D01*
X0258300Y0212853D01*
X0257995Y0212695D01*
X0257686Y0212544D01*
X0257373Y0212401D01*
X0257058Y0212266D01*
X0256739Y0212138D01*
X0256416Y0212018D01*
X0256092Y0211907D01*
X0255764Y0211803D01*
X0255434Y0211707D01*
X0255102Y0211620D01*
X0254767Y0211540D01*
X0254431Y0211469D01*
X0254093Y0211406D01*
X0253754Y0211352D01*
X0253414Y0211305D01*
X0253072Y0211267D01*
X0252730Y0211238D01*
X0252387Y0211217D01*
X0252044Y0211204D01*
X0251700Y0211200D01*
X0251356Y0211204D01*
X0251013Y0211217D01*
X0250670Y0211238D01*
X0250328Y0211267D01*
X0249986Y0211305D01*
X0249646Y0211352D01*
X0249307Y0211406D01*
X0248969Y0211469D01*
X0248633Y0211540D01*
X0248298Y0211620D01*
X0247966Y0211707D01*
X0247636Y0211803D01*
X0247308Y0211907D01*
X0246984Y0212018D01*
X0246661Y0212138D01*
X0246342Y0212266D01*
X0246027Y0212401D01*
X0245714Y0212544D01*
X0245405Y0212695D01*
X0245100Y0212853D01*
X0244799Y0213019D01*
X0244503Y0213192D01*
X0244210Y0213372D01*
X0243922Y0213559D01*
X0243639Y0213754D01*
X0243360Y0213955D01*
X0243087Y0214163D01*
X0242818Y0214378D01*
X0242556Y0214599D01*
X0242298Y0214827D01*
X0242046Y0215061D01*
X0241801Y0215301D01*
X0241561Y0215546D01*
X0241327Y0215798D01*
X0241099Y0216056D01*
X0240878Y0216318D01*
X0240663Y0216587D01*
X0240455Y0216860D01*
X0240254Y0217139D01*
X0240059Y0217422D01*
X0239872Y0217710D01*
X0239692Y0218003D01*
X0239519Y0218299D01*
X0239353Y0218600D01*
X0239195Y0218905D01*
X0239044Y0219214D01*
X0238901Y0219527D01*
X0238766Y0219842D01*
X0238638Y0220161D01*
X0238518Y0220484D01*
X0238407Y0220808D01*
X0238303Y0221136D01*
X0238207Y0221466D01*
X0238120Y0221798D01*
X0238040Y0222133D01*
X0237969Y0222469D01*
X0237906Y0222807D01*
X0237852Y0223146D01*
X0237805Y0223486D01*
X0237767Y0223828D01*
X0237738Y0224170D01*
X0237717Y0224513D01*
X0237704Y0224856D01*
X0237700Y0225200D01*
X0227700Y0229700D02*
X0227700Y0220700D01*
X0227700Y0210200D02*
X0227700Y0205200D01*
X0231700Y0201200D01*
X0239500Y0268000D02*
X0222500Y0268000D01*
X0222440Y0268002D01*
X0222379Y0268007D01*
X0222320Y0268016D01*
X0222261Y0268029D01*
X0222202Y0268045D01*
X0222145Y0268065D01*
X0222090Y0268088D01*
X0222035Y0268115D01*
X0221983Y0268144D01*
X0221932Y0268177D01*
X0221883Y0268213D01*
X0221837Y0268251D01*
X0221793Y0268293D01*
X0221751Y0268337D01*
X0221713Y0268383D01*
X0221677Y0268432D01*
X0221644Y0268483D01*
X0221615Y0268535D01*
X0221588Y0268590D01*
X0221565Y0268645D01*
X0221545Y0268702D01*
X0221529Y0268761D01*
X0221516Y0268820D01*
X0221507Y0268879D01*
X0221502Y0268940D01*
X0221500Y0269000D01*
X0221500Y0279000D01*
X0221502Y0279060D01*
X0221507Y0279121D01*
X0221516Y0279180D01*
X0221529Y0279239D01*
X0221545Y0279298D01*
X0221565Y0279355D01*
X0221588Y0279410D01*
X0221615Y0279465D01*
X0221644Y0279517D01*
X0221677Y0279568D01*
X0221713Y0279617D01*
X0221751Y0279663D01*
X0221793Y0279707D01*
X0221837Y0279749D01*
X0221883Y0279787D01*
X0221932Y0279823D01*
X0221983Y0279856D01*
X0222035Y0279885D01*
X0222090Y0279912D01*
X0222145Y0279935D01*
X0222202Y0279955D01*
X0222261Y0279971D01*
X0222320Y0279984D01*
X0222379Y0279993D01*
X0222440Y0279998D01*
X0222500Y0280000D01*
X0239500Y0280000D01*
X0239560Y0279998D01*
X0239621Y0279993D01*
X0239680Y0279984D01*
X0239739Y0279971D01*
X0239798Y0279955D01*
X0239855Y0279935D01*
X0239910Y0279912D01*
X0239965Y0279885D01*
X0240017Y0279856D01*
X0240068Y0279823D01*
X0240117Y0279787D01*
X0240163Y0279749D01*
X0240207Y0279707D01*
X0240249Y0279663D01*
X0240287Y0279617D01*
X0240323Y0279568D01*
X0240356Y0279517D01*
X0240385Y0279465D01*
X0240412Y0279410D01*
X0240435Y0279355D01*
X0240455Y0279298D01*
X0240471Y0279239D01*
X0240484Y0279180D01*
X0240493Y0279121D01*
X0240498Y0279060D01*
X0240500Y0279000D01*
X0240500Y0269000D01*
X0240498Y0268940D01*
X0240493Y0268879D01*
X0240484Y0268820D01*
X0240471Y0268761D01*
X0240455Y0268702D01*
X0240435Y0268645D01*
X0240412Y0268590D01*
X0240385Y0268535D01*
X0240356Y0268483D01*
X0240323Y0268432D01*
X0240287Y0268383D01*
X0240249Y0268337D01*
X0240207Y0268293D01*
X0240163Y0268251D01*
X0240117Y0268213D01*
X0240068Y0268177D01*
X0240017Y0268144D01*
X0239965Y0268115D01*
X0239910Y0268088D01*
X0239855Y0268065D01*
X0239798Y0268045D01*
X0239739Y0268029D01*
X0239680Y0268016D01*
X0239621Y0268007D01*
X0239560Y0268002D01*
X0239500Y0268000D01*
X0232500Y0274000D02*
X0232000Y0274000D01*
X0230000Y0274000D02*
X0229500Y0274000D01*
X0222500Y0293000D02*
X0239500Y0293000D01*
X0239560Y0293002D01*
X0239621Y0293007D01*
X0239680Y0293016D01*
X0239739Y0293029D01*
X0239798Y0293045D01*
X0239855Y0293065D01*
X0239910Y0293088D01*
X0239965Y0293115D01*
X0240017Y0293144D01*
X0240068Y0293177D01*
X0240117Y0293213D01*
X0240163Y0293251D01*
X0240207Y0293293D01*
X0240249Y0293337D01*
X0240287Y0293383D01*
X0240323Y0293432D01*
X0240356Y0293483D01*
X0240385Y0293535D01*
X0240412Y0293590D01*
X0240435Y0293645D01*
X0240455Y0293702D01*
X0240471Y0293761D01*
X0240484Y0293820D01*
X0240493Y0293879D01*
X0240498Y0293940D01*
X0240500Y0294000D01*
X0240500Y0304000D01*
X0240498Y0304060D01*
X0240493Y0304121D01*
X0240484Y0304180D01*
X0240471Y0304239D01*
X0240455Y0304298D01*
X0240435Y0304355D01*
X0240412Y0304410D01*
X0240385Y0304465D01*
X0240356Y0304517D01*
X0240323Y0304568D01*
X0240287Y0304617D01*
X0240249Y0304663D01*
X0240207Y0304707D01*
X0240163Y0304749D01*
X0240117Y0304787D01*
X0240068Y0304823D01*
X0240017Y0304856D01*
X0239965Y0304885D01*
X0239910Y0304912D01*
X0239855Y0304935D01*
X0239798Y0304955D01*
X0239739Y0304971D01*
X0239680Y0304984D01*
X0239621Y0304993D01*
X0239560Y0304998D01*
X0239500Y0305000D01*
X0222500Y0305000D01*
X0222440Y0304998D01*
X0222379Y0304993D01*
X0222320Y0304984D01*
X0222261Y0304971D01*
X0222202Y0304955D01*
X0222145Y0304935D01*
X0222090Y0304912D01*
X0222035Y0304885D01*
X0221983Y0304856D01*
X0221932Y0304823D01*
X0221883Y0304787D01*
X0221837Y0304749D01*
X0221793Y0304707D01*
X0221751Y0304663D01*
X0221713Y0304617D01*
X0221677Y0304568D01*
X0221644Y0304517D01*
X0221615Y0304465D01*
X0221588Y0304410D01*
X0221565Y0304355D01*
X0221545Y0304298D01*
X0221529Y0304239D01*
X0221516Y0304180D01*
X0221507Y0304121D01*
X0221502Y0304060D01*
X0221500Y0304000D01*
X0221500Y0294000D01*
X0221502Y0293940D01*
X0221507Y0293879D01*
X0221516Y0293820D01*
X0221529Y0293761D01*
X0221545Y0293702D01*
X0221565Y0293645D01*
X0221588Y0293590D01*
X0221615Y0293535D01*
X0221644Y0293483D01*
X0221677Y0293432D01*
X0221713Y0293383D01*
X0221751Y0293337D01*
X0221793Y0293293D01*
X0221837Y0293251D01*
X0221883Y0293213D01*
X0221932Y0293177D01*
X0221983Y0293144D01*
X0222035Y0293115D01*
X0222090Y0293088D01*
X0222145Y0293065D01*
X0222202Y0293045D01*
X0222261Y0293029D01*
X0222320Y0293016D01*
X0222379Y0293007D01*
X0222440Y0293002D01*
X0222500Y0293000D01*
X0229500Y0299000D02*
X0230000Y0299000D01*
X0232000Y0299000D02*
X0232500Y0299000D01*
X0236000Y0321500D02*
X0226000Y0321500D01*
X0226000Y0324000D01*
X0226000Y0326500D01*
X0236000Y0326500D01*
X0236000Y0324000D01*
X0236000Y0321500D01*
X0236000Y0324000D02*
X0238000Y0324000D01*
X0226000Y0324000D02*
X0224000Y0324000D01*
X0084500Y0223700D02*
X0084500Y0218700D01*
X0082000Y0216200D01*
X0084500Y0213700D01*
X0084500Y0208700D01*
X0082000Y0206200D01*
X0084500Y0203700D01*
X0084500Y0198700D01*
X0082000Y0196200D01*
X0084500Y0193700D01*
X0084500Y0188700D01*
X0082000Y0186200D01*
X0067000Y0186200D01*
X0064500Y0188700D01*
X0064500Y0193700D01*
X0067000Y0196200D01*
X0064500Y0198700D01*
X0064500Y0203700D01*
X0067000Y0206200D01*
X0064500Y0208700D01*
X0064500Y0213700D01*
X0067000Y0216200D01*
X0064500Y0218700D01*
X0064500Y0223700D01*
X0067000Y0226200D01*
X0082000Y0226200D01*
X0084500Y0223700D01*
X0076400Y0234800D02*
X0059400Y0234800D01*
X0059340Y0234802D01*
X0059279Y0234807D01*
X0059220Y0234816D01*
X0059161Y0234829D01*
X0059102Y0234845D01*
X0059045Y0234865D01*
X0058990Y0234888D01*
X0058935Y0234915D01*
X0058883Y0234944D01*
X0058832Y0234977D01*
X0058783Y0235013D01*
X0058737Y0235051D01*
X0058693Y0235093D01*
X0058651Y0235137D01*
X0058613Y0235183D01*
X0058577Y0235232D01*
X0058544Y0235283D01*
X0058515Y0235335D01*
X0058488Y0235390D01*
X0058465Y0235445D01*
X0058445Y0235502D01*
X0058429Y0235561D01*
X0058416Y0235620D01*
X0058407Y0235679D01*
X0058402Y0235740D01*
X0058400Y0235800D01*
X0058400Y0243800D01*
X0058402Y0243860D01*
X0058407Y0243921D01*
X0058416Y0243980D01*
X0058429Y0244039D01*
X0058445Y0244098D01*
X0058465Y0244155D01*
X0058488Y0244210D01*
X0058515Y0244265D01*
X0058544Y0244317D01*
X0058577Y0244368D01*
X0058613Y0244417D01*
X0058651Y0244463D01*
X0058693Y0244507D01*
X0058737Y0244549D01*
X0058783Y0244587D01*
X0058832Y0244623D01*
X0058883Y0244656D01*
X0058935Y0244685D01*
X0058990Y0244712D01*
X0059045Y0244735D01*
X0059102Y0244755D01*
X0059161Y0244771D01*
X0059220Y0244784D01*
X0059279Y0244793D01*
X0059340Y0244798D01*
X0059400Y0244800D01*
X0076400Y0244800D01*
X0076460Y0244798D01*
X0076521Y0244793D01*
X0076580Y0244784D01*
X0076639Y0244771D01*
X0076698Y0244755D01*
X0076755Y0244735D01*
X0076810Y0244712D01*
X0076865Y0244685D01*
X0076917Y0244656D01*
X0076968Y0244623D01*
X0077017Y0244587D01*
X0077063Y0244549D01*
X0077107Y0244507D01*
X0077149Y0244463D01*
X0077187Y0244417D01*
X0077223Y0244368D01*
X0077256Y0244317D01*
X0077285Y0244265D01*
X0077312Y0244210D01*
X0077335Y0244155D01*
X0077355Y0244098D01*
X0077371Y0244039D01*
X0077384Y0243980D01*
X0077393Y0243921D01*
X0077398Y0243860D01*
X0077400Y0243800D01*
X0077400Y0235800D01*
X0077398Y0235740D01*
X0077393Y0235679D01*
X0077384Y0235620D01*
X0077371Y0235561D01*
X0077355Y0235502D01*
X0077335Y0235445D01*
X0077312Y0235390D01*
X0077285Y0235335D01*
X0077256Y0235283D01*
X0077223Y0235232D01*
X0077187Y0235183D01*
X0077149Y0235137D01*
X0077107Y0235093D01*
X0077063Y0235051D01*
X0077017Y0235013D01*
X0076968Y0234977D01*
X0076917Y0234944D01*
X0076865Y0234915D01*
X0076810Y0234888D01*
X0076755Y0234865D01*
X0076698Y0234845D01*
X0076639Y0234829D01*
X0076580Y0234816D01*
X0076521Y0234807D01*
X0076460Y0234802D01*
X0076400Y0234800D01*
X0069400Y0239800D02*
X0068900Y0239800D01*
X0066900Y0239800D02*
X0066400Y0239800D01*
X0054000Y0224000D02*
X0050500Y0224000D01*
X0050500Y0217000D01*
X0052500Y0217000D01*
X0052500Y0211000D01*
X0050500Y0211000D01*
X0050500Y0199000D01*
X0021500Y0199000D01*
X0021500Y0211000D01*
X0019500Y0211000D01*
X0019500Y0217000D01*
X0021500Y0217000D01*
X0021500Y0224000D01*
X0018000Y0224000D01*
X0018000Y0194500D01*
X0054000Y0194500D01*
X0054000Y0224000D01*
X0050500Y0224000D02*
X0048000Y0224000D01*
X0048000Y0264000D01*
X0050500Y0264000D01*
X0054000Y0264000D01*
X0054000Y0293500D01*
X0018000Y0293500D01*
X0018000Y0264000D01*
X0021500Y0264000D01*
X0024000Y0264000D01*
X0024000Y0224000D01*
X0021500Y0224000D01*
X0021500Y0264000D02*
X0021500Y0271000D01*
X0019500Y0271000D01*
X0019500Y0277000D01*
X0021500Y0277000D01*
X0021500Y0289000D01*
X0050500Y0289000D01*
X0050500Y0277000D01*
X0052500Y0277000D01*
X0052500Y0271000D01*
X0050500Y0271000D01*
X0050500Y0264000D01*
X0068500Y0279000D02*
X0071000Y0279000D01*
X0073500Y0279000D01*
X0073500Y0289000D01*
X0071000Y0289000D01*
X0068500Y0289000D01*
X0068500Y0279000D01*
X0071000Y0279000D02*
X0071000Y0277000D01*
X0071000Y0289000D02*
X0071000Y0291000D01*
X0084500Y0048500D02*
X0086000Y0048500D01*
X0086500Y0048000D01*
X0105500Y0048000D01*
X0106000Y0048500D01*
X0107500Y0048500D01*
X0107560Y0048498D01*
X0107621Y0048493D01*
X0107680Y0048484D01*
X0107739Y0048471D01*
X0107798Y0048455D01*
X0107855Y0048435D01*
X0107910Y0048412D01*
X0107965Y0048385D01*
X0108017Y0048356D01*
X0108068Y0048323D01*
X0108117Y0048287D01*
X0108163Y0048249D01*
X0108207Y0048207D01*
X0108249Y0048163D01*
X0108287Y0048117D01*
X0108323Y0048068D01*
X0108356Y0048017D01*
X0108385Y0047965D01*
X0108412Y0047910D01*
X0108435Y0047855D01*
X0108455Y0047798D01*
X0108471Y0047739D01*
X0108484Y0047680D01*
X0108493Y0047621D01*
X0108498Y0047560D01*
X0108500Y0047500D01*
X0108500Y0040500D01*
X0108498Y0040440D01*
X0108493Y0040379D01*
X0108484Y0040320D01*
X0108471Y0040261D01*
X0108455Y0040202D01*
X0108435Y0040145D01*
X0108412Y0040090D01*
X0108385Y0040035D01*
X0108356Y0039983D01*
X0108323Y0039932D01*
X0108287Y0039883D01*
X0108249Y0039837D01*
X0108207Y0039793D01*
X0108163Y0039751D01*
X0108117Y0039713D01*
X0108068Y0039677D01*
X0108017Y0039644D01*
X0107965Y0039615D01*
X0107910Y0039588D01*
X0107855Y0039565D01*
X0107798Y0039545D01*
X0107739Y0039529D01*
X0107680Y0039516D01*
X0107621Y0039507D01*
X0107560Y0039502D01*
X0107500Y0039500D01*
X0106000Y0039500D01*
X0105500Y0040000D01*
X0086500Y0040000D01*
X0086000Y0039500D01*
X0084500Y0039500D01*
X0084440Y0039502D01*
X0084379Y0039507D01*
X0084320Y0039516D01*
X0084261Y0039529D01*
X0084202Y0039545D01*
X0084145Y0039565D01*
X0084090Y0039588D01*
X0084035Y0039615D01*
X0083983Y0039644D01*
X0083932Y0039677D01*
X0083883Y0039713D01*
X0083837Y0039751D01*
X0083793Y0039793D01*
X0083751Y0039837D01*
X0083713Y0039883D01*
X0083677Y0039932D01*
X0083644Y0039983D01*
X0083615Y0040035D01*
X0083588Y0040090D01*
X0083565Y0040145D01*
X0083545Y0040202D01*
X0083529Y0040261D01*
X0083516Y0040320D01*
X0083507Y0040379D01*
X0083502Y0040440D01*
X0083500Y0040500D01*
X0083500Y0047500D01*
X0083502Y0047560D01*
X0083507Y0047621D01*
X0083516Y0047680D01*
X0083529Y0047739D01*
X0083545Y0047798D01*
X0083565Y0047855D01*
X0083588Y0047910D01*
X0083615Y0047965D01*
X0083644Y0048017D01*
X0083677Y0048068D01*
X0083713Y0048117D01*
X0083751Y0048163D01*
X0083793Y0048207D01*
X0083837Y0048249D01*
X0083883Y0048287D01*
X0083932Y0048323D01*
X0083983Y0048356D01*
X0084035Y0048385D01*
X0084090Y0048412D01*
X0084145Y0048435D01*
X0084202Y0048455D01*
X0084261Y0048471D01*
X0084320Y0048484D01*
X0084379Y0048493D01*
X0084440Y0048498D01*
X0084500Y0048500D01*
D18*
X0081800Y0044000D03*
X0110200Y0044000D03*
X0256000Y0193100D03*
X0284400Y0193100D03*
D19*
X0232000Y0271000D02*
X0232000Y0274000D01*
X0232000Y0277000D01*
X0230000Y0277000D02*
X0230000Y0274000D01*
X0230000Y0271000D01*
X0230000Y0296000D02*
X0230000Y0299000D01*
X0230000Y0302000D01*
X0232000Y0302000D02*
X0232000Y0299000D01*
X0232000Y0296000D01*
X0068900Y0242800D02*
X0068900Y0239800D01*
X0068900Y0236800D01*
X0066900Y0236800D02*
X0066900Y0239800D01*
X0066900Y0242800D01*
X0053500Y0299000D02*
X0036000Y0299000D01*
X0036000Y0329000D01*
X0053500Y0329000D01*
X0053500Y0299000D01*
X0036000Y0299000D02*
X0028500Y0299000D01*
X0028500Y0329000D01*
X0036000Y0329000D01*
X0031000Y0084000D02*
X0023500Y0084000D01*
X0023500Y0064000D01*
X0031000Y0064000D01*
X0031000Y0084000D01*
X0048500Y0084000D01*
X0048500Y0064000D01*
X0031000Y0064000D01*
X0031000Y0059000D02*
X0031000Y0039000D01*
X0023500Y0039000D01*
X0023500Y0059000D01*
X0031000Y0059000D01*
X0048500Y0059000D01*
X0048500Y0039000D01*
X0031000Y0039000D01*
X0031000Y0034000D02*
X0023500Y0034000D01*
X0023500Y0014000D01*
X0031000Y0014000D01*
X0031000Y0034000D01*
X0048500Y0034000D01*
X0048500Y0014000D01*
X0031000Y0014000D01*
D20*
X0238450Y0201200D03*
X0264950Y0201200D03*
X0264950Y0249200D03*
X0238450Y0249200D03*
D21*
X0043500Y0244000D03*
X0028500Y0244000D03*
D22*
X0026750Y0222750D03*
X0045250Y0222750D03*
X0045250Y0265250D03*
X0026750Y0265250D03*
D23*
X0036000Y0285000D03*
X0036000Y0203000D03*
D24*
X0025750Y0212000D03*
X0046250Y0212000D03*
X0046250Y0276000D03*
X0025750Y0276000D03*
D25*
X0022000Y0274000D03*
X0050000Y0274000D03*
X0050000Y0214000D03*
X0022000Y0214000D03*
D26*
X0028250Y0219500D03*
X0043750Y0219500D03*
X0043750Y0268500D03*
X0028250Y0268500D03*
D27*
X0028250Y0281000D03*
X0043750Y0281000D03*
X0043750Y0207000D03*
X0028250Y0207000D03*
M02*
